<svg width="1440" height="681" viewBox="0 0 1440 681" fill="none" xmlns="http://www.w3.org/2000/svg">
<g clip-path="url(#clip0_2001_2599)">
<rect width="1440" height="681" fill="url(#paint0_linear_2001_2599)"/>
<g style="mix-blend-mode:multiply" opacity="0.8">
<path d="M192.048 571.192C124.489 573.498 63.5178 563.083 20.4093 541.492C-58.8808 501.775 -70.68 430.137 -11.9665 344.939C11.9049 310.306 46.9443 276.69 80.8314 244.177C146.336 181.334 214.065 116.355 207.598 39.255C202.549 -20.9403 140.649 -74.2544 60.4137 -87.5181C-19.822 -100.785 -115.2 -73.4653 -166.373 -22.5664L-168.524 -23.6398C-116.683 -75.2035 -20.0704 -102.871 61.2114 -89.4369C142.488 -75.9993 205.198 -21.9919 210.309 38.9841C216.835 116.83 148.774 182.13 82.9529 245.279C49.1499 277.71 14.1945 311.248 -9.55065 345.701C-67.6066 429.937 -56.0833 500.698 22.0686 539.843C128.718 593.266 345.923 577.603 499.273 469.144C504.624 465.36 510.031 461.383 515.256 457.531C540.34 439.061 566.277 419.961 599.665 411.964C674.366 394.076 729.68 433.614 783.171 471.855C834.097 508.254 886.778 545.884 956.122 534.386C1021.65 523.515 1052.92 482.416 1086.03 438.903C1108.75 409.036 1132.24 378.152 1167.88 357.955C1201.01 339.184 1241.55 330.63 1280.77 322.356C1305.85 317.065 1331.78 311.595 1355.69 303.499C1431.31 277.885 1493.73 222.872 1526.93 152.56C1556.79 89.3244 1561.36 22.996 1565.77 -41.1505L1568.48 -41.2051C1564.06 23.0791 1559.48 89.5485 1529.49 153.06C1496.03 223.926 1433.04 279.402 1356.68 305.264C1332.57 313.429 1306.53 318.924 1281.35 324.238C1242.4 332.455 1202.12 340.952 1169.46 359.467C1134.31 379.389 1110.96 410.073 1088.39 439.746C1056.42 481.765 1023.36 525.214 956.539 536.297C949.458 537.473 942.54 538.151 935.798 538.381C875.124 540.452 827.458 506.373 781.197 473.306C728.241 435.452 673.479 396.307 600.336 413.826C567.628 421.659 541.951 440.568 517.117 458.855C511.882 462.713 506.465 466.698 501.095 470.496C408.624 535.897 292.999 567.745 192.053 571.188L192.048 571.192Z" fill="white"/>
<path d="M206.036 573.649C101.617 577.209 17.2256 550.362 -18.1282 501.174C-47.5339 459.953 -40.8004 405.209 1.34717 342.856C24.1429 309.277 57.0883 276.653 88.9493 245.102C151.606 183.056 216.393 118.895 208.939 43.4234C203.026 -15.9317 143.673 -66.9267 64.6052 -80.5898C-14.2043 -94.1895 -105.384 -69.472 -157.126 -20.4872L-159.233 -21.603C-106.808 -71.2357 -14.4241 -96.2792 65.4263 -82.5021C145.525 -68.6614 205.652 -16.9994 211.646 43.1321C219.173 119.346 154.064 183.827 91.0954 246.179C59.3135 277.655 26.4424 310.204 3.76306 343.611C-37.9797 405.367 -44.7112 459.503 -15.704 500.168C22.4809 553.296 118.856 580.009 235.836 569.888C333.313 561.451 431.108 527.189 504.14 475.886C509.558 472.07 515.032 468.05 520.325 464.166C544.744 446.231 570 427.687 602.211 419.542C674.705 401.293 728.631 437.639 780.79 472.786C830.427 506.233 881.737 540.815 949.196 528.973C1012.24 517.911 1043.49 478.978 1076.57 437.758L1079.61 433.978C1100.42 408.024 1124.02 378.602 1159.34 359.516C1192.94 341.309 1233.81 333.209 1273.33 325.378C1296.64 320.76 1320.74 315.981 1343.17 309.183C1422.3 285.192 1486.91 231.512 1520.42 161.907C1551.97 96.5212 1555.42 26.2343 1554.45 -39.9788L1557.16 -40.1536C1558.14 26.2447 1554.66 96.7382 1522.98 162.424C1489.18 232.609 1423.97 286.759 1344.05 310.989C1321.44 317.842 1297.25 322.638 1273.85 327.272C1234.59 335.053 1193.99 343.099 1160.85 361.061C1126.03 379.879 1102.6 409.093 1081.93 434.871L1078.89 438.65C1046.94 478.451 1013.91 519.611 949.637 530.891C880.806 542.971 828.978 508.053 778.858 474.279C724.872 437.898 673.889 403.531 602.92 421.399C571.366 429.38 546.36 447.741 522.181 465.496C516.878 469.391 511.394 473.418 505.951 477.249C432.455 528.877 334.044 563.355 235.948 571.844C225.815 572.721 215.832 573.322 206.026 573.656L206.036 573.649Z" fill="#FDFEFE"/>
<path d="M221.539 576.246C113.199 579.94 26.3677 551.047 -7.54715 499.219C-34.824 457.528 -27.3496 404.227 14.6711 340.795C36.3756 308.315 67.2167 276.722 97.046 246.169C156.888 184.872 218.769 121.487 210.301 47.5866C203.606 -9.96719 145.424 -59.829 68.8132 -73.672C-7.28644 -87.3849 -96.3877 -64.6635 -147.864 -18.4174L-149.921 -19.5758C-97.7494 -66.4461 -7.4539 -89.4759 69.6627 -75.5815C147.281 -61.5567 206.227 -11.038 213.008 47.2713C221.559 121.903 159.366 185.607 99.2217 247.214C69.4666 277.696 38.695 309.214 17.102 341.528C-24.5336 404.381 -31.9983 457.116 -5.0731 498.263C30.2984 552.32 124.223 581.064 240.02 573.351C337.718 566.819 435.777 533.758 509.049 482.648C514.539 478.799 520.081 474.739 525.442 470.812C549.196 453.414 573.758 435.422 604.792 427.133C675.076 408.526 727.634 441.676 778.464 473.738C826.803 504.231 876.787 535.765 942.306 523.594C1002.84 512.354 1034.02 475.578 1067.02 436.643L1071.3 431.607C1091.1 408.218 1115.76 379.104 1150.83 361.09C1184.99 343.454 1226.3 335.851 1266.25 328.498C1287.71 324.551 1309.89 320.466 1330.7 314.877C1414.52 292.359 1479.61 241.353 1513.97 171.25C1550.84 96.2707 1548.31 15.446 1543.19 -38.8261L1545.9 -39.1105C1551.03 15.336 1553.57 96.4386 1516.52 171.774C1481.86 242.494 1416.14 293.965 1331.47 316.71C1310.52 322.339 1288.26 326.437 1266.73 330.396C1227.04 337.7 1186 345.252 1152.29 362.657C1117.72 380.41 1093.25 409.312 1073.58 432.535L1069.31 437.571C1037.44 475.163 1004.49 514.034 942.785 525.489C875.904 537.906 825.421 506.059 776.592 475.26C724.002 442.084 674.327 410.752 605.549 428.968C575.144 437.091 550.817 454.907 527.297 472.136C521.927 476.069 516.37 480.14 510.855 484.007C437.1 535.453 338.401 568.731 240.061 575.306C233.824 575.721 227.649 576.035 221.544 576.243L221.539 576.246Z" fill="#F9FCFD"/>
<path d="M237.014 579.076C124.767 582.903 35.493 551.818 3.04401 497.27C-21.803 455.5 -13.4063 402.16 28.0001 338.739C48.5815 307.217 77.4657 276.54 105.396 246.877C162.3 186.441 221.142 123.946 211.664 51.7612C204.202 -3.99581 147.187 -52.7282 73.0224 -66.7474C-0.377382 -80.5696 -87.4007 -59.8368 -138.611 -16.3352L-140.618 -17.5397C-88.7045 -61.6416 -0.492845 -82.6552 73.8906 -68.6503C149.034 -54.4449 206.799 -5.06911 214.358 51.4258C223.934 124.335 164.789 187.149 107.592 247.896C79.7258 277.492 50.9112 308.095 30.4311 339.466C-10.6202 402.343 -18.9937 455.137 5.54334 496.385C38.2533 551.377 129.661 582.242 244.191 576.834C342.35 572.232 440.67 540.371 513.939 489.427C519.691 485.429 525.487 481.197 531.087 477.105C554.006 460.369 577.707 443.061 607.365 434.742C675.416 415.651 726.633 445.652 776.16 474.668C823.201 502.227 871.854 530.721 935.408 518.237C993.395 506.848 1024.44 472.231 1057.31 435.578L1062.99 429.26C1087.25 402.179 1109.96 378.475 1142.32 362.691C1177.18 345.682 1219.04 338.614 1259.51 331.775C1279.01 328.479 1299.19 325.073 1318.22 320.599C1406.8 299.786 1472.26 251.379 1507.51 180.617C1538.43 118.819 1546.42 47.4254 1531.93 -37.6469L1534.62 -38.0337C1549.17 47.3522 1541.13 119.05 1510.05 181.154C1474.47 252.573 1408.36 301.434 1318.88 322.464C1299.73 326.963 1279.49 330.384 1259.92 333.686C1219.71 340.478 1178.12 347.506 1143.71 364.294C1111.83 379.846 1089.3 403.361 1065.23 430.237L1059.55 436.559C1027.82 471.941 995.007 508.526 935.925 520.133C871.055 532.889 821.894 504.087 774.352 476.239C723.136 446.234 674.766 417.89 608.164 436.574C579.102 444.729 555.631 461.865 532.932 478.442C527.318 482.541 521.508 486.784 515.731 490.8C441.958 542.094 342.975 574.166 244.15 578.801C241.754 578.914 239.369 579.009 236.999 579.09L237.014 579.076Z" fill="#F7FBFC"/>
<path d="M252.148 582.135C250.856 582.179 249.578 582.219 248.282 582.253C135.751 585.257 43.655 551.13 13.6492 495.312C-8.7211 453.7 0.597542 400.325 41.3427 336.678C60.7833 306.305 87.5851 276.714 113.506 248.099C167.622 188.356 223.579 126.578 213.046 55.9291C204.817 1.96219 148.974 -45.6404 77.2514 -59.8285C6.56044 -73.7464 -78.3939 -55.0082 -129.332 -14.2544L-131.276 -15.5089C-79.6303 -56.8321 6.49739 -75.8368 78.1524 -61.7253C150.825 -47.3466 207.405 0.885992 215.746 55.5695C226.386 126.935 170.135 189.032 115.741 249.086C89.8794 277.637 63.1376 307.158 43.7884 337.387C3.3782 400.519 -5.90892 453.374 16.1887 494.485C45.8075 549.585 136.95 583.271 248.394 580.294C249.671 580.261 250.953 580.221 252.231 580.177C349.303 576.867 446.283 546.351 518.86 496.18C524.758 492.103 530.694 487.781 536.435 483.599C558.616 467.444 581.556 450.738 609.962 442.329C675.821 422.832 725.678 449.662 773.894 475.608C819.633 500.222 866.931 525.664 928.536 512.857C984.211 501.285 1016.61 467.092 1047.93 434.022C1050.19 431.643 1052.45 429.261 1054.7 426.889C1079.1 401.317 1101.89 378.956 1133.84 364.262C1169.47 347.875 1211.99 341.41 1253.11 335.157C1270.58 332.503 1288.64 329.753 1305.77 326.291C1399.15 307.413 1464.86 261.542 1501.07 189.954C1542.82 107.821 1534.78 21.4758 1520.69 -36.4968L1523.36 -36.979C1537.52 21.2282 1545.58 107.947 1503.61 190.503C1467.56 261.765 1399.34 309.376 1306.31 328.18C1289.09 331.659 1270.98 334.414 1253.46 337.076C1212.59 343.29 1170.34 349.711 1135.16 365.891C1103.7 380.363 1081.1 402.542 1056.9 427.912C1054.64 430.284 1052.38 432.662 1050.13 435.041C1018.5 468.43 985.791 502.953 929.091 514.739C866.214 527.819 818.401 502.096 772.165 477.214C722.322 450.394 675.247 425.06 610.811 444.135C582.966 452.377 560.247 468.925 538.281 484.925C532.525 489.118 526.574 493.451 520.647 497.546C447.557 548.067 349.89 578.799 252.138 582.136L252.148 582.135Z" fill="#F4F9FB"/>
<path d="M265.993 585.441C261.457 585.595 256.929 585.685 252.408 585.715C141.204 586.407 51.6533 550.154 24.263 493.361C4.04733 451.44 14.0017 399.519 54.6887 334.621C72.9667 305.47 97.6735 277.036 121.563 249.539C172.931 190.416 226.05 129.282 214.433 60.1043C205.302 7.09855 151.876 -38.3193 81.4803 -52.9055C13.4696 -66.918 -69.4019 -50.164 -120.063 -12.1712L-121.942 -13.4756C-70.5709 -52.007 13.4679 -68.9998 82.4095 -54.7961C153.736 -40.0152 207.872 6.00262 217.124 59.7176C228.863 129.601 175.465 191.057 123.827 250.487C99.9881 277.924 75.3361 306.295 57.1443 335.316C16.7678 399.713 6.85261 451.159 26.8284 492.587C53.8653 548.656 142.483 584.44 252.591 583.754C349.602 583.158 450.995 552.939 523.778 502.936C529.831 498.775 535.919 494.352 541.801 490.077C563.234 474.503 585.397 458.403 612.553 449.914C676.223 430.012 724.74 453.671 771.654 476.545C816.082 498.211 862.025 520.621 921.661 507.478C974.747 495.804 1006.89 463.821 1037.98 432.888C1040.79 430.093 1043.6 427.295 1046.43 424.513C1070.78 400.525 1093.53 379.552 1125.36 365.836C1161.86 350.097 1205.17 344.316 1247.04 338.725C1262.37 336.675 1278.23 334.56 1293.32 331.992C1390.19 315.515 1457.92 270.869 1494.63 199.299C1530.04 130.634 1535.31 47.3062 1509.46 -35.3376L1512.1 -35.908C1538.07 47.0989 1532.76 130.829 1497.16 199.858C1460.08 272.154 1391.64 317.252 1293.74 333.905C1278.59 336.483 1262.69 338.606 1247.33 340.656C1205.7 346.215 1162.66 351.963 1126.61 367.505C1095.27 381.013 1072.73 401.807 1048.57 425.596C1045.75 428.377 1042.94 431.172 1040.13 433.964C1008.75 465.187 976.303 497.473 922.264 509.354C861.398 522.765 814.949 500.109 770.023 478.203C721.548 454.562 675.754 432.236 613.463 451.708C586.836 460.031 564.884 475.983 543.65 491.41C537.749 495.696 531.647 500.13 525.565 504.308C455.644 552.348 359.519 582.251 265.993 585.444L265.993 585.441Z" fill="#F1F8FA"/>
<path d="M279.779 588.943C272.015 589.208 264.267 589.287 256.542 589.173C146.679 587.578 59.6744 549.201 34.8865 491.403C17.0886 449.9 27.9362 397.943 68.0436 332.568C85.1266 304.729 107.716 277.533 129.566 251.235C180.483 189.95 228.575 132.066 215.83 64.2831C205.936 13.0882 153.654 -31.2227 85.7244 -45.9745C19.3597 -60.2894 -59.6068 -45.8692 -110.777 -10.0753L-112.583 -11.4332C-60.6844 -47.7389 19.3961 -62.372 86.6818 -47.8588C155.514 -32.908 208.491 11.9896 218.517 63.8692C231.399 132.35 180.798 193.251 131.865 252.148C110.06 278.392 87.516 305.526 70.5092 333.245C30.687 398.157 19.8825 449.657 37.4822 490.693C61.9506 547.748 148.042 585.636 256.806 587.213C353.888 588.62 455.538 559.642 528.707 509.687C534.934 505.436 541.182 500.906 547.225 496.527C567.892 481.544 589.264 466.054 615.154 457.504C676.649 437.189 723.835 457.675 769.466 477.487C812.569 496.203 857.138 515.554 914.79 502.111C965.233 490.368 997.032 460.597 1027.78 431.809C1031.23 428.581 1034.68 425.354 1038.15 422.149C1061.55 400.569 1085.17 380.143 1116.88 367.417C1154.36 352.375 1198.55 347.364 1241.28 342.515C1254.38 341.029 1267.93 339.494 1280.87 337.698C1382.58 323.586 1450.4 281.375 1488.18 208.645C1526.36 135.591 1529.93 49.3566 1498.23 -34.1726L1500.84 -34.8276C1532.7 49.0908 1529.1 135.758 1490.72 209.207C1452.53 282.697 1383.99 325.358 1281.18 339.622C1268.2 341.422 1254.62 342.962 1241.5 344.452C1199.01 349.268 1155.08 354.251 1118.06 369.112C1086.84 381.643 1063.44 401.887 1040.24 423.282C1036.77 426.483 1033.33 429.707 1029.89 432.931C998.847 461.982 966.756 492.024 915.437 503.971C856.616 517.684 811.539 498.117 767.938 479.185C720.808 458.724 676.295 439.399 616.117 459.271C590.717 467.66 569.541 483.01 549.065 497.853C543.008 502.246 536.74 506.787 530.479 511.06C462.585 557.416 370.343 585.851 279.775 588.94L279.779 588.943Z" fill="#EEF6F9"/>
<path d="M293.255 592.63C282.366 593.001 271.498 593.002 260.68 592.617C152.166 588.76 67.7125 548.259 45.5182 489.437C29.8657 447.946 41.2679 397.446 81.4109 330.505C97.2619 304.073 117.764 278.205 137.59 253.189C185.81 192.352 231.358 134.891 217.235 68.4571C206.744 19.0981 155.597 -24.1054 89.9732 -39.0549C26.312 -53.4474 -50.6301 -40.9635 -101.492 -7.98522L-103.21 -9.40066C-51.6165 -42.8564 26.4193 -55.525 90.9634 -40.9329C157.466 -25.7872 209.285 17.9968 219.914 68.0126C234.184 135.13 188.389 192.902 139.915 254.06C120.129 279.022 99.6666 304.837 83.8819 331.162C44.0092 397.655 32.6532 447.738 48.1397 488.782C70.0484 546.849 153.608 586.835 261.024 590.654C358.12 594.095 460.04 566.355 533.633 516.417C540.044 512.068 546.472 507.419 552.684 502.926C572.571 488.542 593.132 473.669 617.751 465.068C677.092 444.337 722.962 461.65 767.324 478.398C809.091 494.165 852.272 510.473 907.926 496.724C955.639 484.956 986.981 457.408 1017.29 430.763C1021.48 427.083 1025.66 423.402 1029.89 419.762C1053.18 399.705 1076.71 380.723 1108.42 368.977C1159.02 350.224 1218.94 340.651 1268.72 343.375C1360.93 348.426 1436.56 303.88 1481.74 217.971C1522.04 141.787 1523.95 50.3023 1486.99 -33.0235L1489.58 -33.7529C1526.72 49.9781 1524.79 141.936 1484.27 218.543C1438.58 305.419 1361.88 350.447 1268.32 345.333C1219.03 342.644 1159.66 352.125 1109.51 370.709C1078.3 382.273 1055 401.076 1031.91 420.958C1027.69 424.591 1023.51 428.268 1019.33 431.942C988.751 458.819 957.133 486.615 908.62 498.578C851.864 512.602 808.179 496.102 765.931 480.156C720.131 462.864 676.866 446.532 618.776 466.826C594.614 475.267 574.234 490.007 554.529 504.261C548.297 508.769 541.854 513.428 535.404 517.803C469.433 562.565 380.884 589.64 293.255 592.63Z" fill="#ECF5F8"/>
<path d="M306.381 596.513C292.488 596.987 278.608 596.844 264.82 596.063C157.664 589.972 75.757 547.35 56.157 487.477C42.8255 446.768 55.0967 396.234 94.7704 328.451C109.336 303.566 127.703 279.165 145.461 255.566C191.014 195.04 234.034 137.87 218.644 72.6372C207.424 25.0839 157.423 -17.0198 94.2207 -32.1296C33.2528 -46.5924 -41.6697 -36.0438 -92.2079 -5.88747L-93.8331 -7.36053C-42.5605 -37.9532 33.4213 -48.6579 95.2436 -33.998C159.281 -18.6872 209.947 23.9731 221.315 72.1623C236.865 138.068 193.609 195.544 147.816 256.394C130.087 279.947 111.761 304.299 97.2513 329.089C57.8182 396.456 45.5969 446.595 58.7899 486.884C78.1428 545.987 159.176 588.073 265.236 594.102C362.289 599.619 464.47 573.099 538.56 523.155C545.174 518.697 551.792 513.92 558.19 509.298C577.275 495.521 597.012 481.272 620.35 472.641C677.57 451.479 722.142 465.624 765.25 479.305C805.659 492.129 847.443 505.385 901.055 491.351C945.955 479.62 976.702 454.286 1006.44 429.785C1011.48 425.63 1016.52 421.476 1021.63 417.388C1043.86 399.583 1068.22 381.3 1099.96 370.549C1153.39 352.443 1210.36 344.622 1256.3 349.086C1350.86 358.283 1428.64 315.035 1475.3 227.31C1518.24 147.034 1518.41 52.5708 1475.76 -31.8594L1478.31 -32.6561C1521.17 52.2023 1520.99 147.169 1477.81 227.893C1430.61 316.636 1351.74 360.361 1255.72 351.035C1210.31 346.618 1153.89 354.376 1100.94 372.318C1069.71 382.901 1045.59 401.007 1023.57 418.645C1018.48 422.725 1013.45 426.869 1008.41 431.02C978.424 455.725 947.416 481.274 901.792 493.198C847.14 507.503 804.874 494.088 763.992 481.116C719.486 466.993 677.449 453.653 621.423 474.38C598.509 482.856 578.944 496.978 560.024 510.637C553.607 515.27 546.969 520.062 540.316 524.549C476.155 567.799 391.096 593.626 306.367 596.517L306.381 596.513Z" fill="#E9F3F7"/>
<path d="M317.548 600.519C301.212 601.077 284.961 600.751 268.962 599.494C163.169 591.192 83.8095 546.454 66.7951 485.513C55.4037 444.725 67.7676 397.138 108.133 326.397C121.354 303.226 137.564 280.451 153.235 258.427C196.208 198.036 236.802 140.995 220.053 76.8248C207.927 30.3542 160.2 -9.69023 98.4737 -25.1945C39.2604 -39.9348 -31.9453 -31.5295 -82.926 -3.77444L-84.4442 -5.30554C-32.721 -33.4663 39.4905 -42.0019 99.5339 -27.05C162.077 -11.3406 210.43 29.234 222.719 76.3226C239.639 141.155 198.829 198.502 155.624 259.215C139.979 281.201 123.804 303.934 110.624 327.024C70.4838 397.364 58.168 444.604 69.4438 484.988C86.2447 545.151 164.751 589.332 269.453 597.549C364.956 605.041 469.963 579.119 543.484 529.89C550.325 525.308 557.152 520.385 563.759 515.623C582.02 502.463 600.903 488.854 622.944 480.215C678.063 458.609 719.443 469.089 763.253 480.189C802.278 490.078 842.641 500.298 894.178 485.989C936.158 474.357 966.139 451.245 995.135 428.893C1001.08 424.311 1007.22 419.579 1013.36 415.025C1034.45 399.384 1059.62 381.884 1091.49 372.132C1146.26 355.372 1201.8 349.057 1243.85 354.807C1340.86 368.079 1420.75 326.112 1468.83 236.657C1513.72 153.612 1512.1 53.6762 1464.51 -30.6773L1467.03 -31.5377C1514.88 53.2561 1516.48 153.733 1471.35 237.243C1448.14 280.407 1417.26 312.855 1379.53 333.686C1339.38 355.86 1293.49 363.614 1243.14 356.732C1201.61 351.047 1146.65 357.318 1092.37 373.927C1061.02 383.522 1036.11 400.849 1015.22 416.335C1009.11 420.875 1002.97 425.603 997.043 430.174C967.812 452.705 937.586 476.004 894.973 487.812C842.49 502.39 801.664 492.045 762.183 482.045C718.945 471.093 678.109 460.752 624.085 481.923C602.429 490.412 583.704 503.906 565.599 516.958C558.972 521.734 552.12 526.672 545.24 531.279C483.43 572.666 399.537 597.721 317.538 600.519L317.548 600.519Z" fill="#E6F2F7"/>
<path d="M329.834 604.721C310.752 605.373 291.754 604.798 273.12 602.927C168.684 592.445 91.8757 545.588 77.4475 483.553C65.9406 434.067 91.8229 377.79 121.514 324.349C133.315 303.107 147.341 282.169 160.906 261.922C201.425 201.436 239.701 144.305 221.486 81.0177C208.632 36.3629 162.027 -2.60494 102.747 -18.2593C46.2166 -33.0554 -23.0138 -26.5409 -73.625 -1.66208L-75.0266 -3.25494C-23.6796 -28.4946 46.5316 -35.111 103.844 -20.1088C163.903 -4.24801 211.126 35.233 224.145 80.4748C242.55 144.416 204.071 201.853 163.335 262.661C149.795 282.877 135.79 303.78 124.024 324.952C94.4917 378.12 68.7274 434.074 80.1268 483.081C94.3751 544.332 170.355 590.61 273.701 600.982C369.056 610.548 474.334 585.886 548.438 536.609C555.535 531.889 562.611 526.794 569.452 521.872C586.855 509.344 604.845 496.392 625.565 487.776C678.65 465.697 718.851 473.138 761.422 481.019C799.032 487.979 837.916 495.171 887.334 480.615C926.263 469.168 955.275 448.274 983.338 428.066C990.433 422.96 997.763 417.678 1005.13 412.645C1031.03 394.943 1054.2 381.547 1083.06 373.698C1115.67 364.826 1178.33 351.313 1231.42 360.506C1330.93 377.746 1412.96 337.067 1462.41 245.979C1509.85 159.047 1506.45 56.0558 1453.31 -29.5191L1455.79 -30.4328C1509.22 55.5948 1512.63 159.147 1464.92 246.572C1440.97 290.695 1409.05 323.338 1370.07 343.59C1328.89 364.978 1281.97 371.307 1230.6 362.414C1178.2 353.341 1116.15 366.732 1083.84 375.524C1055.45 383.245 1032.55 396.498 1006.92 414.019C999.578 419.031 992.263 424.302 985.182 429.401C956.909 449.76 927.672 470.816 888.191 482.426C837.918 497.236 798.597 489.957 760.568 482.921C718.547 475.145 678.859 467.8 626.783 489.461C606.41 497.935 588.562 510.783 571.296 523.21C564.43 528.15 557.335 533.26 550.193 538.008C489.949 578.074 409.25 602.011 329.853 604.721L329.834 604.721Z" fill="#E3F1F6"/>
<path d="M341.756 609.07C320.047 609.811 298.406 608.934 277.27 606.344C174.191 593.708 99.9349 544.736 88.0983 481.584C79.6833 436.689 99.7611 387.35 134.883 322.296C145.158 303.263 156.979 284.441 168.408 266.238C206.641 205.352 242.749 147.846 222.91 85.2068C209.341 42.3643 163.845 4.47427 107.006 -11.3226C53.1255 -26.1658 -14.1385 -21.5375 -64.3506 0.458162L-65.6166 -1.19702C-14.6895 -23.5116 53.5159 -28.2096 108.141 -13.159C165.72 2.8454 211.802 41.2291 225.551 84.6304C245.595 147.91 209.294 205.724 170.857 266.928C159.443 285.103 147.643 303.901 137.393 322.882C102.436 387.632 82.4412 436.698 90.7793 481.174C102.465 543.534 175.922 591.906 277.916 604.412C373.079 616.078 478.622 592.673 553.355 543.324C560.747 538.442 568.101 533.154 575.21 528.038C591.715 516.168 608.778 503.892 628.143 495.331C679.257 472.743 718.35 477.13 759.731 481.772C795.872 485.825 833.234 490.014 880.442 475.244C916.164 464.09 943.959 445.411 970.838 427.345C979.293 421.663 988.036 415.79 996.859 410.264C1019.01 396.4 1043.76 382.56 1074.58 375.262C1114.57 365.792 1172.08 356.531 1218.94 366.208C1321.02 387.284 1405.18 347.895 1455.92 255.303C1505.16 165.883 1499.84 57.1965 1442.04 -28.3489L1444.49 -29.3161C1502.6 56.6912 1507.95 165.98 1458.43 255.898C1433.74 300.965 1400.81 333.773 1360.56 353.411C1318.42 373.978 1270.46 378.923 1218.01 368.092C1171.8 358.551 1114.86 367.734 1075.23 377.12C1044.91 384.301 1020.45 397.984 998.542 411.703C989.758 417.2 981.035 423.063 972.599 428.73C945.53 446.919 917.539 465.732 881.351 477.031C833.399 492.036 795.631 487.799 759.118 483.703C718.242 479.12 679.635 474.788 629.424 496.979C610.363 505.403 593.423 517.586 577.044 529.369C569.911 534.499 562.538 539.805 555.091 544.72C496.31 583.536 418.627 606.442 341.752 609.067L341.756 609.07Z" fill="#E0EFF5"/>
<path d="M351.665 613.437C327.837 614.251 304.194 613.076 281.423 609.773C181.255 595.233 107.849 542.932 98.7562 479.634C91.9846 432.483 116.069 381.721 148.257 320.266C156.872 303.819 166.443 287.492 175.693 271.7C211.859 210 246.011 151.72 224.337 89.4165C209.84 47.7459 166.515 11.8109 111.273 -4.36993C59.2039 -19.4849 -4.53179 -16.8156 -55.068 2.59369L-56.1891 0.879347C-4.94463 -18.8041 59.6791 -21.5173 112.451 -6.19698C168.403 10.1923 212.282 46.591 226.97 88.7994C248.868 151.732 214.532 210.316 178.178 272.338C168.933 288.109 159.377 304.418 150.783 320.827C118.729 382.028 94.7347 432.557 101.449 479.279C110.428 541.793 183.05 593.463 282.149 607.849C375.634 621.423 484.019 598.73 558.288 550.041C566.029 544.967 573.704 539.444 581.13 534.103C596.685 522.916 612.769 511.348 630.743 502.895C680.003 479.727 718.061 481.032 758.357 482.412C792.937 483.596 828.695 484.819 873.577 469.892C905.888 459.163 932.145 442.705 957.531 426.787C967.609 420.469 978.029 413.935 988.621 407.905C1009.41 396.059 1034.88 383.106 1066.13 376.846C1124.03 365.243 1171.25 363.59 1206.49 371.92C1311.24 396.69 1397.53 358.588 1449.46 264.641C1501.2 171.481 1494.05 59.6706 1430.8 -27.1564L1433.22 -28.1736C1496.81 59.1279 1504 171.557 1451.97 265.244C1426.54 311.239 1392.62 344.187 1351.13 363.174C1308.06 382.887 1259.05 386.457 1205.46 373.79C1171.21 365.693 1123.22 367.404 1066.66 378.735C1035.91 384.895 1010.75 397.698 990.196 409.408C979.662 415.409 969.268 421.926 959.214 428.225C933.662 444.242 907.244 460.808 874.544 471.663C829.038 486.8 792.934 485.565 758.018 484.371C718.185 483.01 680.563 481.72 632.09 504.516C614.377 512.847 598.407 524.333 582.964 535.441C575.513 540.799 567.809 546.34 560.019 551.447C503.183 588.707 426.523 610.877 351.66 613.437L351.665 613.437Z" fill="#DDEEF4"/>
<path d="M362.897 618.05C336.643 618.947 310.566 617.387 285.586 613.19C186.739 596.578 115.945 542.117 109.425 477.679C104.651 430.513 129.815 380.932 158.957 323.519L161.642 318.23C168.403 304.9 175.655 291.604 182.666 278.745C217.087 215.636 249.601 156.027 225.781 93.6241C210.57 53.7751 168.331 18.8905 115.549 2.57754C66.0713 -12.5754 4.25265 -11.7507 -45.7869 4.73083L-46.7443 2.96017C3.98256 -13.7501 66.6358 -14.5896 116.772 0.76661C170.224 17.2826 212.994 52.6144 228.401 92.97C252.455 155.991 219.776 215.903 185.175 279.337C178.17 292.182 170.923 305.467 164.177 318.773L161.492 324.062C132.464 381.252 107.393 430.642 112.128 477.384C118.568 541.035 188.599 594.845 286.397 611.28C379.584 626.942 488.253 605.539 563.232 556.751C571.39 551.442 579.46 545.637 587.261 540.019C601.794 529.554 616.824 518.734 633.353 510.45C680.945 486.592 718.112 484.761 757.468 482.822C790.362 481.202 824.376 479.527 866.719 464.537C895.375 454.411 919.687 440.174 943.196 426.409C955.218 419.37 967.653 412.088 980.393 405.538C1009.01 390.825 1032.85 382.462 1057.7 378.424C1100.34 371.489 1148.27 374.201 1193.72 377.57C1304.12 385.762 1388.76 371.274 1443 273.964C1497.22 177.095 1488.24 62.1684 1419.56 -25.972L1421.95 -27.0287C1491 61.5951 1500.03 177.16 1445.5 274.573C1420.49 319.44 1387.57 349.1 1344.86 365.242C1306.35 379.8 1258.17 384.337 1193.22 379.52C1148.01 376.164 1100.32 373.464 1058.09 380.334C1033.31 384.362 1010.5 392.368 981.843 407.103C969.18 413.616 956.784 420.873 944.796 427.894C921.155 441.736 896.708 456.049 867.744 466.285C824.891 481.457 790.597 483.145 757.432 484.777C718.48 486.696 681.692 488.507 634.769 512.03C618.467 520.204 603.53 530.953 589.09 541.349C581.26 546.985 573.165 552.812 564.954 558.157C509.385 594.312 435.485 615.568 362.897 618.047L362.897 618.05Z" fill="#DBECF3"/>
<path d="M373.783 622.794C345.213 623.77 316.809 621.782 289.748 616.604C192.21 597.941 124.027 541.329 120.089 475.729C117.457 431.939 139.581 387.495 165.202 336.035C168.451 329.511 171.741 322.906 175.021 316.206C179.644 306.771 184.449 297.306 189.093 288.151C222.287 222.757 253.634 160.987 227.227 97.851C211.077 59.2398 170.926 26.2271 119.832 9.54213C72.1662 -5.88827 13.7231 -6.8814 -36.5006 6.88525L-37.285 5.06148C13.6096 -8.88543 72.8149 -7.88072 121.098 7.74752C172.832 24.6398 213.477 58.0597 229.829 97.1532C256.494 160.903 224.987 222.976 191.633 288.697C186.988 297.845 182.189 307.306 177.57 316.731C174.286 323.431 170.996 330.043 167.747 336.567C142.229 387.825 120.193 432.095 122.799 475.493C126.69 540.301 194.139 596.247 290.634 614.709C383.498 632.478 492.43 612.358 568.166 563.462C576.842 557.86 585.385 551.695 593.65 545.735C607.067 536.054 620.943 526.043 635.943 518.012C682.182 493.255 718.714 488.189 757.39 482.825C788.355 478.531 820.374 474.092 859.84 459.201C884.529 449.905 906.382 437.912 927.512 426.316C941.889 418.426 956.757 410.266 972.156 403.189C1000.25 390.278 1024.03 383.131 1049.25 380.018C1090.24 374.965 1136.91 378.6 1181.25 383.284C1294.06 395.196 1380.65 382.752 1436.51 283.304C1493.21 182.757 1482.4 64.7175 1408.3 -24.7527L1410.66 -25.8525C1485.16 64.1102 1496.03 182.808 1439.01 283.917C1413.19 329.876 1379.42 359.719 1335.77 375.146C1296.45 389.043 1247.16 392.242 1180.66 385.22C1136.54 380.56 1090.11 376.939 1049.5 381.946C1024.68 385.01 1001.23 392.064 973.48 404.813C958.187 411.842 943.368 419.973 929.043 427.837C907.811 439.488 885.857 451.536 860.942 460.918C821.095 475.952 788.867 480.422 757.696 484.744C719.354 490.062 683.132 495.083 637.44 519.552C622.62 527.488 608.827 537.438 595.484 547.064C587.189 553.05 578.612 559.237 569.877 564.875C515.503 599.981 444.171 620.39 373.787 622.798L373.783 622.794Z" fill="#D8EBF2"/>
<path d="M384.325 627.65C353.551 628.701 322.927 626.239 293.913 620.006C197.669 599.319 132.102 540.553 130.762 473.779C129.936 432.78 150.897 390.434 173.092 345.605C178.14 335.411 183.36 324.869 188.401 314.189C190.442 309.866 192.492 305.559 194.532 301.267C227.372 232.19 258.396 166.944 228.678 102.087C211.824 65.3011 172.737 33.3126 124.111 16.517C78.9203 1.02986 22.3457 -1.7624 -27.222 9.04707L-27.8146 7.17648C22.3841 -3.77081 79.6677 -0.944659 125.428 14.735C174.638 31.7329 214.201 64.112 231.258 101.343C261.257 166.812 230.088 232.368 197.087 301.771C195.047 306.06 192.997 310.367 190.961 314.69C185.91 325.383 180.69 335.932 175.637 346.134C153.53 390.785 132.651 432.961 133.469 473.598C134.796 539.578 199.658 597.661 294.87 618.127C387.35 638.006 496.554 619.175 573.088 570.153C582.418 564.179 591.567 557.551 600.414 551.142C612.583 542.325 625.169 533.21 638.525 525.556C684.027 499.475 720.425 490.948 758.957 481.921C787.518 475.232 817.051 468.311 852.954 453.855C873.256 445.697 891.972 436 910.072 426.621C927.329 417.682 945.172 408.438 963.917 400.829C991.086 389.8 1015.52 383.693 1040.79 381.602C1081.68 378.212 1126.47 383.15 1168.78 388.977C1283.87 404.828 1372.34 394.512 1430.01 292.624C1488.29 190.004 1475.34 65.8999 1397.03 -23.5423L1399.35 -24.6782C1437.75 19.1849 1461.34 71.8079 1467.58 127.503C1473.95 184.315 1461.81 241.626 1432.5 293.243C1405.86 340.321 1371.21 370.376 1326.6 385.12C1286.36 398.421 1235.98 400.259 1168.06 390.903C1125.96 385.103 1081.41 380.194 1040.89 383.548C1015.99 385.605 991.908 391.632 965.09 402.519C946.49 410.069 929.504 418.869 911.525 428.182C893.358 437.594 874.57 447.327 854.118 455.549C817.964 470.105 788.293 477.059 759.598 483.78C721.324 492.747 685.175 501.214 640.095 527.052C626.875 534.629 614.358 543.697 602.247 552.468C593.366 558.902 584.183 565.555 574.784 571.573C521.527 605.684 452.58 625.317 384.316 627.653L384.325 627.65Z" fill="#D5E9F1"/>
<path d="M393.158 632.352C360.493 633.468 328.117 630.603 298.07 623.421C203.105 600.729 140.156 539.819 141.426 471.85C142.145 433.177 161.539 394.231 182.071 352.998C188.65 339.782 195.456 326.117 201.771 312.193C231.072 247.613 264.283 174.417 230.119 106.341C212.31 70.8505 175.229 40.6605 128.381 23.5048C84.908 7.70346 31.5707 3.22406 -17.9577 11.2296L-18.3497 9.32215C31.7698 1.22468 85.7537 5.75375 129.749 21.7457C177.142 39.1015 214.653 69.6459 232.672 105.549C267.142 174.238 233.774 247.781 204.336 312.669C198.006 326.621 191.194 340.3 184.61 353.53C164.161 394.596 144.85 433.385 144.131 471.723C142.875 538.895 205.149 599.111 299.096 621.56C389.744 643.221 501.816 625.251 578.002 576.859C588.2 570.379 598.151 563.124 607.77 556.107C618.484 548.293 629.559 540.214 641.095 533.118C687.319 504.688 724.806 492.121 764.494 478.812C789.49 470.432 815.341 461.763 846.061 448.542C861.411 441.947 876.108 434.661 890.322 427.613C912.087 416.82 932.643 406.63 955.673 398.501C982.275 389.113 1006.63 384.254 1032.33 383.218C1072.85 381.577 1117.68 388.104 1156.29 394.7C1273.53 414.727 1363.83 406.623 1423.49 301.972C1484.19 195.777 1469.38 68.4955 1385.74 -22.2934L1388.03 -23.4619C1472.13 67.824 1487.02 195.81 1425.98 302.594C1398.48 350.819 1362.95 381.115 1317.35 395.214C1276.06 407.976 1224.62 408.422 1155.47 396.608C1117.04 390.043 1072.32 383.561 1032.27 385.172C1006.95 386.195 982.939 390.987 956.697 400.251C933.864 408.311 913.396 418.457 891.727 429.202C877.474 436.268 862.733 443.577 847.302 450.205C816.452 463.482 790.533 472.174 765.465 480.577C724.25 494.396 688.66 506.33 642.747 534.569C631.309 541.604 620.282 549.65 609.612 557.431C599.954 564.478 589.968 571.76 579.693 578.288C528.02 611.111 459.991 630.071 393.153 632.355L393.158 632.352Z" fill="#D3E8F0"/>
<path d="M403.141 637.402C368.416 638.589 333.968 635.189 302.232 626.828C208.534 602.156 148.203 539.103 152.098 469.926C154.169 433.216 172.447 397.043 191.795 358.745C199.729 343.043 207.932 326.809 215.147 310.213C248.579 233.286 264.171 169.905 231.578 110.615C213.076 76.9594 177.023 47.7642 132.666 30.5156C90.8425 14.3591 40.6388 8.29684 -8.68034 13.4333L-8.86276 11.4992C41.0222 6.30578 91.7864 12.4376 134.085 28.7795C178.935 46.2196 215.391 75.7426 234.099 109.777C266.974 169.581 251.328 233.335 217.717 310.665C210.486 327.306 202.268 343.565 194.324 359.287C175.048 397.432 156.843 433.46 154.795 469.854C150.943 538.234 210.633 600.578 303.324 624.984C393.496 648.725 505.852 632.08 582.909 583.556C594.318 576.371 605.366 568.218 616.048 560.334C624.979 553.739 634.219 546.919 643.661 540.673C695.516 506.354 734.597 489.317 784.079 467.747C801.316 460.233 819.137 452.463 839.16 443.235C848.746 438.825 858.236 434.213 867.413 429.756C893.815 416.927 918.753 404.811 947.428 396.182C973.097 388.455 998.101 384.741 1023.87 384.834C1063.13 384.974 1104.71 392.404 1143.8 400.418C1213.4 414.685 1265.31 415.694 1307.17 403.581C1353.02 390.316 1388.93 360.136 1416.96 311.308C1480.08 201.561 1463.4 71.1108 1374.44 -21.0326L1376.7 -22.2305C1466.14 70.4156 1482.92 201.583 1419.45 311.933C1391.1 361.326 1354.64 391.894 1308 405.387C1265.54 417.671 1213.06 416.688 1142.87 402.301C1103.97 394.325 1062.59 386.926 1023.65 386.788C998.244 386.704 973.607 390.361 948.303 397.977C919.901 406.525 895.084 418.585 868.807 431.351C859.616 435.816 850.111 440.435 840.491 444.863C820.439 454.103 802.599 461.88 785.348 469.401C736.011 490.909 697.04 507.897 645.41 542.068C636.031 548.275 626.821 555.074 617.919 561.647C607.198 569.56 596.111 577.745 584.609 584.987C533.908 616.916 468.063 635.182 403.151 637.402L403.141 637.402Z" fill="#D0E7EF"/>
<path d="M412.808 642.55C376.13 643.804 339.699 639.833 306.4 630.237C215.393 604.017 156.334 537.309 162.778 468.019C166.038 432.972 183.539 399.077 202.066 363.193C211.242 345.422 220.732 327.049 228.527 308.256C262.652 225.991 264.044 166.366 233.047 114.924C213.576 82.6139 179.457 55.1376 136.963 37.5558C97.233 21.2077 48.7738 13.3969 0.607447 15.6656L0.643596 13.7147C49.3183 11.5106 98.2841 19.3177 138.438 35.8391C181.378 53.6071 215.863 81.3748 235.538 114.026C266.799 165.903 265.433 225.937 231.113 308.676C223.291 327.535 213.785 345.943 204.594 363.745C186.139 399.486 168.71 433.243 165.477 467.995C159.109 536.504 217.537 602.472 307.567 628.411C397.233 654.244 509.855 638.907 587.823 590.252C601.055 581.994 613.727 572.448 625.973 563.22C632.571 558.252 639.384 553.116 646.224 548.232C708.391 503.819 755.332 475.991 832.253 437.954L840.131 434.051C872.37 418.066 902.826 402.964 939.176 393.885C964.298 387.61 989.231 385.187 1015.39 386.474C1054.86 388.419 1095.91 397.651 1131.29 406.152C1274.56 440.585 1355.42 415.818 1410.39 320.668C1475.94 207.391 1457.38 73.78 1363.12 -19.7216L1365.35 -20.9485C1460.13 73.0612 1478.79 207.403 1412.88 321.3C1374.58 387.605 1323.89 420.201 1248.83 422.775C1214.71 423.942 1175.57 418.909 1130.25 408.017C1095.03 399.552 1054.17 390.358 1015 388.43C989.209 387.158 964.632 389.549 939.873 395.732C903.896 404.716 873.605 419.737 841.539 435.642L833.653 439.548C755.943 477.975 710.842 504.712 648.045 549.576C641.235 554.439 634.431 559.568 627.853 564.522C615.553 573.789 602.832 583.371 589.493 591.697C539.692 622.778 475.888 640.399 412.803 642.557L412.808 642.55Z" fill="#CDE5EE"/>
<path d="M421.143 647.427C382.636 648.745 344.526 644.312 310.539 633.664C220.742 605.529 164.361 536.641 173.428 466.14C177.754 432.508 194.726 400.509 212.695 366.632C223.047 347.117 233.749 326.935 241.875 306.332C271.046 232.334 268.632 171.142 234.49 119.259C214.198 88.715 181.08 62.2068 141.229 44.6239C102.825 27.7422 57.4022 18.5126 9.86789 17.9275L10.1218 15.9771C58.1149 16.567 103.978 25.8907 142.764 42.9368C183.004 60.6941 216.452 87.4641 236.944 118.312C271.37 170.625 273.832 232.259 244.47 306.731C236.311 327.427 225.584 347.651 215.212 367.208C197.314 400.949 180.41 432.82 176.123 466.174C167.156 535.897 222.941 604.031 311.781 631.864C399.5 659.351 515.022 644.997 592.702 596.971C608.956 586.921 624.25 574.959 639.041 563.39C642.277 560.86 645.508 558.33 648.758 555.813C657.621 548.954 666.154 542.278 674.482 535.765C723.416 497.488 765.676 464.433 825.317 432.711C861.53 413.464 893.347 399.111 930.902 391.626C955.523 386.716 980.381 385.582 1006.89 388.149C1043.89 391.733 1080.92 401.434 1118.75 411.913C1196 433.314 1253.67 436.109 1300.22 420.709C1342.6 406.691 1376.48 377.035 1403.8 330.042C1471.76 213.251 1451.34 76.4879 1351.76 -18.3821L1353.96 -19.6382C1454.07 75.7458 1474.61 213.249 1406.28 330.674C1378.66 378.189 1344.28 408.217 1301.18 422.475C1253.91 438.114 1195.57 435.339 1117.6 413.74C1079.91 403.301 1043.04 393.639 1006.32 390.083C980.178 387.551 955.676 388.669 931.422 393.502C894.296 400.904 862.75 415.142 826.798 434.25C767.395 465.848 725.222 498.836 676.396 537.03C668.068 543.546 659.525 550.223 650.662 557.085C647.418 559.595 644.186 562.125 640.955 564.652C626.106 576.268 610.753 588.279 594.363 598.409C545.977 628.326 483.05 645.31 421.143 647.427Z" fill="#CAE4ED"/>
<path d="M430.223 652.683C389.894 654.064 349.958 649.022 314.694 637.067C226.192 607.068 172.483 536.006 184.092 464.254C189.412 431.958 206.741 400.261 223.505 369.606C235.054 348.482 246.998 326.641 255.231 304.399C280.185 237.947 273.523 175.425 235.952 123.584C214.728 94.4412 183.452 69.5744 145.51 51.6714C108.717 34.3465 65.0206 23.4548 19.1438 20.1715L19.6198 18.2282C65.8974 21.5387 109.987 32.5296 147.114 50.0102C185.399 68.0753 216.953 93.1679 238.37 122.574C276.244 174.833 282.976 237.834 257.841 304.763C249.565 327.116 237.595 349.016 226.015 370.192C208.553 402.129 192.061 432.29 186.785 464.325C175.304 535.302 228.44 605.603 316.005 635.283C403.025 664.78 518.815 651.773 597.591 603.649C617.559 591.394 635.788 576.425 651.301 563.361C668.404 548.959 684.523 534.21 700.112 519.942C737.23 485.975 772.296 453.889 818.392 427.446C855.181 406.348 887.336 394.596 922.642 389.347C946.857 385.694 971.639 385.842 998.399 389.796C1034.49 395.034 1069.8 406.162 1103.95 416.927L1106.21 417.644C1183.69 442.059 1242.19 446.431 1290.31 431.398C1334.01 417.751 1368.97 387.65 1397.2 339.387C1467.57 219.097 1445.28 79.1857 1340.4 -17.0551L1342.58 -18.3334C1393.91 28.776 1426.48 87.5233 1436.76 151.562C1447.07 215.771 1434.24 280.938 1399.68 340.022C1371.14 388.824 1335.66 419.294 1291.22 433.178C1242.35 448.445 1183.17 444.079 1104.97 419.443L1102.7 418.726C1068.68 408.001 1033.5 396.91 997.664 391.711C971.261 387.809 946.839 387.663 922.986 391.255C888.147 396.438 856.376 408.056 819.965 428.937C774.145 455.224 739.192 487.211 702.182 521.075C686.575 535.357 670.435 550.124 653.293 564.561C637.702 577.69 619.384 592.733 599.242 605.093C551.564 634.217 490.459 650.615 430.228 652.676L430.223 652.683Z" fill="#C8E2EC"/>
<path d="M439.269 658.071C397.157 659.512 355.403 653.811 318.858 640.469C231.426 608.555 180.393 535.317 194.763 462.369C200.948 430.975 218.147 400.558 234.778 371.139C247.377 348.855 260.406 325.814 268.591 302.471C314.5 171.513 206.763 45.8798 28.4321 22.4148L29.1151 20.4928C208.885 44.1471 317.491 170.794 271.21 302.807C262.977 326.288 249.912 349.399 237.273 371.749C220.703 401.05 203.575 431.349 197.439 462.492C183.225 534.671 233.714 607.137 320.224 638.715C406.729 670.29 522.797 658.623 602.467 610.337C642.503 586.075 675.274 550.71 706.969 516.511C761.499 457.67 817.887 396.823 914.37 387.095C974.889 380.987 1029.96 400.648 1083.21 419.658L1093.67 423.387C1170.05 450.478 1231.05 456.625 1280.18 442.165C1325.31 428.877 1361.43 398.317 1390.58 348.736C1462.25 226.867 1437.52 80.4054 1329.04 -15.7187L1331.19 -17.0194C1385.1 30.7473 1419.46 90.7141 1430.55 156.396C1441.64 222.078 1428.68 288.808 1393.06 349.374C1363.58 399.508 1326.94 430.448 1281.03 443.963C1231.14 458.65 1169.42 452.494 1092.33 425.151L1081.86 421.422C1028.97 402.536 974.263 383.003 914.537 389.028C819.352 398.627 763.345 459.062 709.182 517.509C677.373 551.835 644.478 587.33 604.112 611.794C557.249 640.197 497.914 656.066 439.269 658.074L439.269 658.071Z" fill="#C5E1EC"/>
<path d="M62.5231 373.679C4.44651 350.982 -39.1374 319.122 -59.91 283.648C-98.1157 218.397 -57.4 148.861 51.8019 92.8694C96.1945 70.1096 149.206 52.3709 200.469 35.2176C299.564 2.06207 402.028 -32.2222 451.054 -104.768C489.333 -161.407 475.258 -232.654 417.578 -274.177C359.908 -315.697 260.935 -325.838 182.242 -298.293L181.204 -300.059C260.919 -327.964 361.176 -317.685 419.6 -275.625C478.024 -233.565 492.285 -161.39 453.507 -104.016C404.004 -30.7659 301.038 3.68463 201.46 37.0024C150.322 54.1142 97.4389 71.8077 53.2774 94.4512C-54.6963 149.811 -95.0242 218.446 -57.3616 282.761C-5.96902 370.526 186.56 435.994 391.252 393.563C398.394 392.084 405.717 390.447 412.802 388.861C446.801 381.255 481.955 373.392 515.495 378.371C590.537 389.506 608.834 445.798 626.534 500.235C643.387 552.055 660.832 605.641 726.892 620.627C789.315 634.784 844.455 608.853 902.834 581.401C942.903 562.557 984.337 543.073 1028.37 537.773C1069.3 532.845 1109.22 539.942 1147.83 546.806C1172.52 551.193 1198.04 555.733 1223.73 557.138C1305 561.582 1395.98 534.42 1473.36 482.61C1542.95 436.014 1593.59 377.321 1642.57 320.558L1644.87 321.505C1595.79 378.39 1545.04 437.209 1475.14 484.009C1397.16 536.229 1305.37 563.602 1223.31 559.114C1197.4 557.696 1171.77 553.139 1146.97 548.732C1108.63 541.916 1068.99 534.867 1028.62 539.726C985.187 544.958 944.022 564.317 904.208 583.038C847.833 609.55 789.54 636.961 725.886 622.525C719.14 620.996 712.885 619.074 707.084 616.808C654.929 596.424 639.161 547.909 623.857 500.835C606.336 446.945 588.217 391.215 514.741 380.318C481.88 375.444 447.082 383.227 413.425 390.757C406.326 392.346 398.984 393.988 391.819 395.474C268.389 421.061 149.299 407.608 62.5225 373.692L62.5231 373.679Z" fill="white"/>
<path d="M71.9597 381.293C-17.8106 346.202 -69.37 290.774 -64.1769 233.009C-59.6401 184.681 -15.3482 137.307 63.8981 96.0107C106.659 73.8095 157.231 56.1972 206.138 39.1673C302.312 5.67553 401.762 -28.9521 448.832 -100.409C485.805 -156.622 472.222 -224.842 415.797 -266.309C359.544 -307.622 265.897 -318.595 188.064 -292.987L187.092 -294.776C265.952 -320.721 360.836 -309.607 417.833 -267.747C474.992 -225.737 488.753 -156.626 451.301 -99.6773C403.767 -27.5204 303.824 7.2834 207.172 40.9373C158.384 57.9259 107.933 75.4968 65.3882 97.5855C-13.1063 138.487 -56.9596 185.307 -61.4397 232.982C-67.0464 295.372 -5.3746 355.077 99.5194 388.81C186.934 416.916 292.848 421.619 390.111 401.722C397.334 400.237 404.747 398.586 411.913 396.991C444.986 389.629 479.181 382.015 511.854 386.422C585.323 396.42 604.717 449.311 623.48 500.461C641.339 549.137 659.794 599.461 724.528 613.445C785.021 626.519 838.629 602.542 895.384 577.155L900.59 574.828C936.313 558.838 976.811 540.716 1019.8 536.302C1060.73 532.061 1100.61 539.689 1139.17 547.067C1161.91 551.42 1185.42 555.919 1208.97 557.96C1292.04 565.168 1383.93 540.012 1461.09 488.939C1533.63 440.986 1586.15 378.258 1632.1 317.616L1634.49 318.452C1588.41 379.264 1535.73 442.174 1462.86 490.345C1385.06 541.839 1292.32 567.201 1208.43 559.923C1184.7 557.864 1161.1 553.348 1138.27 548.978C1099.97 541.648 1060.36 534.069 1019.98 538.254C977.595 542.606 937.381 560.604 901.902 576.48L896.701 578.807C841.897 603.32 785.234 628.666 723.555 615.339C657.511 601.068 638.856 550.248 620.824 501.098C601.405 448.154 583.067 398.144 511.148 388.36C479.14 384.042 445.283 391.58 412.538 398.87C405.357 400.469 397.93 402.124 390.674 403.613C292.798 423.637 186.211 418.899 98.2491 390.619C89.1655 387.696 80.3964 384.58 71.9648 381.286L71.9597 381.293Z" fill="#FDFEFE"/>
<path d="M82.5665 389.557C-10.5926 353.138 -62.7522 294.938 -54.4861 235.281C-47.8355 187.294 -3.93816 141.494 75.9871 99.1522C117.069 77.5415 165.165 60.0904 211.673 43.2158C304.985 9.36143 401.479 -25.646 446.604 -96.0587C481.666 -150.933 468.259 -217.714 414.005 -258.451C360.087 -298.884 269.571 -310.909 193.879 -287.69L192.979 -289.502C269.692 -313.034 361.425 -300.851 416.059 -259.877C471.024 -218.602 484.606 -150.946 449.083 -95.3478C403.513 -24.2355 306.536 10.9478 212.75 44.971C166.348 61.8047 118.366 79.2146 77.4966 100.716C-1.70062 142.67 -45.1896 187.962 -51.7517 235.322C-60.3744 297.543 -2.18131 358.215 100.051 393.708C186.321 423.633 291.628 429.531 388.969 409.886C396.277 408.395 403.777 406.734 411.029 405.129C443.171 398.005 476.412 390.64 508.203 394.485C580.089 403.347 600.599 452.838 620.431 500.706C639.291 546.229 658.79 593.303 722.151 606.276C780.686 618.27 832.718 596.221 887.81 572.882L894.94 569.865C928.019 555.834 969.184 538.371 1011.22 534.843C1052.23 531.324 1092.13 539.569 1130.71 547.541C1151.43 551.822 1172.86 556.251 1194.2 558.802C1280.16 569.076 1370.59 546.519 1448.82 495.288C1532.6 440.539 1587.58 365.996 1621.64 314.687L1624.1 315.422C1589.93 366.898 1534.76 441.694 1450.58 496.701C1371.66 548.383 1280.37 571.132 1193.54 560.753C1172.05 558.186 1150.55 553.742 1129.76 549.447C1091.43 541.524 1051.79 533.335 1011.32 536.808C969.892 540.285 929.02 557.619 896.185 571.55L889.055 574.567C835.868 597.102 780.866 620.405 721.207 608.182C656.538 594.932 636.838 547.388 617.786 501.407C597.269 451.882 577.884 405.103 507.534 396.436C476.384 392.67 443.472 399.963 411.639 407.015C404.367 408.628 396.854 410.292 389.508 411.789C291.525 431.564 185.527 425.625 98.6965 395.503C93.1896 393.592 87.8083 391.609 82.5571 389.557L82.5665 389.557Z" fill="#F9FCFD"/>
<path d="M92.9829 398.018C-3.54739 360.279 -56.2121 299.168 -44.7894 237.551C-36.0447 190.37 8.65861 144.858 88.0832 102.285C127.562 81.1231 173.378 63.7857 217.686 47.0187C307.953 12.8586 401.295 -22.4646 444.377 -91.7113C477.533 -145.249 464.31 -210.589 412.219 -250.603C360.63 -290.157 273.236 -303.23 199.696 -282.403L198.867 -284.238C273.423 -305.35 362.005 -292.095 414.292 -252.016C467.066 -211.477 480.463 -145.272 446.872 -91.028C403.359 -21.0854 309.539 14.417 218.806 48.7523C174.599 65.4786 128.893 82.7783 89.6076 103.835C10.8679 146.039 -33.4374 191.063 -42.0715 237.654C-53.5818 299.769 1.01691 361.461 100.574 398.6C185.882 430.46 290.578 437.546 387.818 418.042C395.454 416.512 403.286 414.785 410.857 413.115C441.841 406.284 473.885 399.221 504.553 402.536C574.928 410.136 596.542 456.279 617.441 500.904C637.292 543.292 657.83 587.12 719.777 599.087C776.297 610.008 826.709 589.872 880.079 568.554L889.292 564.883C928.705 549.118 964.438 535.865 1002.64 533.367C1043.8 530.676 1083.77 539.608 1122.44 548.242C1141.07 552.405 1160.34 556.71 1179.42 559.628C1268.16 573.196 1357.08 553.138 1436.55 501.618C1506.06 456.675 1563.19 394.562 1611.18 311.735L1613.7 312.37C1565.53 395.505 1508.16 457.874 1438.3 503.038C1358.09 555.035 1268.31 575.272 1178.64 561.562C1159.46 558.627 1140.13 554.312 1121.44 550.137C1083.02 541.555 1043.29 532.682 1002.67 535.338C965.027 537.8 929.586 550.948 890.47 566.594L881.258 570.266C829.733 590.846 776.454 612.127 718.865 600.999C655.623 588.792 634.885 544.5 614.822 501.666C593.212 455.519 572.806 411.927 503.931 404.492C473.876 401.247 442.146 408.239 411.463 415.002C403.873 416.676 396.021 418.407 388.352 419.945C290.447 439.58 185.037 432.444 99.1541 400.371C97.0731 399.595 95.0116 398.805 92.9739 398.008L92.9829 398.018Z" fill="#F7FBFC"/>
<path d="M102.931 406.572C101.819 406.136 100.722 405.702 99.6155 405.259C3.41001 366.653 -49.4706 301.718 -35.1056 239.829C-24.3943 193.685 21.115 148.468 100.162 105.428C137.883 84.8906 181.203 67.7693 223.098 51.2122C310.566 16.6462 401.015 -19.1001 442.135 -87.3564C473.393 -139.562 460.351 -203.463 410.418 -242.743C361.154 -281.4 276.883 -295.532 205.494 -277.105L204.755 -278.964C277.14 -297.652 362.576 -283.33 412.513 -244.144C463.112 -204.341 476.325 -139.598 444.65 -86.6974C403.109 -17.7488 312.19 18.1797 224.272 52.9272C182.472 69.4472 139.254 86.5278 101.706 106.968C23.3053 149.657 -21.8166 194.416 -32.3951 240C-46.5748 301.096 5.82026 365.282 101.095 403.511C102.188 403.947 103.285 404.384 104.388 404.814C187.885 437.459 290.529 445.275 386.666 426.217C394.478 424.667 402.496 422.91 410.253 421.206C440.216 414.63 471.201 407.832 500.892 410.606C569.733 417.033 592.453 459.8 614.429 501.161C635.273 540.396 656.836 580.962 717.391 591.921C772.114 601.827 823.365 582.566 872.93 563.935C876.498 562.596 880.066 561.253 883.638 559.923C922.107 545.582 956.964 533.574 994.056 531.921C1035.43 530.077 1075.55 539.804 1114.34 549.212C1130.82 553.209 1147.87 557.343 1164.64 560.48C1256.05 577.582 1343.41 559.918 1424.27 507.973C1517.23 448.458 1571.54 366.816 1600.73 308.802L1603.3 309.343C1574 367.592 1519.45 449.585 1426.01 509.405C1345.51 561.113 1254.83 579.434 1163.75 562.399C1146.9 559.248 1129.81 555.101 1113.29 551.092C1074.73 541.741 1034.86 532.072 994.012 533.892C957.478 535.522 922.916 547.435 884.749 561.664C881.182 562.997 877.614 564.333 874.051 565.676C824.007 584.486 772.258 603.934 716.531 593.842C654.717 582.665 632.924 541.653 611.854 501.992C589.138 459.236 567.68 418.856 500.331 412.567C471.226 409.851 440.54 416.584 410.863 423.096C403.092 424.8 395.05 426.565 387.2 428.123C290.388 447.313 187.012 439.441 102.931 406.572Z" fill="#F4F9FB"/>
<path d="M111.623 414.882C107.723 413.355 103.867 411.773 100.066 410.138C6.58809 369.906 -42.6641 303.949 -25.4171 242.104C-12.6871 196.458 32.3447 152.78 112.247 108.566C148.138 88.7057 188.9 71.8601 228.32 55.5726C313.069 20.5468 400.707 -15.6698 439.896 -83.0046C469.735 -134.684 457.165 -195.725 408.615 -234.89C361.649 -272.655 280.51 -287.836 211.287 -271.814L210.638 -273.693C280.837 -289.945 363.121 -274.556 410.725 -236.271C459.92 -196.586 472.654 -134.737 442.417 -82.3694C402.825 -14.3463 314.732 22.0623 229.537 57.2695C190.208 73.5234 149.537 90.3319 113.805 110.102C34.5162 153.973 -10.144 197.231 -22.7282 242.344C-39.7569 303.394 9.04353 368.585 101.601 408.421C183.14 443.525 289.292 453.235 385.499 434.392C393.506 432.822 401.72 431.031 409.663 429.293C438.595 422.972 468.511 416.438 497.216 418.677C564.528 423.928 588.372 463.326 611.43 501.423C633.267 537.501 655.841 574.814 714.997 584.746C767.641 593.611 817.132 576.264 864.996 559.486C869.32 557.968 873.65 556.453 877.978 554.955C915.305 542.037 949.156 531.277 985.465 530.464C1027.12 529.532 1067.41 540.17 1106.38 550.461C1120.65 554.227 1135.41 558.125 1149.84 561.33C1242.49 581.904 1330.69 566.092 1411.98 514.33C1490.14 464.743 1553.46 390.707 1590.27 305.863L1592.88 306.315C1555.91 391.531 1492.29 465.917 1413.71 515.769C1331.6 568.054 1242.48 584.022 1148.85 563.228C1134.36 560.009 1119.57 556.105 1105.26 552.327C1066.53 542.099 1026.47 531.523 985.337 532.444C949.584 533.245 916.029 543.917 879.013 556.729C874.684 558.227 870.364 559.742 866.04 561.257C817.726 578.19 767.772 595.701 714.178 586.679C653.801 576.539 630.977 538.814 608.899 502.334C585.076 462.969 562.567 425.789 496.711 420.646C468.56 418.45 438.929 424.927 410.268 431.187C402.306 432.926 394.068 434.724 386.024 436.303C293.593 454.405 192.076 446.345 111.608 414.886L111.623 414.882Z" fill="#F1F8FA"/>
<path d="M120.526 423.045C113.843 420.432 107.313 417.658 100.932 414.716C10.2028 372.898 -35.4112 305.945 -15.2716 244.146C-0.808757 199.769 44.9888 156.392 124.745 111.526C158.708 92.4212 196.824 75.9283 233.688 59.9833C319.589 22.8219 400.723 -12.2813 437.985 -78.7598C465.908 -129.065 453.519 -188.674 407.151 -227.082C361.786 -264.516 285.562 -280.383 217.474 -266.548L216.926 -268.451C285.988 -282.478 363.29 -266.401 409.287 -228.447C456.269 -189.527 468.822 -129.128 440.525 -78.1492C402.88 -10.9866 317.517 25.9429 234.966 61.6573C198.184 77.5723 160.15 94.0252 126.336 113.047C47.1503 157.591 1.7043 200.574 -12.5907 244.45C-32.4695 305.454 12.7264 371.625 102.551 413.027C182.73 449.98 288.206 460.91 384.699 442.248C392.907 440.66 401.338 438.825 409.483 437.054C437.358 430.991 466.179 424.719 493.869 426.436C559.646 430.511 584.618 466.522 608.765 501.352C631.573 534.252 655.153 568.268 712.862 577.196C763.337 585.02 810.975 569.565 857.04 554.622C862.205 552.946 867.369 551.271 872.542 549.625C907.361 538.545 941.556 528.605 977.063 528.654C1019.04 528.71 1059.52 540.375 1098.67 551.657C1110.68 555.116 1123.1 558.694 1135.18 561.809C1230.2 586.317 1316.75 572.748 1399.76 520.326C1483.33 467.752 1547.27 390.447 1579.82 302.651L1582.47 303.017C1549.77 391.225 1485.49 468.914 1401.47 521.771C1317.59 574.742 1230.12 588.451 1134.07 563.68C1121.94 560.553 1109.51 556.969 1097.48 553.504C1058.56 542.286 1018.3 530.69 976.84 530.633C941.879 530.587 907.999 540.441 873.476 551.426C868.313 553.068 863.153 554.743 857.998 556.418C811.507 571.502 763.44 587.098 712.08 579.137C653.206 570.026 629.347 535.627 606.281 502.349C581.341 466.381 557.788 432.405 493.421 428.413C466.251 426.73 437.696 432.944 410.083 438.951C401.909 440.73 393.464 442.566 385.209 444.162C295.67 461.48 198.444 453.509 120.53 423.052L120.526 423.045Z" fill="#EEF6F9"/>
<path d="M129.284 431.075C119.919 427.415 110.837 423.423 102.066 419.098C14.0898 375.732 -27.8744 307.802 -4.84157 246.039C11.4042 202.474 56.6341 160.634 137.506 114.366C169.438 96.0955 204.861 80.0517 239.117 64.5324C322.428 26.7931 401.118 -8.84979 436.278 -74.5859C462.396 -123.426 450.191 -181.587 405.902 -219.315C362.864 -255.813 289.727 -272.69 223.899 -261.313L223.46 -263.232C290.237 -274.774 364.418 -257.664 408.051 -220.659C452.93 -182.43 465.295 -123.495 438.828 -74.0066C403.309 -7.59424 324.196 28.2427 240.444 66.1801C206.26 81.6664 170.909 97.6773 139.107 115.872C58.776 161.83 13.8772 203.31 -2.19265 246.405C-24.9273 307.375 16.6528 374.506 103.739 417.435C182.465 456.23 287.263 468.38 384.08 449.894C392.513 448.283 401.173 446.406 409.543 444.594C436.332 438.788 464.034 432.784 490.691 433.986C554.946 436.884 581.048 469.512 606.292 501.068C630.059 530.778 654.624 561.501 710.858 569.41C759.057 576.207 804.727 562.608 848.895 549.456C854.996 547.638 861.101 545.822 867.21 544.057C900.855 534.33 933.946 525.675 968.751 526.61C1024.3 528.101 1081.16 541.384 1120.84 562.151C1194.35 600.617 1289.05 587.795 1387.54 526.086C1475.08 471.45 1541.35 388.772 1569.35 299.253L1572.04 299.54C1543.89 389.497 1477.27 472.597 1389.25 527.534C1289.65 589.935 1193.71 602.806 1119.12 563.781C1079.82 543.229 1023.49 530.066 968.434 528.586C934.179 527.665 901.407 536.245 868.058 545.884C861.959 547.645 855.867 549.46 849.776 551.275C805.217 564.542 759.142 578.263 710.134 571.348C652.776 563.285 627.93 532.206 603.886 502.15C577.825 469.568 553.21 438.793 490.309 435.957C464.145 434.775 436.695 440.726 410.144 446.48C401.75 448.3 393.065 450.181 384.586 451.8C297.801 468.37 204.646 460.526 129.289 431.068L129.284 431.075Z" fill="#ECF5F8"/>
<path d="M137.385 439.31C125.44 434.64 113.937 429.412 102.972 423.638C17.7253 378.739 -20.6025 309.822 5.3401 248.057C22.9738 206.059 68.9533 164.51 150.027 117.304C179.793 99.973 212.388 84.4781 243.911 69.4941C324.767 31.0578 401.133 -5.24659 434.385 -70.3484C458.621 -117.808 446.597 -174.539 404.457 -211.515C363.728 -247.082 293.657 -264.98 230.097 -256.053L229.782 -257.993C294.26 -267.049 365.328 -248.904 406.633 -212.843C449.331 -175.374 461.515 -117.891 436.95 -69.8002C403.358 -4.02647 326.578 32.4716 245.29 71.1158C213.829 86.0706 181.292 101.536 151.642 118.802C71.0659 165.717 25.4072 206.926 7.95731 248.488C-17.6494 309.46 20.3276 377.57 104.7 422.007C181.913 462.672 286.055 476.021 383.28 457.708C391.956 456.075 400.866 454.15 409.481 452.289C435.17 446.743 461.738 441.003 487.343 441.706C550.123 443.431 577.377 472.689 603.731 500.984C628.44 527.507 653.99 554.935 708.716 561.83C754.537 567.623 798.141 555.825 840.307 544.415C847.461 542.479 854.611 540.547 861.766 538.696C892.931 530.631 926.213 522.913 960.339 524.768C1017.79 527.889 1070.94 541.681 1106.17 562.613C1178.7 605.718 1274.28 594.86 1375.28 532.046C1467.91 474.654 1534.83 388.623 1558.87 296.018L1561.57 296.23C1537.41 389.307 1470.12 475.79 1376.98 533.501C1274.8 597.049 1177.97 607.937 1104.32 564.18C1069.49 543.481 1016.85 529.834 959.914 526.743C926.328 524.92 893.379 532.566 862.505 540.553C855.358 542.401 848.228 544.332 841.087 546.264C798.56 557.771 754.584 569.669 708.033 563.783C652.249 556.752 626.402 529.009 601.41 502.174C574.197 472.961 548.499 445.366 487.021 443.684C461.878 442.992 435.542 448.68 410.077 454.182C401.438 456.05 392.504 457.98 383.771 459.621C299.575 475.478 210.234 467.784 137.376 439.307L137.385 439.31Z" fill="#E9F3F7"/>
<path d="M143.749 446.952C129.701 441.462 116.355 435.199 103.875 428.183C21.3366 381.778 -13.3467 311.871 15.5142 250.088C34.8295 208.732 78.7977 169.905 162.538 120.255C189.969 103.995 219.608 89.1882 248.276 74.8687C326.876 35.6105 401.122 -1.4736 432.489 -66.1012C455.204 -112.905 443.635 -166.919 403.013 -203.712C363.953 -238.884 298.513 -257.365 236.289 -250.788L236.102 -252.742C299.233 -259.417 365.608 -240.685 405.211 -205.017C446.373 -167.741 458.094 -113.011 435.073 -65.5844C403.381 -0.288924 328.741 36.9916 249.717 76.464C221.102 90.7546 191.511 105.536 164.182 121.742C80.9147 171.108 37.2276 209.641 18.1045 250.581C-10.388 311.579 23.9829 380.665 105.667 426.588C180.176 468.476 286.249 483.405 382.486 465.53C391.439 463.867 400.627 461.886 409.515 459.972C434.076 454.682 459.478 449.211 484.001 449.429C545.33 449.974 572.501 474.717 601.27 500.916C626.892 524.254 653.394 548.388 706.574 554.267C749.876 559.078 791.267 549.021 831.302 539.296C839.502 537.301 847.983 535.242 856.334 533.347C885.015 526.835 918.419 520.124 951.94 522.936C1009.56 527.775 1060.43 542.405 1091.51 563.081C1163.19 610.79 1259.62 601.878 1363.03 538.005C1459.25 478.803 1528.55 387.132 1548.41 292.787L1551.12 292.927C1531.16 387.767 1461.48 479.928 1364.72 539.463C1314.82 570.283 1266.07 588.516 1219.82 593.649C1170.59 599.116 1126.77 589.334 1089.56 564.58C1058.87 544.151 1008.51 529.69 951.412 524.9C918.425 522.134 885.367 528.779 856.968 535.227C848.645 537.118 840.178 539.173 831.992 541.164C791.639 550.968 749.91 561.104 705.952 556.221C651.793 550.237 624.989 525.822 599.067 502.217C570.679 476.364 543.865 451.947 483.755 451.407C459.655 451.191 434.472 456.618 410.115 461.863C401.198 463.782 391.986 465.768 382.977 467.442C302.069 482.467 214.254 474.502 143.754 446.952L143.749 446.952Z" fill="#E6F2F7"/>
<path d="M150.903 455.173C134.499 448.761 119.032 441.268 104.782 432.721C24.937 384.836 -6.11265 313.944 25.6848 252.114C51.0506 202.794 112.465 161.01 175.048 123.205C199.924 108.178 226.446 94.2447 252.092 80.7712C328.707 40.524 401.075 2.50738 430.593 -61.853C451.422 -107.264 440.027 -159.885 401.565 -195.908C364.795 -230.142 302.345 -249.616 242.471 -245.52L242.426 -247.488C303.168 -251.644 366.509 -231.9 403.79 -197.189C442.758 -160.693 454.302 -107.38 433.197 -61.3709C403.373 3.65309 330.62 41.8725 253.595 82.3367C227.992 95.7885 201.514 109.697 176.715 124.674C114.452 162.285 53.3723 203.821 28.2531 252.665C-3.14323 313.713 27.6274 383.776 106.638 431.162C179.547 474.88 284.941 491.048 381.688 473.339C390.955 471.642 400.468 469.596 409.663 467.621C433.058 462.593 457.247 457.395 480.646 457.147C540.604 456.51 568.937 478.048 598.933 500.852C625.436 520.999 652.841 541.825 704.42 546.7C745.033 550.556 784.049 542.164 821.784 534.05C831.32 531.999 841.18 529.88 850.893 527.996C885.052 521.372 913.876 517.665 943.531 521.104C977.058 524.99 1038.96 535.672 1076.82 563.541C1147.77 615.776 1245.07 608.814 1350.77 543.955C1451.87 482.147 1521.83 387.041 1537.92 289.551L1540.65 289.63C1524.47 387.637 1454.12 483.26 1352.45 545.416C1301.25 576.833 1251.51 594.865 1204.61 599.011C1155.09 603.387 1111.41 591.935 1074.78 564.978C1037.41 537.471 976.104 526.904 942.886 523.054C913.708 519.671 885.211 523.342 851.403 529.9C841.733 531.776 831.887 533.892 822.369 535.938C784.35 544.113 745.039 552.569 703.85 548.659C651.376 543.702 623.666 522.636 596.867 502.267C567.254 479.757 539.289 458.494 480.465 459.119C457.453 459.364 433.459 464.521 410.249 469.509C401.021 471.492 391.479 473.543 382.155 475.248C303.492 489.647 219.15 481.84 150.894 455.17L150.903 455.173Z" fill="#E3F1F6"/>
<path d="M157.64 463.409C138.979 456.117 121.52 447.379 105.697 437.26C28.5195 387.913 1.10667 316.037 35.863 254.143C60.5723 210.142 112.226 172.55 187.557 126.153C209.598 112.577 232.777 99.7647 255.194 87.3706C330.172 45.9171 400.996 6.76145 428.706 -57.6032C447.659 -101.625 436.438 -152.851 400.126 -188.104C365.606 -221.402 306.143 -241.874 248.651 -240.252L248.761 -242.224C307.082 -243.871 367.379 -223.12 402.378 -189.358C439.163 -153.645 450.529 -101.751 431.33 -57.1558C403.337 7.86803 332.142 47.2293 256.764 88.9029C234.38 101.279 211.235 114.077 189.252 127.613C114.275 173.792 62.884 211.169 38.409 254.759C4.08648 315.874 31.2536 386.913 107.616 435.739C178.868 481.295 283.581 498.696 380.898 481.151C390.527 479.416 400.407 477.293 409.961 475.242C432.139 470.48 455.077 465.557 477.303 464.862C535.971 463.038 565.527 481.381 596.82 500.797C624.146 517.752 652.397 535.284 702.275 539.147C740.001 542.092 776.427 535.27 811.653 528.672C822.731 526.596 834.189 524.453 845.467 522.654C873.772 518.147 904.227 514.619 935.138 519.277C975.245 525.324 1029.83 537.991 1062.14 564.005C1132.51 620.672 1230.67 615.664 1338.51 549.906C1442.86 486.49 1515.25 385.494 1527.44 286.321L1530.17 286.342C1517.92 386.048 1445.12 487.599 1340.18 551.37C1287.69 583.377 1236.99 601.19 1189.49 604.321C1139.75 607.597 1096.18 594.502 1060.03 565.384C1028.17 539.733 974.109 527.203 934.371 521.211C903.96 516.627 873.855 520.12 845.853 524.582C834.627 526.369 823.198 528.511 812.144 530.58C776.671 537.224 739.989 544.092 701.766 541.109C651.096 537.182 622.543 519.465 594.932 502.333C564.025 483.154 534.835 465.039 477.203 466.835C455.325 467.517 432.563 472.404 410.551 477.13C400.964 479.188 391.05 481.316 381.36 483.063C304.813 496.866 223.723 489.231 157.645 463.412L157.64 463.409Z" fill="#E0EFF5"/>
<path d="M162.694 470.905C142.217 462.904 123.297 453.162 106.616 441.794C33.2283 391.791 8.89172 317.198 46.0466 256.178C73.724 210.724 129.73 173.306 200.063 129.111C218.885 117.284 238.421 105.916 257.315 94.9224C331.14 51.9635 400.873 11.3872 426.815 -53.3407C444.166 -96.6333 433.386 -145.28 398.679 -180.29C365.872 -213.169 310.75 -234.12 254.816 -234.976L255.091 -236.95C311.809 -236.087 367.704 -214.845 400.948 -181.521C436.101 -146.056 447.017 -96.7856 429.44 -52.9341C403.239 12.4485 333.139 53.2369 258.928 96.4188C240.059 107.399 220.547 118.752 201.763 130.554C131.72 174.562 75.9574 211.807 48.5379 256.846C11.8439 317.109 35.9691 390.838 108.575 440.31C177.063 486.978 283.639 506.069 380.091 488.951C390.143 487.168 400.462 484.953 410.435 482.811C431.335 478.324 452.947 473.681 473.939 472.572C531.463 469.536 562.33 484.689 595.012 500.73C623.057 514.495 652.06 528.732 700.1 531.595C734.674 533.673 768.238 528.308 800.699 523.118C813.584 521.058 826.909 518.929 840.019 517.317C865.761 514.152 896.188 511.694 926.718 517.455C983.281 528.125 1023.89 543.944 1047.43 564.461C1117.41 625.469 1216.43 622.406 1326.22 555.852C1435.3 489.94 1508.37 385.425 1516.93 283.098L1519.67 283.061C1511.06 385.948 1437.58 491.039 1327.89 557.323C1274.13 589.906 1222.5 607.486 1174.43 609.568C1124.52 611.73 1081.06 596.997 1045.26 565.791C1022.37 545.845 981.078 529.794 925.83 519.369C895.79 513.699 865.721 516.134 840.272 519.266C827.233 520.869 813.941 522.993 801.09 525.049C768.425 530.269 734.648 535.669 699.661 533.564C650.95 530.66 621.667 516.288 593.35 502.39C561.041 486.532 530.529 471.556 473.924 474.544C453.243 475.635 431.783 480.243 411.025 484.701C401.014 486.851 390.661 489.071 380.544 490.87C306.724 503.969 227.024 496.047 162.684 470.912L162.694 470.905Z" fill="#DDEEF4"/>
<path d="M168.458 479.256C145.895 470.439 125.217 459.45 107.316 446.456C36.5017 395.045 15.876 319.433 55.9933 258.308C85.3572 213.567 141.438 177.609 206.375 135.973L212.354 132.136C227.427 122.465 242.885 113.011 257.836 103.862C331.214 58.9708 400.519 16.5695 424.748 -49.0458C440.222 -90.9449 429.611 -138.244 397.056 -172.477C366.443 -204.445 314.225 -226.372 260.776 -229.713L261.229 -231.68C315.413 -228.296 368.338 -206.072 399.356 -173.682C432.325 -139.017 443.069 -91.1207 427.398 -48.6841C402.925 17.582 333.266 60.1983 259.516 105.319C244.58 114.457 229.136 123.904 214.093 133.557L208.109 137.394C143.423 178.869 87.5603 214.688 58.4633 259.024C18.8347 319.402 39.2822 394.141 109.345 445.004C176.108 493.472 282.007 513.836 379.131 496.88C389.697 495.035 400.547 492.701 411.031 490.446C430.571 486.24 450.776 481.896 470.437 480.408C527.058 476.125 559.4 488.094 593.639 500.768C622.261 511.361 651.854 522.316 697.825 524.187C728.922 525.472 759.293 521.417 788.667 517.495C803.687 515.49 819.222 513.416 834.498 512.119C868.801 509.21 894.63 510.335 918.239 515.773C958.755 525.097 996.88 545.157 1032.45 564.905C1118.87 612.882 1199.81 630.732 1313.93 561.943C1427.71 493.546 1501.48 385.501 1506.44 279.968L1509.18 279.88C1504.19 385.992 1430.01 494.637 1315.59 563.417C1262.97 595.135 1214.51 610.087 1167.41 609.13C1124.96 608.27 1081.51 594.726 1030.66 566.508C995.268 546.858 957.351 526.9 917.212 517.664C893.663 512.245 868.955 511.172 834.6 514.087C819.419 515.374 803.93 517.442 788.953 519.442C759.419 523.384 728.878 527.462 697.447 526.165C650.923 524.268 621.084 513.224 592.231 502.544C558.339 490 526.33 478.154 470.502 482.377C451.105 483.843 431.028 488.162 411.616 492.34C401.093 494.605 390.21 496.945 379.569 498.802C307.589 511.366 230.834 503.621 168.454 479.249L168.458 479.256Z" fill="#DBECF3"/>
<path d="M174.051 487.443C149.502 477.853 127.183 465.618 108.246 450.971C39.9813 398.18 23.0735 321.562 66.1746 260.324C94.9439 219.445 144.851 187.053 202.638 149.547C209.962 144.793 217.382 139.979 224.859 135.074C235.388 128.172 246.094 121.305 256.452 114.665C330.418 67.2376 400.28 22.4351 422.872 -44.8009C436.686 -85.9185 426.502 -130.738 395.628 -164.689C366.731 -196.238 318.627 -218.585 266.95 -224.463L267.585 -226.414C319.954 -220.456 368.685 -197.819 397.959 -165.861C429.219 -131.487 439.529 -86.1111 425.542 -44.4806C402.733 23.4083 332.524 68.429 258.19 116.093C247.842 122.728 237.145 129.589 226.625 136.484C219.145 141.388 211.719 146.206 204.391 150.96C146.831 188.32 97.1221 220.583 68.6131 261.098C26.0331 321.598 42.8008 397.336 110.333 449.561C175.324 499.826 280.526 521.45 378.353 504.663C389.558 502.739 401.055 500.254 412.173 497.854C430.223 493.954 448.895 489.918 467.094 488.101C523.22 482.497 557.308 491.282 593.404 500.583C622.301 508.029 652.183 515.729 695.672 516.633C722.866 517.217 749.597 514.306 775.445 511.486C793.032 509.568 811.219 507.587 829.083 506.785C861.677 505.325 886.591 507.531 909.849 513.949C947.654 524.38 984.063 544.818 1017.78 565.35C1103.58 617.595 1184.69 638.017 1301.67 567.867C1420.12 497.021 1494.57 385.464 1495.95 276.729L1498.7 276.591C1497.3 385.925 1422.44 498.101 1303.32 569.341C1249.25 601.761 1199.95 616.572 1152.58 614.619C1109.92 612.861 1066.49 597.696 1015.92 566.898C982.36 546.466 946.144 526.128 908.697 515.796C885.796 509.482 861.228 507.307 829.034 508.754C811.289 509.551 793.167 511.527 775.641 513.436C749.671 516.267 722.817 519.193 695.37 518.604C651.463 517.687 621.386 509.936 592.298 502.442C556.514 493.222 522.718 484.512 467.253 490.052C449.266 491.848 430.708 495.86 412.758 499.736C401.598 502.149 390.062 504.641 378.777 506.578C308.541 518.629 234.537 511.064 174.051 487.433L174.051 487.443Z" fill="#D8EBF2"/>
<path d="M179.264 495.617C152.819 485.288 128.988 471.809 109.176 455.485C43.44 401.325 30.2474 323.707 76.3544 262.346C104.661 224.669 152.112 193.761 202.349 161.037C213.773 153.597 225.588 145.899 237.351 138.014C242.114 134.823 246.872 131.646 251.61 128.483C327.888 77.565 399.937 29.4687 420.987 -40.5524C432.927 -80.2637 422.91 -123.762 394.187 -156.911C367.404 -187.605 322.138 -210.903 273.097 -219.23L273.923 -221.154C323.584 -212.72 369.421 -189.128 396.539 -158.052C425.607 -124.507 435.747 -80.4825 423.663 -40.2865C402.41 30.397 330.023 78.7178 253.382 129.878C248.643 133.041 243.89 136.215 239.127 139.406C227.345 147.301 215.525 155.002 204.096 162.45C154.058 195.042 106.796 225.828 78.7383 263.173C33.1846 323.805 46.27 400.542 111.298 454.121C174.467 506.163 278.976 529.059 377.551 512.446C389.565 510.421 401.895 507.736 413.817 505.14C430.212 501.568 447.167 497.876 463.737 495.795C520.18 488.712 556.601 494.291 595.161 500.199C623.741 504.576 653.297 509.105 693.501 509.094C716.224 509.105 738.71 507.132 760.46 505.223C781.191 503.404 802.63 501.524 823.665 501.465C854.15 501.377 878.873 504.772 901.459 512.139C937.994 524.042 971.908 544.974 1003.11 565.808C1088.01 622.473 1169.18 645.524 1289.4 573.805C1410.64 501.64 1487.59 383.767 1485.46 273.509L1488.2 273.323C1489.24 327.391 1471.73 384.013 1437.55 437.072C1402.68 491.191 1352.02 538.986 1291.04 575.282C1235.49 608.422 1185.31 623.11 1137.63 620.185C1094.62 617.549 1051.25 600.743 1001.16 567.301C970.1 546.571 936.364 525.754 900.163 513.947C877.92 506.693 853.547 503.354 823.452 503.438C802.581 503.498 782.176 505.286 760.572 507.182C738.742 509.097 716.171 511.08 693.278 511.068C652.792 511.075 623.101 506.527 594.386 502.131C556.088 496.265 519.908 490.725 463.99 497.742C447.595 499.8 430.726 503.473 414.411 507.028C402.446 509.636 390.069 512.329 377.97 514.371C309.369 525.931 237.916 518.534 179.259 495.623L179.264 495.617Z" fill="#D5E9F1"/>
<path d="M183.185 503.015C155.122 492.054 130.116 477.563 110.106 459.998C46.8643 404.482 37.3849 325.864 86.5201 264.368C114.477 229.377 158.215 200.988 204.521 170.926C219.359 161.293 234.708 151.332 249.832 140.953C319.973 92.8262 399.475 38.2779 419.104 -36.3076C429.333 -75.1935 419.728 -116.317 392.746 -149.135C367.625 -179.485 326.258 -203.132 279.241 -214L280.263 -215.883C327.838 -204.881 369.704 -180.951 395.129 -150.237C422.423 -117.035 432.143 -75.4287 421.791 -36.0895C401.987 39.1741 322.107 93.9786 251.637 142.333C236.484 152.73 221.12 162.702 206.263 172.345C160.141 202.282 116.581 230.561 88.868 265.247C40.3092 326.023 49.7146 403.756 112.278 458.677C172.642 511.669 278.928 536.395 376.77 520.221C389.868 518.054 403.305 515.089 416.302 512.22C430.773 509.026 445.738 505.721 460.389 503.484C519.091 494.521 559.282 496.81 601.829 499.235C628.627 500.763 656.344 502.341 691.342 501.558C708.824 501.175 726.251 499.922 743.102 498.714C768.906 496.859 793.278 495.107 818.257 496.144C847.108 497.342 870.883 501.849 893.075 510.327C928.07 523.691 960.881 546.086 988.453 566.26C1072.17 627.517 1153.31 653.249 1277.14 579.73C1402.94 505.184 1480.59 383.717 1474.98 270.276L1477.72 270.05C1483.36 384.115 1405.28 506.252 1278.78 581.21C1221.72 615.09 1170.62 629.674 1122.57 625.801C1079.07 622.292 1035.8 603.83 986.422 567.697C958.982 547.62 926.224 525.308 891.64 512.086C869.781 503.734 846.342 499.294 817.875 498.113C793.112 497.085 768.844 498.83 743.147 500.678C726.249 501.891 708.771 503.149 691.2 503.531C656.051 504.32 628.264 502.735 601.391 501.205C557.208 498.689 519.046 496.512 460.742 505.417C446.214 507.636 431.315 510.926 416.905 514.107C403.861 516.988 390.371 519.965 377.17 522.146C310.808 533.115 240.596 525.45 183.176 503.018L183.185 503.015Z" fill="#D3E8F0"/>
<path d="M187.807 511.156C157.974 499.504 131.621 483.768 111.039 464.508C50.2657 407.65 44.5018 328.032 96.6874 266.387C124.382 233.678 165.236 207.399 208.482 179.576C226.215 168.172 244.547 156.376 262.309 143.89C344.643 86.0136 402.492 33.9402 417.224 -32.0692C425.586 -69.5409 416.14 -109.383 391.31 -141.377C367.823 -171.448 330.196 -195.384 285.389 -208.792L286.606 -210.62C331.927 -197.061 369.97 -172.852 393.728 -142.439C418.839 -110.091 428.387 -69.8029 419.932 -31.9093C405.071 34.6751 346.908 87.0665 264.142 145.245C246.332 157.766 227.971 169.576 210.213 180.998C167.137 208.708 126.452 234.88 98.9903 267.314C47.4039 328.25 53.1314 406.981 113.25 463.23C171.741 517.949 277.314 543.976 375.979 527.991C390.588 525.624 405.576 522.241 420.07 518.97C432.193 516.233 444.733 513.404 457.032 511.171C524.601 498.897 569.285 497.694 625.851 496.177C645.556 495.647 665.932 495.1 689.174 494.029C700.297 493.524 711.482 492.798 722.3 492.101C753.42 490.09 782.812 488.186 812.855 490.834C839.749 493.203 863.254 498.986 884.703 508.524C917.383 523.049 946.838 545.076 973.801 566.715C1021.82 605.249 1064.45 625.208 1107.96 629.515C1155.62 634.237 1206.96 619.892 1264.9 585.651C1395.23 508.741 1473.59 383.68 1464.5 267.041L1467.24 266.778C1476.37 384.054 1397.59 509.801 1266.53 587.135C1207.91 621.773 1155.86 636.275 1107.37 631.47C1063.23 627.1 1020.12 606.955 971.694 568.094C944.852 546.552 915.548 524.631 883.131 510.226C861.981 500.83 838.824 495.129 812.309 492.791C782.551 490.17 753.301 492.063 722.331 494.065C711.5 494.766 700.296 495.493 689.134 495.999C665.856 497.071 645.46 497.619 625.741 498.146C569.335 499.664 524.783 500.858 457.502 513.079C445.28 515.299 432.782 518.12 420.698 520.846C406.146 524.129 391.102 527.527 376.374 529.912C311.46 540.43 243.562 532.932 187.798 511.15L187.807 511.156Z" fill="#D0E7EF"/>
<path d="M192.112 519.27C160.603 506.964 133.004 489.981 111.991 469.018C54.5704 411.731 52.461 329.241 106.868 268.414C134.385 237.649 172.98 213.157 213.839 187.228C234.071 174.388 254.998 161.109 274.799 146.833C361.495 84.3261 404.847 30.4611 415.364 -27.8173C421.973 -64.4226 412.925 -101.994 389.894 -133.609C368.295 -163.086 333.365 -187.984 291.55 -203.576L292.96 -205.339C335.159 -189.5 370.508 -164.422 392.342 -134.628C415.616 -102.677 424.76 -64.7077 418.083 -27.7152C407.473 31.0591 363.856 85.3044 276.661 148.172C256.787 162.502 235.83 175.802 215.555 188.667C174.86 214.493 136.425 238.885 109.14 269.392C55.3448 329.533 57.4515 411.119 114.26 467.792C170.834 524.235 275.708 551.548 375.225 535.77C392.112 533.093 409.443 529.033 426.201 525.108C435.223 522.998 444.548 520.814 453.708 518.865C537.033 501.161 595.909 492.997 687.039 486.519L696.377 485.849C734.605 483.094 770.712 480.49 807.481 485.541C832.891 489.032 855.423 495.964 876.351 506.734C907.927 522.983 935.661 546.454 959.182 567.179C1054.42 651.124 1139.45 658.19 1252.67 591.577C1387.54 512.311 1466.59 383.661 1454.04 263.824L1456.78 263.52C1469.39 384.014 1389.91 513.364 1254.3 593.063C1175.41 639.483 1110.02 650.622 1045.55 625.44C1016.24 613.993 987.128 595.047 957.002 568.496C933.585 547.859 905.978 524.488 874.646 508.366C854.017 497.747 831.809 490.916 806.768 487.476C770.377 482.476 734.462 485.067 696.437 487.808L687.094 488.478C595.032 495.021 538.461 502.863 454.297 520.748C445.17 522.686 435.864 524.866 426.866 526.971C410.037 530.913 392.639 534.985 375.616 537.684C312.051 547.765 246.317 540.435 192.126 519.269L192.112 519.27Z" fill="#CDE5EE"/>
<path d="M195.502 526.647C162.424 513.728 133.747 495.708 112.911 473.532C57.8601 414.937 59.5474 331.421 117.011 270.44C144.424 241.347 181.238 218.385 220.218 194.073C242.668 180.067 265.885 165.583 287.255 149.769C363.976 92.9694 405.267 36.2668 413.486 -23.5809C418.164 -58.8836 409.275 -95.21 388.453 -125.862C368.339 -155.344 336.952 -180.42 297.689 -198.388L299.284 -200.076C338.929 -181.939 370.619 -156.614 390.931 -126.841C411.957 -95.886 420.937 -59.2018 416.211 -23.55C407.924 36.796 366.361 93.9162 289.145 151.081C267.688 166.965 244.418 181.478 221.919 195.516C183.099 219.731 146.43 242.601 119.248 271.456C62.4188 331.764 60.7664 414.374 115.229 472.342C169.006 529.584 275.599 558.856 374.439 543.534C395.117 540.328 416.351 535.025 436.888 529.898C441.377 528.775 445.871 527.655 450.363 526.552C462.618 523.545 474.466 520.587 486.025 517.698C553.966 500.728 612.635 486.075 684.874 479.011C728.727 474.737 765.444 473.313 802.092 480.255C826.12 484.805 847.671 492.885 867.991 504.951C896.34 521.784 920.38 544.215 944.55 567.65C993.898 615.504 1040.06 639.203 1089.82 642.228C1135.12 644.983 1184.39 630.353 1240.45 597.507C1379.84 515.899 1459.58 383.658 1443.6 260.603L1446.33 260.266C1462.4 383.986 1382.23 516.944 1242.08 598.996C1185.39 632.208 1135.44 646.992 1089.38 644.193C1038.85 641.12 992.111 617.195 942.313 568.904C918.238 545.561 894.297 523.224 866.158 506.512C846.126 494.615 824.88 486.649 801.215 482.164C764.987 475.299 728.57 476.719 685.042 480.965C613.086 488.003 554.54 502.625 486.747 519.559C475.183 522.448 463.325 525.407 451.07 528.417C446.587 529.516 442.098 530.639 437.609 531.759C416.992 536.909 395.677 542.232 374.824 545.464C313.257 555.008 248.708 547.425 195.525 526.653L195.502 526.647Z" fill="#CAE4ED"/>
<path d="M199.223 534.657C164.578 521.125 134.813 501.878 113.836 478.037C61.1882 418.208 66.665 333.674 127.149 272.462C154.453 244.944 191.361 222.38 227.049 200.56C251.644 185.523 277.074 169.972 299.693 152.7C367.569 101.22 406.264 41.7304 411.598 -19.3481C414.507 -53.7221 406.002 -87.8815 387.007 -118.131C368.558 -147.432 339.79 -173.395 303.82 -193.215L305.588 -194.814C341.875 -174.82 370.9 -148.622 389.516 -119.058C408.686 -88.5338 417.267 -54.0668 414.33 -19.3815C408.951 42.1909 369.973 102.142 301.612 153.989C278.881 171.35 253.384 186.94 228.726 202.016C191.543 224.751 156.419 246.225 129.341 273.516C69.51 334.065 64.1008 417.696 116.19 476.89C167.947 535.718 273.822 566.313 373.642 551.298C398.988 547.439 424.798 540.465 446.996 534.237C471.469 527.366 495.367 519.821 518.479 512.522C573.51 495.145 625.492 478.729 682.693 471.503C728.339 465.745 763.501 466.816 796.692 474.971C819.492 480.519 840.071 489.743 859.613 503.164C886.039 521.181 907.631 544.282 928.515 566.626L929.904 568.112C977.297 618.804 1023.04 644.246 1073.85 648.179C1119.99 651.752 1170.48 637.111 1228.21 603.425C1372.11 519.48 1452.54 383.647 1433.13 257.374L1435.84 257.003C1445.35 318.812 1430.95 384.361 1394.2 446.56C1357.35 508.923 1300.51 563.682 1229.83 604.911C1171.46 638.973 1120.27 653.766 1073.34 650.132C1021.74 646.136 975.424 620.45 927.591 569.295L926.202 567.808C905.39 545.544 883.874 522.524 857.639 504.639C838.362 491.397 818.077 482.305 795.625 476.836C762.875 468.787 728.126 467.739 682.951 473.434C626.094 480.617 574.27 496.98 519.405 514.304C496.264 521.611 472.338 529.168 447.808 536.054C425.501 542.316 399.558 549.322 373.995 553.215C313.578 562.302 250.961 554.854 199.224 534.647L199.223 534.657Z" fill="#C8E2EC"/>
<path d="M202.811 542.773C166.636 528.645 135.819 508.125 114.76 482.548C64.3738 421.355 73.6334 335.796 137.281 274.49C164.668 248.106 200.569 226.653 235.281 205.904C261.579 190.186 288.772 173.938 312.129 155.634C443.182 52.9505 442.208 -101.221 309.951 -188.043L311.884 -189.546C445.203 -102.025 446.184 53.3899 314.076 156.898C290.579 175.312 263.304 191.61 236.929 207.374C202.352 228.041 166.595 249.409 139.424 275.582C76.4469 336.245 67.283 420.9 117.139 481.447C166.995 541.991 272.142 573.912 372.842 559.062C423.442 551.6 475.839 531.345 526.514 511.759C613.698 478.055 703.854 443.204 791.282 469.71C846.126 486.331 878.18 524.473 909.168 561.353L915.263 568.595C959.836 621.333 1006.41 649.314 1057.66 654.133C1104.74 658.56 1156.53 643.912 1215.97 609.354C1362.09 524.412 1445.16 381.668 1422.67 254.16L1425.38 253.763C1436.56 317.13 1422.78 384.459 1385.52 448.473C1348.27 512.487 1290.2 568.635 1217.59 610.849C1157.48 645.791 1104.98 660.588 1057.09 656.085C1005.04 651.192 957.881 622.938 912.892 569.711L906.792 562.467C876.01 525.829 844.174 487.942 790.053 471.536C703.801 445.387 614.25 480.002 527.653 513.48C476.792 533.143 424.2 553.469 373.179 560.996C313.945 569.73 253.182 562.451 202.806 542.777L202.811 542.773Z" fill="#C5E1EC"/>
</g>
</g>
<defs>
<linearGradient id="paint0_linear_2001_2599" x1="720" y1="0" x2="720" y2="681" gradientUnits="userSpaceOnUse">
<stop stop-color="#DEF3F2"/>
<stop offset="1" stop-color="#ADE2DC"/>
</linearGradient>
<clipPath id="clip0_2001_2599">
<rect width="1440" height="681" fill="white"/>
</clipPath>
</defs>
</svg>
