<svg width="36" height="24" viewBox="0 0 36 24" fill="none" xmlns="http://www.w3.org/2000/svg">
<g clip-path="url(#clip0_11240_8019)">
<path d="M0 0H36V24.0003H0V0Z" fill="white"/>
<path d="M20.25 -0.000366211H15.75V9.7496H0V14.2496H15.75V23.9996H20.25V14.2496H36V9.7496H20.25V-0.000366211Z" fill="#D80027"/>
<path d="M27.6881 16.1736L36.0001 20.7915V16.1736H27.6881ZM21.9131 16.1736L36.0001 23.9997V21.7867L25.8966 16.1736H21.9131ZM32.2478 23.9997L21.9131 18.2577V23.9997H32.2478Z" fill="#0052B4"/>
<path d="M21.9131 16.1736L36.0001 23.9997V21.7867L25.8966 16.1736H21.9131Z" fill="white"/>
<path d="M21.9131 16.1736L36.0001 23.9997V21.7867L25.8966 16.1736H21.9131Z" fill="#D80027"/>
<path d="M6.3521 16.1735L0 19.7025V16.1735H6.3521ZM14.087 17.1687V23.9997H1.79234L14.087 17.1687Z" fill="#0052B4"/>
<path d="M10.1034 16.1737L0 21.7867V23.9997L14.087 16.1737H10.1034Z" fill="#D80027"/>
<path d="M8.31199 7.8257L0 3.20786V7.8257H8.31199ZM14.087 7.8257L0 -0.000366211V2.21265L10.1034 7.8257H14.087ZM3.7523 -0.000366211L14.087 5.74164V-0.000366211H3.7523Z" fill="#0052B4"/>
<path d="M14.087 7.8257L0 -0.000366211V2.21265L10.1034 7.8257H14.087Z" fill="white"/>
<path d="M14.087 7.8257L0 -0.000366211V2.21265L10.1034 7.8257H14.087Z" fill="#D80027"/>
<path d="M29.648 7.82602L36.0001 4.29703V7.82602H29.648ZM21.9131 6.83082V-0.00012207H34.2077L21.9131 6.83082Z" fill="#0052B4"/>
<path d="M25.8966 7.82588L36.0001 2.21283V-0.000190735L21.9131 7.82588H25.8966Z" fill="#D80027"/>
</g>
<defs>
<clipPath id="clip0_11240_8019">
<rect width="36" height="24" fill="white"/>
</clipPath>
</defs>
</svg>
