<svg width="10" height="10" viewBox="0 0 10 10" fill="none" xmlns="http://www.w3.org/2000/svg">
<path d="M2.67522 2.641C2.61846 2.661 2.6091 2.66725 2.59974 2.66725C1.95605 2.67162 1.31172 2.67224 0.668024 2.68162C0.266961 2.68724 0.011851 2.92283 0.00748486 3.31339C-0.00249495 4.14637 -0.00249495 4.97936 0.00748486 5.81234C0.011851 6.20478 0.264466 6.44099 0.666154 6.44661C1.20631 6.45411 1.74709 6.44911 2.28725 6.44911C2.40763 6.44911 2.52739 6.44911 2.67584 6.44911C2.67584 7.13337 2.67334 7.76639 2.67646 8.40003C2.67896 8.86996 2.91847 9.11679 3.38004 9.11929C4.16969 9.12366 4.95997 9.12429 5.74963 9.11929C6.19809 9.11616 6.44135 8.87246 6.44572 8.42441C6.45133 7.89324 6.47004 7.36083 6.43886 6.83155C6.4189 6.49723 6.5399 6.42974 6.84304 6.44224C7.38257 6.46536 7.92398 6.45411 8.46414 6.44599C8.86208 6.43974 9.11158 6.19915 9.11594 5.80422C9.12468 4.97123 9.12593 4.13825 9.1147 3.30526C9.10971 2.9272 8.85834 2.68787 8.47786 2.68224C7.9165 2.6735 7.35513 2.68037 6.79439 2.67849C6.68524 2.67849 6.57608 2.6685 6.44759 2.66225C6.44759 2.01361 6.44884 1.40058 6.44759 0.787561C6.44572 0.220156 6.22491 0.00269292 5.6492 0.00144313C4.91132 0.000193343 4.17344 -0.00105645 3.43555 0.00144313C2.90974 0.00331782 2.67833 0.236404 2.67646 0.763815C2.67397 1.38684 2.67646 2.00986 2.67646 2.63975L2.67522 2.641Z" fill="url(#paint0_linear_11240_4501)"/>
<defs>
<linearGradient id="paint0_linear_11240_4501" x1="9.12281" y1="4.5614" x2="0" y2="4.5614" gradientUnits="userSpaceOnUse">
<stop stop-color="#30BCAD"/>
<stop offset="1" stop-color="#01907E"/>
</linearGradient>
</defs>
</svg>
