<svg width="11" height="11" viewBox="0 0 11 11" fill="none" xmlns="http://www.w3.org/2000/svg">
<path d="M3.17522 3.141C3.11846 3.161 3.1091 3.16725 3.09974 3.16725C2.45605 3.17162 1.81172 3.17224 1.16802 3.18162C0.766961 3.18724 0.511851 3.42283 0.507485 3.81339C0.497505 4.64637 0.497505 5.47936 0.507485 6.31234C0.511851 6.70478 0.764466 6.94099 1.16615 6.94661C1.70631 6.95411 2.24709 6.94911 2.78725 6.94911C2.90763 6.94911 3.02739 6.94911 3.17584 6.94911C3.17584 7.63337 3.17334 8.26639 3.17646 8.90003C3.17896 9.36996 3.41847 9.61679 3.88004 9.61929C4.66969 9.62366 5.45997 9.62429 6.24963 9.61929C6.69809 9.61616 6.94135 9.37246 6.94572 8.92441C6.95133 8.39324 6.97004 7.86083 6.93886 7.33155C6.9189 6.99723 7.0399 6.92974 7.34304 6.94224C7.88257 6.96536 8.42398 6.95411 8.96414 6.94599C9.36208 6.93974 9.61158 6.69915 9.61594 6.30422C9.62468 5.47123 9.62593 4.63825 9.6147 3.80526C9.60971 3.4272 9.35834 3.18787 8.97786 3.18224C8.4165 3.1735 7.85513 3.18037 7.29439 3.17849C7.18523 3.17849 7.07608 3.1685 6.94759 3.16225C6.94759 2.51361 6.94884 1.90058 6.94759 1.28756C6.94572 0.720156 6.72491 0.502693 6.1492 0.501443C5.41132 0.500193 4.67344 0.498944 3.93555 0.501443C3.40974 0.503318 3.17833 0.736404 3.17646 1.26382C3.17397 1.88684 3.17646 2.50986 3.17646 3.13975L3.17522 3.141Z" stroke="url(#paint0_linear_11240_4500)"/>
<defs>
<linearGradient id="paint0_linear_11240_4500" x1="9.62281" y1="5.0614" x2="0.5" y2="5.0614" gradientUnits="userSpaceOnUse">
<stop stop-color="#30BCAD"/>
<stop offset="1" stop-color="#01907E"/>
</linearGradient>
</defs>
</svg>
