<svg width="58" height="58" viewBox="0 0 58 58" fill="none" xmlns="http://www.w3.org/2000/svg">
<path d="M11.6343 43.4356C8.9132 42.7401 6.4785 41.3157 4.54927 39.397C1.74389 36.6069 0 32.7526 0 28.513C0 24.2733 1.74389 20.4191 4.54927 17.6289C6.81548 15.375 9.78094 13.8082 13.0749 13.2887H13.1086H13.1423L13.176 13.2804H13.2097L13.2687 13.2636H13.353V13.2552H13.3867L13.4204 13.2468H13.4541L13.4877 13.2385H13.5214H13.5551L13.5888 13.2301H13.6225L13.6562 13.2217H13.6899L13.7236 13.2133H13.8332V13.2049H13.85H13.8669L14.0185 13.1882H14.0438H14.0606H14.0943H14.128H14.2123L14.2375 13.1798H14.2712L14.3808 13.1714H14.4145H14.4482L14.5914 13.163H14.5998H14.6251H14.7767H14.7936H14.8188H14.9957H15.0126C15.0716 13.163 15.1305 13.163 15.1895 13.163H15.4001H18.0791H37.2872C37.4978 13.9339 37.6073 14.7383 37.6073 15.5594C37.6073 16.4391 37.4809 17.3022 37.2366 18.1233H15.3749H15.3664H15.2569H15.2316H15.2148H15.1053H15.0884H14.9789H14.9705H14.9621H14.8525H14.8441H14.7346H14.7093H14.6925H14.5829V18.1317L14.4818 18.14H14.465H14.4313H14.3892H14.3471H14.3302H14.3049L14.2207 18.1568H14.1954H14.1786H14.0943L14.0606 18.1736H14.0185H13.9427V18.1819H13.909H13.8669L13.8247 18.1987H13.7826L13.7405 18.2154H13.6984L13.6731 18.2238H13.6562L13.6141 18.2322H13.572L13.5636 18.2406H13.5383L13.4962 18.2573H13.4541L13.4119 18.2741H13.3782L13.3024 18.2909H13.2856L13.2603 18.2992L13.1845 18.316H13.1592L13.1423 18.3244H13.1002L13.0581 18.3411H13.0244V18.3495H12.9823L12.9402 18.3663C11.0783 18.8355 9.41025 19.8074 8.09602 21.1145C6.19206 23.0081 5.0042 25.6223 5.0042 28.4878C5.0042 31.3534 6.18364 33.9675 8.09602 35.8695C9.07327 36.8415 10.2443 37.6291 11.5501 38.1653V42.3212H11.5669C11.5838 42.6898 11.6175 43.0585 11.6596 43.4188M18.2055 43.9048C18.6604 45.8486 19.663 47.5914 21.0362 48.9572C22.9485 50.8591 25.6023 52.0406 28.5256 52.0406C31.4489 52.0406 34.1027 50.8591 36.0151 48.9572C37.0513 47.9266 37.8769 46.6781 38.4161 45.2873H41.5247C42.2493 45.2873 42.9653 45.2454 43.673 45.1532C42.9906 47.9685 41.5332 50.4905 39.545 52.4762C36.7227 55.2831 32.8306 57.0175 28.5256 57.0175C24.2207 57.0175 20.3285 55.2831 17.5063 52.4762C15.1811 50.1637 13.5888 47.1222 13.1002 43.7288V43.6953V43.6702L13.0834 43.5696V43.5361V43.5026V43.4691L13.0665 43.335V43.3099V43.2931L13.0497 43.159V43.1255V43.1004V43.0585V42.9328L13.0328 42.9244V42.8909L13.016 42.7317V42.7234V42.5474L12.9991 42.5306V42.5139L12.9907 42.3379V42.3044V42.162V42.1285V41.9525V41.9357V41.919V41.743V41.7347V41.5336H12.9991V40.9638H12.9907V28.5213H12.9991V19.8242C13.8247 19.5812 14.6925 19.4555 15.5686 19.4555H17.9696V28.5297H17.978V40.9722H17.9696V41.542H17.978V41.6593V41.676V41.6928V41.7347V41.8017V41.8101V41.9106V41.9357V41.9525V42.0614V42.0866V42.1452V42.1871V42.2123V42.229L17.9865 42.3463V42.3798V42.4804L17.9949 42.4888V42.5977H18.0033V42.6982L18.0202 42.7234V42.7736V42.8071L18.0286 42.8407V42.8742V42.9077L18.037 42.9412V42.9747V43.0082L18.0539 43.0836V43.1004V43.1255V43.2009L18.0707 43.2345V43.2764V43.3099L18.0876 43.3434V43.3601V43.3853L18.1044 43.4607V43.4942V43.5277L18.1213 43.5612V43.5947L18.1297 43.6115V43.6283L18.1381 43.6618V43.6953L18.155 43.7288V43.7623L18.1718 43.7958V43.8294L18.1887 43.8629L18.2055 43.9048ZM57.0175 28.4962C57.0175 32.7359 55.2737 36.5901 52.4683 39.3802C50.2021 41.6341 47.245 43.1926 43.9426 43.7121H43.9089L43.8331 43.7288H43.7994L43.7657 43.7372H43.732L43.6562 43.7539H43.6225L43.5888 43.7623H43.5551L43.5214 43.7707H43.4877L43.454 43.7791H43.4203L43.3866 43.7875H43.3529L43.3192 43.7958H43.2855H43.2518H43.1844L43.1423 43.8042H43.1086L42.999 43.821H42.9738L42.8221 43.8377H42.7884H42.7547H42.721H42.6452H42.6031H42.5862L42.4177 43.8461H42.4009H42.3756H42.224H42.2071H42.1903H42.0386H42.0134H41.8196H41.8112H41.609H38.9216H19.6124C19.4018 43.0753 19.2923 42.2709 19.2923 41.4498V38.8859H41.609H41.6343H41.7606H41.7691H41.9039H42.0134H42.0302H42.0471H42.1229H42.1566H42.2661H42.2914H42.2998H42.4093L42.4262 38.8775H42.4514H42.4851H42.5188H42.5273H42.5778H42.5862H42.6199H42.6536H42.6789H42.6958H42.7295L42.7632 38.8691H42.7969L42.8306 38.8607H42.8643L42.8979 38.8524H42.9316L42.9653 38.844H42.999L43.0327 38.8356H43.0664L43.1001 38.8272H43.1338H43.2012V38.8189H43.2349L43.2686 38.8105L43.336 38.7937H43.3697L43.4371 38.777H43.4708L43.5045 38.7602L43.5719 38.7434H43.6056H43.6393L43.673 38.7267H43.7067L43.7404 38.7099C45.7033 38.2659 47.4556 37.2688 48.8373 35.8947C50.7412 34.0011 51.9291 31.3869 51.9291 28.5213C51.9291 25.6558 50.7497 23.0416 48.8373 21.1396C47.7758 20.0839 46.4952 19.2544 45.0799 18.7266C45.2821 17.6708 45.3916 16.59 45.3916 15.5007C45.3916 14.8556 45.3579 14.2188 45.2821 13.5904C48.0032 14.2858 50.4379 15.7102 52.3672 17.6289C55.1726 20.4191 56.9164 24.2733 56.9164 28.513L57.0175 28.4962ZM44.069 16.481C44.069 16.5481 44.069 16.6067 44.0521 16.6738L44.069 16.481ZM36.9755 28.4962C37.9022 29.0911 38.7615 29.7782 39.5365 30.5574C41.4068 32.4175 42.7969 34.7384 43.5298 37.3442C42.8811 37.495 42.2071 37.5704 41.5163 37.5704H38.3403C37.8011 36.2466 37.0007 35.0568 36.0066 34.0681C34.0943 32.1661 31.4405 30.9847 28.5172 30.9847C27.1777 30.9847 26.0909 29.8368 26.0909 28.5046C26.0909 27.1724 27.1777 26.0245 28.5172 26.0245C31.4405 26.0245 34.0943 24.8431 36.0066 22.9411C37.3377 21.6172 38.3234 19.9415 38.7952 18.0563V18.0144L38.812 17.9725V17.9306L38.8289 17.8887V17.8468V17.8049L38.8457 17.763V17.7211H38.8542V17.6876L38.871 17.6457V17.6038L38.8794 17.587V17.5619L38.8963 17.52V17.4781L38.9131 17.4362V17.3943L38.93 17.3524V17.3105V17.2938L38.9468 17.2268V17.1849L38.9552 17.1765V17.1513L38.9637 17.1095V17.0676L38.9721 17.0424V17.0257L38.9805 16.9838V16.9419V16.9084L38.9889 16.8665V16.7994L38.9974 16.7827V16.7408V16.657L39.0058 16.6402V16.6151L39.0226 16.5062V16.414V16.3721V16.2548L39.0311 16.2464V16.1375L39.0395 16.1124V16.0956V16.0118V15.9783V15.8945V15.8526V15.8107V15.7102V15.6851V15.5761V15.4421V15.3248V15.308V15.2494V15.1823V15.1656V15.065V15.0399V15.0231V14.9477V14.9058V14.8891V14.8304V14.7885V14.7634V14.7466V14.6461V14.6042V14.5037L39.0311 14.4953V14.4199L39.0226 14.3864V14.3445V14.3109V14.2774V14.2523V14.2439V14.2104L39.0142 14.1769V14.1434V14.135V14.1099L39.0058 14.0763V14.0428L38.9974 14.0093V13.9758L38.9889 13.9423V13.9088V13.892V13.8669L38.9805 13.8334V13.7998L38.9637 13.7244V13.6909L38.9552 13.6574V13.6406V13.6155V13.582L38.9384 13.5485L38.9216 13.4814V13.4396V13.406L38.9047 13.3725V13.339L38.8879 13.3055L38.871 13.2385L38.8626 13.1966V13.163L38.8457 13.1295C38.3908 11.1857 37.3883 9.44288 36.0235 8.07714C34.1111 6.17516 31.4574 4.99375 28.534 4.99375C25.6107 4.99375 23.1255 6.09975 21.2215 7.8928C20.0926 8.96529 19.1996 10.2808 18.6352 11.747H15.5349C14.8188 11.747 14.1027 11.7973 13.3951 11.8811C14.1112 8.94015 15.6613 6.32597 17.7927 4.30669C20.556 1.62548 24.3386 0 28.4919 0C32.6452 0 36.689 1.73441 39.5113 4.54129C41.8365 6.85384 43.4287 9.89533 43.9173 13.2887V13.3222V13.3474L43.9426 13.4814V13.515V13.5485L43.9594 13.6825V13.7077V13.7244L43.9763 13.8836V13.9004V13.9088V13.9339L43.9931 14.0931V14.1015V14.135L44.01 14.2942V14.3026V14.4785L44.0268 14.4953V14.512L44.0353 14.688V14.7215V14.8639V14.8975V15.0734V15.0902V15.1069V15.2829V15.2913V15.3164V15.4923C44.0353 15.5594 44.0353 15.6264 44.0353 15.6934V15.7186V15.8945V16.0705V16.0872V16.0956C44.0353 16.1543 44.0353 16.2129 44.0353 16.2716V16.2883L44.0268 16.4643V16.4727C44.0268 16.5397 44.0268 16.6067 44.01 16.6738V16.6905L43.9931 16.8665C43.9931 16.9251 43.9847 16.9838 43.9763 17.0424V17.0592V17.0843L43.9594 17.2184V17.2603L43.9426 17.4362V17.453L43.9173 17.6373L43.9005 17.7798V17.8216V17.83V17.8635L43.8752 17.9976V18.0395L43.8415 18.1903V18.2071V18.249L43.8247 18.2909C43.2434 21.4329 41.7017 24.2482 39.5197 26.4183C38.7446 27.1891 37.8853 27.8762 36.9586 28.4794L36.9755 28.4962Z" fill="url(#paint0_linear_11240_4498)"/>
<defs>
<linearGradient id="paint0_linear_11240_4498" x1="57.0175" y1="28.5088" x2="0" y2="28.5088" gradientUnits="userSpaceOnUse">
<stop stop-color="#30BCAD"/>
<stop offset="1" stop-color="#01907E"/>
</linearGradient>
</defs>
</svg>
