<svg width="36" height="42" viewBox="0 0 36 42" fill="none" xmlns="http://www.w3.org/2000/svg">
<g clip-path="url(#clip0_11240_4418)">
<path d="M0.0502891 8.60977C0.0343279 10.3149 0.0466058 12.02 0.0466058 13.7252C-0.0872232 17.1391 0.0515169 20.5421 0.71084 23.9049C1.46839 27.7707 2.94542 31.3149 5.50781 34.3647C8.61657 38.0648 12.6585 40.3582 17.1841 41.8856C17.6887 42.0561 18.3345 42.0207 18.8588 41.8795C19.7367 41.6417 20.5841 41.2736 21.4217 40.9097L21.4322 40.9051C25.98 38.9259 29.7812 36.0576 32.3694 31.7692C34.7525 27.8206 35.7176 23.4615 35.914 18.938C36.0626 15.4949 35.9766 12.0395 35.9717 8.59028C35.9693 6.82547 34.8802 5.79629 33.0889 5.73418C31.9679 5.6952 30.842 5.627 29.7296 5.48937C26.0671 5.03385 22.8835 3.54064 20.175 1.04992C18.6464 -0.355603 17.3658 -0.349513 15.8335 1.0621C14.2116 2.55775 12.381 3.7209 10.3085 4.50039C7.94743 5.38828 5.49431 5.74027 2.97734 5.74636C1.14179 5.75123 0.0662504 6.81329 0.0502891 8.60977Z" fill="url(#paint0_linear_11240_4418)"/>
<path d="M20.06 21.7483C18.5424 20.2085 17.0254 18.6697 15.5132 17.1364C16.4432 16.1945 17.3941 15.2165 18.3618 14.2557C18.9407 13.6809 19.4982 13.0689 20.1481 12.585C22.894 10.5397 26.9742 12.093 27.7263 15.4457C28.1037 17.1283 27.7123 18.6178 26.5796 19.91C26.3195 20.2074 26.055 20.5021 25.777 20.7816C25.7136 20.8454 25.5674 20.8924 25.4889 20.8638C23.5338 20.1533 21.7442 20.4572 20.1046 21.7256C20.0906 21.7364 20.0734 21.7418 20.06 21.7483Z" fill="#DEF3F2"/>
<path d="M14.6899 17.9523C16.2134 19.4975 17.7256 21.0314 19.2211 22.5485C18.9771 22.9973 18.6879 23.4428 18.4814 23.9245C17.9406 25.1864 17.931 26.4786 18.3884 27.7676C18.4755 28.0131 18.4583 28.1585 18.2675 28.3477C17.6536 28.9565 17.0402 29.5491 16.2338 29.9108C13.3197 31.2171 9.85447 29.3577 9.35937 26.1899C9.10402 24.556 9.55988 23.1162 10.713 21.9316C11.9972 20.6129 13.3078 19.3202 14.6071 18.0161C14.626 17.9971 14.6491 17.9831 14.6899 17.9517V17.9523Z" fill="#76CFC6"/>
<path d="M22.9601 21.6699V30.2417C21.1775 30.1168 19.1606 28.4326 19.1563 25.9596C19.152 23.4855 21.1743 21.7851 22.9601 21.6699Z" fill="#76CFC6"/>
<path d="M24.0688 30.2573V21.6872C25.6214 21.5277 27.6077 23.5022 27.8351 25.3416C28.156 27.9395 26.2675 30.0032 24.0688 30.2573Z" fill="#DEF3F2"/>
</g>
<defs>
<linearGradient id="paint0_linear_11240_4418" x1="36.0009" y1="20.9998" x2="0.000488281" y2="20.9998" gradientUnits="userSpaceOnUse">
<stop stop-color="#30BCAD"/>
<stop offset="1" stop-color="#01907E"/>
</linearGradient>
<clipPath id="clip0_11240_4418">
<rect width="36" height="42" fill="white"/>
</clipPath>
</defs>
</svg>
