<svg width="192" height="47" viewBox="0 0 192 47" fill="none" xmlns="http://www.w3.org/2000/svg">
<g clip-path="url(#clip0_11472_372)">
<path d="M7.03302 26.7363C5.38808 26.3082 3.91629 25.4315 2.75006 24.2504C1.05419 22.533 0 20.1605 0 17.5509C0 14.9412 1.05419 12.5687 2.75006 10.8513C4.12 9.46395 5.91263 8.49951 7.90387 8.17974H7.92425H7.94462L7.96499 8.17459H7.98536L8.02101 8.16427H8.07193V8.15911H8.0923L8.11268 8.15396H8.13305L8.15342 8.1488H8.17379H8.19416L8.21453 8.14364H8.2349L8.25527 8.13848H8.27564L8.29601 8.13333H8.36222V8.12817H8.3724H8.38259L8.47426 8.11785H8.48954H8.49972H8.52009H8.54046H8.59139L8.60667 8.1127H8.62704L8.69324 8.10754H8.71361H8.73398L8.82056 8.10238H8.82565H8.84093H8.9326H8.94279H8.95806H9.06501H9.0752C9.11084 8.10238 9.14649 8.10238 9.18214 8.10238H9.30946H10.9289H22.5403C22.6676 8.57687 22.7338 9.07199 22.7338 9.57742C22.7338 10.119 22.6574 10.6502 22.5097 11.1556H9.29418H9.28909H9.22288H9.20761H9.19742H9.13122H9.12103H9.05483H9.04973H9.04464H8.97843H8.97334H8.90714H8.89186H8.88167H8.81547V11.1608L8.75436 11.1659H8.74417H8.7238H8.69834H8.67287H8.66269H8.64741L8.59648 11.1762H8.5812H8.57102H8.52009L8.49972 11.1865H8.47426H8.42842V11.1917H8.40805H8.38259L8.35712 11.202H8.33166L8.3062 11.2123H8.28073L8.26546 11.2175H8.25527L8.22981 11.2226H8.20434L8.19925 11.2278H8.18397L8.15851 11.2381H8.13305L8.10758 11.2484H8.08721L8.04138 11.2588H8.03119L8.01591 11.2639L7.97008 11.2742H7.9548L7.94462 11.2794H7.91915L7.89369 11.2897H7.87332V11.2949H7.84785L7.82239 11.3052C6.6969 11.594 5.68855 12.1923 4.89409 12.9968C3.74314 14.1624 3.02507 15.7715 3.02507 17.5354C3.02507 19.2992 3.73804 20.9084 4.89409 22.0791C5.48484 22.6774 6.19273 23.1622 6.9821 23.4923V26.0504H6.99228C7.00247 26.2773 7.02284 26.5042 7.0483 26.726M11.0053 27.0251C11.2803 28.2217 11.8864 29.2944 12.7165 30.1351C13.8725 31.3058 15.4767 32.033 17.2439 32.033C19.0111 32.033 20.6153 31.3058 21.7713 30.1351C22.3977 29.5007 22.8968 28.7323 23.2227 27.8761H25.1019C25.5399 27.8761 25.9728 27.8503 26.4006 27.7936C25.9881 29.5265 25.107 31.0789 23.9051 32.3012C22.1991 34.029 19.8463 35.0966 17.2439 35.0966C14.6415 35.0966 12.2887 34.029 10.5826 32.3012C9.17705 30.8778 8.21453 29.0056 7.91915 26.9168V26.8962V26.8807L7.90897 26.8188V26.7982V26.7776V26.7569L7.89878 26.6744V26.659V26.6486L7.8886 26.5661V26.5455V26.53V26.5042V26.4269L7.87841 26.4217V26.4011L7.86823 26.3031V26.2979V26.1896L7.85804 26.1793V26.169L7.85295 26.0607V26.0401V25.9524V25.9317V25.8234V25.8131V25.8028V25.6945V25.6893V25.5656H7.85804V25.2149H7.85295V17.556H7.85804V12.2026C8.35713 12.053 8.88167 11.9756 9.41131 11.9756H10.8627V17.5612H10.8678V25.22H10.8627V25.5707H10.8678V25.6429V25.6532V25.6636V25.6893V25.7306V25.7358V25.7977V25.8131V25.8234V25.8905V25.906V25.9421V25.9678V25.9833V25.9936L10.8729 26.0658V26.0865V26.1484L10.878 26.1535V26.2206H10.8831V26.2825L10.8933 26.2979V26.3289V26.3495L10.8984 26.3701V26.3908V26.4114L10.9035 26.432V26.4527V26.4733L10.9137 26.5197V26.53V26.5455V26.5919L10.9238 26.6125V26.6383V26.659L10.934 26.6796V26.6899V26.7054L10.9442 26.7518V26.7724V26.793L10.9544 26.8137V26.8343L10.9595 26.8446V26.8549L10.9646 26.8756V26.8962L10.9748 26.9168V26.9375L10.985 26.9581V26.9787L10.9951 26.9993L11.0053 27.0251ZM34.4674 17.5405C34.4674 20.1502 33.4132 22.5227 31.7174 24.2401C30.3474 25.6275 28.5599 26.5867 26.5635 26.9065H26.5432L26.4973 26.9168H26.477L26.4566 26.922H26.4362L26.3904 26.9323H26.37L26.3496 26.9375H26.3293L26.3089 26.9426H26.2885L26.2682 26.9478H26.2478L26.2274 26.9529H26.207L26.1867 26.9581H26.1663H26.1459H26.1052L26.0797 26.9632H26.0594L25.9932 26.9736H25.9779L25.8862 26.9839H25.8658H25.8455H25.8251H25.7793H25.7538H25.7436L25.6418 26.989H25.6316H25.6163H25.5246H25.5144H25.5043H25.4126H25.3973H25.2802H25.2751H25.1529H23.5283H11.8558C11.7285 26.5145 11.6623 26.0194 11.6623 25.514V23.9358H25.1529H25.1681H25.2445H25.2496H25.3311H25.3973H25.4075H25.4177H25.4635H25.4839H25.5501H25.5654H25.5705H25.6367L25.6469 23.9307H25.6621H25.6825H25.7029H25.708H25.7385H25.7436H25.764H25.7844H25.7996H25.8098H25.8302L25.8506 23.9255H25.8709L25.8913 23.9203H25.9117L25.932 23.9152H25.9524L25.9728 23.91H25.9932L26.0135 23.9049H26.0339L26.0543 23.8997H26.0746H26.1154V23.8945H26.1357L26.1561 23.8894L26.1969 23.8791H26.2172L26.258 23.8688H26.2783L26.2987 23.8584L26.3395 23.8481H26.3598H26.3802L26.4006 23.8378H26.4209L26.4413 23.8275C27.6279 23.5542 28.6872 22.9404 29.5224 22.0946C30.6733 20.929 31.3914 19.3199 31.3914 17.556C31.3914 15.7922 30.6784 14.183 29.5224 13.0123C28.8807 12.3624 28.1066 11.8519 27.2511 11.5269C27.3733 10.8771 27.4395 10.2118 27.4395 9.54132C27.4395 9.14419 27.4191 8.75222 27.3733 8.36541C29.0182 8.79348 30.49 9.67025 31.6562 10.8513C33.3521 12.5687 34.4063 14.9412 34.4063 17.5509L34.4674 17.5405ZM26.6399 10.1447C26.6399 10.186 26.6399 10.2221 26.6297 10.2634L26.6399 10.1447ZM22.3519 17.5405C22.9121 17.9067 23.4315 18.3296 23.9001 18.8093C25.0306 19.9542 25.8709 21.3829 26.314 22.9868C25.9219 23.0797 25.5144 23.1261 25.0968 23.1261H23.1769C22.851 22.3112 22.3671 21.5788 21.7662 20.9703C20.6102 19.7995 19.006 19.0723 17.2388 19.0723C16.4291 19.0723 15.7721 18.3657 15.7721 17.5457C15.7721 16.7257 16.4291 16.0191 17.2388 16.0191C19.006 16.0191 20.6102 15.2919 21.7662 14.1211C22.5709 13.3063 23.1667 12.2748 23.4519 11.1143V11.0886L23.4621 11.0628V11.037L23.4723 11.0112V10.9854V10.9596L23.4825 10.9338V10.908H23.4875V10.8874L23.4977 10.8616V10.8358L23.5028 10.8255V10.8101L23.513 10.7843V10.7585L23.5232 10.7327V10.7069L23.5334 10.6811V10.6553V10.645L23.5436 10.6038V10.578L23.5487 10.5728V10.5573L23.5537 10.5315V10.5058L23.5588 10.4903V10.48L23.5639 10.4542V10.4284V10.4078L23.569 10.382V10.3407L23.5741 10.3304V10.3046V10.253L23.5792 10.2427V10.2273L23.5894 10.1602V10.1035V10.0777V10.0055L23.5945 10.0003V9.93328L23.5996 9.91781V9.9075V9.85592V9.83529V9.78372V9.75793V9.73214V9.67025V9.65478V9.58773V9.50521V9.43301V9.42269V9.38659V9.34533V9.33502V9.27313V9.25766V9.24734V9.20092V9.17514V9.16482V9.12872V9.10293V9.08746V9.07714V9.01525V8.98947V8.92758L23.5945 8.92242V8.876L23.5894 8.85537V8.82959V8.80896V8.78833V8.77285V8.7677V8.74706L23.5843 8.72644V8.7058V8.70065V8.68518L23.5792 8.66455V8.64392L23.5741 8.62329V8.60266L23.569 8.58203V8.5614V8.55108V8.53561L23.5639 8.51498V8.49435L23.5537 8.44793V8.4273L23.5487 8.40667V8.39636V8.38089V8.36025L23.5385 8.33963L23.5283 8.29837V8.27258V8.25195L23.5181 8.23132V8.21069L23.5079 8.19006L23.4977 8.1488L23.4926 8.12301V8.10238L23.4825 8.08175C23.2074 6.88522 22.6014 5.81247 21.7764 4.9718C20.6204 3.80105 19.0162 3.07385 17.249 3.07385C15.4818 3.07385 13.9795 3.75464 12.8285 4.85833C12.1461 5.51849 11.6063 6.32821 11.2651 7.23077H9.39094C8.95806 7.23077 8.52518 7.26171 8.0974 7.31329C8.53028 5.50302 9.46733 3.89389 10.7558 2.65094C12.4262 1.00055 14.7128 0 17.2235 0C19.7342 0 22.1787 1.0676 23.8848 2.79535C25.2904 4.21881 26.2529 6.09097 26.5483 8.17974V8.20037V8.21585L26.5635 8.29837V8.319V8.33963L26.5737 8.42214V8.43762V8.44793L26.5839 8.54592V8.55624V8.5614V8.57687L26.5941 8.67486V8.68002V8.70065L26.6043 8.79864V8.8038V8.9121L26.6145 8.92242V8.93273L26.6196 9.04104V9.06167V9.14935V9.16998V9.27828V9.2886V9.29891V9.40722V9.41238V9.42785V9.53616C26.6196 9.57742 26.6196 9.61868 26.6196 9.65994V9.67541V9.78372V9.89202V9.90234V9.9075C26.6196 9.9436 26.6196 9.9797 26.6196 10.0158V10.0261L26.6145 10.1344V10.1396C26.6145 10.1808 26.6145 10.2221 26.6043 10.2634V10.2737L26.5941 10.382C26.5941 10.4181 26.589 10.4542 26.5839 10.4903V10.5006V10.5161L26.5737 10.5986V10.6244L26.5635 10.7327V10.743L26.5483 10.8565L26.5381 10.9441V10.9699V10.9751V10.9957L26.5228 11.0782V11.104L26.5024 11.1969V11.2072V11.233L26.4922 11.2588C26.1408 13.1928 25.2089 14.9257 23.8899 16.2615C23.4213 16.736 22.9019 17.1589 22.3417 17.5302L22.3519 17.5405Z" fill="white"/>
<path d="M154.9 13.5848C153.764 12.4295 152.384 11.857 150.775 11.857C149.165 11.857 147.785 12.4295 146.65 13.5848C145.509 14.74 144.943 16.1326 144.943 17.7623C144.943 19.3921 145.514 20.7846 146.65 21.9399C147.79 23.0951 149.165 23.6676 150.775 23.6676C151.289 23.6676 151.783 23.6109 152.246 23.4923C152.465 23.4149 152.705 23.3736 152.949 23.3736C154.151 23.3736 155.124 24.3587 155.124 25.5759C155.124 26.53 154.528 27.3397 153.693 27.6492C152.903 27.938 151.615 28.0979 150.775 28.0979C147.948 28.0979 145.539 27.0922 143.553 25.0756C141.562 23.0642 140.569 20.6247 140.569 17.7623C140.569 14.8999 141.567 12.4604 143.553 10.449C145.539 8.43246 147.948 7.42676 150.775 7.42676C153.601 7.42676 156.005 8.43762 157.996 10.449C159.941 12.414 160.476 15.5652 159.381 17.85C158.342 20.0161 156.28 20.7176 154.054 20.7176H150.78C149.578 20.7176 148.59 19.7222 148.59 18.4998C148.59 17.2827 149.573 16.2821 150.78 16.2821H153.601C155.327 16.2718 155.852 14.5956 154.905 13.5796" fill="white"/>
<path d="M84.1263 13.5848C85.267 14.74 85.8323 16.1326 85.8323 17.7623C85.8323 19.3921 85.267 20.7846 84.1263 21.9399C82.9855 23.0951 81.6105 23.6676 80.0012 23.6676C78.3919 23.6676 77.0169 23.09 75.8761 21.9399C74.7353 20.7846 74.17 19.3921 74.17 17.7623C74.17 16.1326 74.7404 14.74 75.8761 13.5848C77.0169 12.4295 78.3919 11.857 80.0012 11.857C81.6105 11.857 82.9855 12.4295 84.1263 13.5848ZM90.207 17.7623C90.207 14.8999 89.2139 12.4604 87.2226 10.449C85.2365 8.43246 82.8276 7.42676 80.0012 7.42676C77.1747 7.42676 74.7659 8.43246 72.7797 10.449C70.7885 12.4604 69.7954 14.8999 69.7954 17.7623C69.7954 20.6247 70.7885 23.0642 72.7797 25.0756C74.7659 27.0922 77.1747 28.0979 80.0012 28.0979C82.8276 28.0979 85.2365 27.0922 87.2226 25.0756C89.2139 23.0642 90.207 20.6247 90.207 17.7623Z" fill="white"/>
<path d="M106.106 13.5848C107.247 14.74 107.812 16.1326 107.812 17.7623C107.812 19.3921 107.247 20.7846 106.106 21.9399C104.965 23.0951 103.59 23.6676 101.981 23.6676C100.372 23.6676 98.9968 23.09 97.8561 21.9399C96.7153 20.7846 96.15 19.3921 96.15 17.7623C96.15 16.1326 96.7153 14.74 97.8561 13.5848C98.9968 12.4295 100.372 11.857 101.981 11.857C103.59 11.857 104.965 12.4295 106.106 13.5848ZM112.187 17.7623C112.187 14.8999 111.189 12.4604 109.203 10.449C107.216 8.43246 104.808 7.42676 101.981 7.42676C99.1547 7.42676 96.7459 8.43246 94.7597 10.449C92.7685 12.4604 91.7754 14.8999 91.7754 17.7623C91.7754 20.6247 92.7685 23.0642 94.7597 25.0756C96.7459 27.0922 99.1547 28.0979 101.981 28.0979C104.808 28.0979 107.216 27.0922 109.203 25.0756C111.194 23.0642 112.187 20.6247 112.187 17.7623Z" fill="white"/>
<path d="M124.145 22.6V14.8329C124.145 14.0489 123.824 13.3321 123.31 12.8112C122.795 12.2902 122.087 11.9653 121.313 11.9653C120.539 11.9653 119.826 12.2902 119.312 12.8112C118.798 13.3321 118.477 14.0489 118.477 14.8329V25.8338C118.477 27.0819 117.468 28.103 116.236 28.103C115.003 28.103 113.995 27.0819 113.995 25.8338V14.8277C113.995 12.7905 114.815 10.939 116.139 9.59805C117.463 8.25711 119.292 7.42676 121.303 7.42676C123.315 7.42676 125.062 8.22101 126.375 9.50522C127.689 8.22101 129.482 7.42676 131.448 7.42676C133.414 7.42676 135.288 8.25711 136.612 9.59805C137.936 10.939 138.756 12.7905 138.756 14.8277V25.8286C138.756 27.0767 137.747 28.0979 136.515 28.0979C135.283 28.0979 134.274 27.0767 134.274 25.8286V14.8277C134.274 14.0438 133.953 13.3269 133.439 12.806C132.925 12.2851 132.217 11.9602 131.443 11.9602C130.669 11.9602 129.956 12.2851 129.441 12.806C128.927 13.3269 128.606 14.0438 128.606 14.8277V25.8286C128.606 27.0767 127.598 28.0979 126.365 28.0979C125.133 28.0979 124.125 27.0767 124.125 25.8286V22.5949L124.145 22.6Z" fill="white"/>
<path d="M65.8436 1.53174C67.0557 1.53174 68.0437 2.53229 68.0437 3.75976V25.8698C68.0437 27.0973 67.0557 28.0979 65.8436 28.0979C64.6315 28.0979 63.6436 27.0973 63.6436 25.8698V3.75976C63.6436 2.53229 64.6315 1.53174 65.8436 1.53174Z" fill="white"/>
<path d="M55.765 13.4558C56.9058 14.6111 57.4711 16.0036 57.4711 17.6334C57.4711 19.2631 56.9058 20.6556 55.765 21.8109C54.6243 22.9662 53.2492 23.5387 51.6399 23.5387C50.0306 23.5387 48.6556 22.9662 47.5148 21.8109C46.3741 20.6556 45.8088 19.2631 45.8088 17.6334C45.8088 16.0036 46.3792 14.6111 47.5148 13.4558C48.6556 12.3005 50.0306 11.7281 51.6399 11.7281C53.2492 11.7281 54.6243 12.3057 55.765 13.4558ZM61.8457 17.6334C61.8457 14.771 60.8526 12.3315 58.8614 10.3201C56.8752 8.30349 54.4664 7.29779 51.6399 7.29779C49.4399 7.29779 47.4996 7.90637 45.8088 9.12869V3.75976C45.8088 2.53229 44.8208 1.53174 43.6087 1.53174C42.3967 1.53174 41.4087 2.53229 41.4087 3.75976V17.6282C41.4087 17.7571 41.4189 17.8809 41.4393 18.0047C41.5258 20.7072 42.5189 23.0177 44.4185 24.9415C46.4046 26.9581 48.8135 27.9638 51.6399 27.9638C54.4664 27.9638 56.8752 26.9529 58.8614 24.9415C60.8526 22.9301 61.8457 20.4906 61.8457 17.6282V17.6334Z" fill="white"/>
<path d="M167.346 13.4558C166.206 14.6111 165.64 16.0036 165.64 17.6334C165.64 19.2631 166.206 20.6556 167.346 21.8109C168.487 22.9662 169.862 23.5387 171.471 23.5387C173.081 23.5387 174.461 22.9662 175.596 21.8109C176.737 20.6556 177.303 19.2631 177.303 17.6334C177.303 16.0036 176.732 14.6111 175.596 13.4558C174.456 12.3005 173.081 11.7281 171.471 11.7281C169.862 11.7281 168.487 12.3057 167.346 13.4558ZM161.266 17.6334C161.266 14.771 162.259 12.3315 164.25 10.3201C166.236 8.30349 168.645 7.29779 171.471 7.29779C173.671 7.29779 175.617 7.90637 177.308 9.12869V3.75976C177.308 2.53229 178.296 1.53174 179.508 1.53174C180.72 1.53174 181.708 2.53229 181.708 3.75976V17.6282C181.708 17.7571 181.698 17.8809 181.677 18.0047C181.591 20.7072 180.598 23.0177 178.698 24.9415C176.712 26.9581 174.303 27.9638 171.476 27.9638C168.65 27.9638 166.241 26.9529 164.255 24.9415C162.264 22.9301 161.271 20.4906 161.271 17.6282L161.266 17.6334Z" fill="white"/>
<path d="M72.8561 44.2202C72.688 44.2202 72.5454 44.1635 72.4334 44.0449C72.3214 43.9314 72.2603 43.787 72.2603 43.6168V35.7877C72.2603 35.6124 72.3163 35.468 72.4334 35.3545C72.5505 35.2411 72.688 35.1843 72.8561 35.1843H78.0201C78.1933 35.1843 78.3358 35.2359 78.4428 35.339C78.5497 35.4422 78.6007 35.5815 78.6007 35.7516C78.6007 35.9218 78.5497 36.0456 78.4428 36.1436C78.3358 36.2416 78.1933 36.2932 78.0201 36.2932H73.4519V39.104H76.7316C76.9048 39.104 77.0474 39.1556 77.1543 39.2587C77.2613 39.3619 77.3122 39.496 77.3122 39.6558C77.3122 39.8157 77.2613 39.9498 77.1543 40.053C77.0474 40.1561 76.9048 40.2077 76.7316 40.2077H73.4519V43.101H78.0201C78.1933 43.101 78.3358 43.1526 78.4428 43.2506C78.5497 43.3486 78.6007 43.4827 78.6007 43.6426C78.6007 43.8025 78.5497 43.9469 78.4428 44.0552C78.3358 44.1583 78.1933 44.2099 78.0201 44.2099H72.8561V44.2202Z" fill="white"/>
<path d="M82.2573 44.2097C82.0231 44.2097 81.8397 44.0808 81.7073 43.8281L79.2883 38.6603C79.2272 38.5314 79.2221 38.4024 79.273 38.2735C79.3239 38.1446 79.4207 38.0466 79.5633 37.9795C79.6906 37.9125 79.823 37.897 79.9554 37.9434C80.0878 37.9898 80.1897 38.0775 80.2559 38.2116L82.5171 43.1525H81.967L84.2078 38.2116C84.274 38.0827 84.381 37.9898 84.5236 37.9434C84.6662 37.897 84.8088 37.9073 84.9514 37.9795C85.0889 38.0414 85.1805 38.1394 85.2264 38.2683C85.2722 38.3973 85.262 38.5314 85.206 38.6603L82.787 43.8281C82.6749 44.0808 82.4967 44.2097 82.2624 44.2097" fill="white"/>
<path d="M89.1121 44.2665C88.4807 44.2665 87.9205 44.1273 87.4265 43.8539C86.9376 43.5806 86.5505 43.2041 86.2755 42.7193C85.9954 42.2397 85.8579 41.6826 85.8579 41.0586C85.8579 40.4345 85.9903 39.8672 86.2501 39.3876C86.5149 38.9079 86.8765 38.5263 87.3399 38.2529C87.8033 37.9796 88.3381 37.8403 88.939 37.8403C89.5399 37.8403 90.0441 37.9744 90.4719 38.2375C90.8997 38.5056 91.2256 38.8718 91.4497 39.336C91.6738 39.8053 91.7858 40.3417 91.7858 40.9503C91.7858 41.0947 91.7349 41.2185 91.6381 41.3165C91.5414 41.4145 91.414 41.4609 91.2613 41.4609H86.6575V40.5377H91.2256L90.7571 40.8626C90.7469 40.4758 90.6756 40.1302 90.5279 39.826C90.3853 39.5217 90.1765 39.2793 89.9117 39.1039C89.6469 38.9286 89.3209 38.8357 88.939 38.8357C88.5061 38.8357 88.1343 38.9337 87.8237 39.1245C87.513 39.3154 87.2839 39.5836 87.1209 39.9188C86.963 40.254 86.8815 40.6357 86.8815 41.0586C86.8815 41.4815 86.9783 41.858 87.1667 42.1932C87.3552 42.5233 87.62 42.7863 87.9561 42.9823C88.2922 43.1732 88.6742 43.2711 89.1121 43.2711C89.3464 43.2711 89.5909 43.2247 89.8353 43.137C90.0849 43.0494 90.2835 42.9462 90.4363 42.8328C90.5483 42.7502 90.6756 42.7038 90.808 42.6987C90.9404 42.6935 91.0576 42.7348 91.1543 42.8224C91.2816 42.9359 91.3529 43.0648 91.358 43.2041C91.3682 43.3433 91.3071 43.462 91.1747 43.5651C90.915 43.7714 90.5941 43.9416 90.2122 44.0757C89.8251 44.2046 89.4585 44.2717 89.1121 44.2717" fill="white"/>
<path d="M93.838 44.2202C93.6546 44.2202 93.512 44.1738 93.4153 44.0758C93.3185 43.9778 93.2676 43.8334 93.2676 43.6426V38.4748C93.2676 38.2891 93.3185 38.1447 93.4153 38.0467C93.512 37.9487 93.6546 37.8972 93.838 37.8972C94.0213 37.8972 94.169 37.9436 94.2658 38.0416C94.3625 38.1396 94.4083 38.284 94.4083 38.4748V43.6426C94.4083 43.8282 94.3625 43.9675 94.2658 44.0706C94.169 44.1686 94.0264 44.2202 93.838 44.2202ZM93.8278 40.2644C93.8278 39.8003 93.9398 39.3877 94.1639 39.0215C94.388 38.6553 94.6935 38.3613 95.0704 38.1499C95.4523 37.9333 95.8699 37.825 96.3283 37.825C96.7866 37.825 97.1278 37.9023 97.3519 38.0519C97.576 38.2014 97.6626 38.382 97.6066 38.5883C97.5862 38.6966 97.5404 38.7791 97.4741 38.8358C97.4079 38.8926 97.3367 38.9287 97.2501 38.9441C97.1686 38.9596 97.0769 38.9544 96.9751 38.9338C96.4862 38.8358 96.0482 38.8255 95.6611 38.9132C95.2741 38.9957 94.9685 39.1556 94.7394 39.3877C94.5153 39.6198 94.4032 39.9137 94.4032 40.2644H93.8227H93.8278Z" fill="white"/>
<path d="M101.284 43.9674C101.141 44.0293 101.004 44.0345 100.876 43.9829C100.749 43.9313 100.652 43.8333 100.576 43.6889L97.9582 38.6552C97.8818 38.5108 97.8716 38.3664 97.9276 38.2323C97.9837 38.0982 98.0855 38.0002 98.2281 37.9383C98.3707 37.8764 98.5082 37.8713 98.6406 37.9229C98.7679 37.9744 98.8698 38.0724 98.936 38.2168L101.437 43.2505C101.513 43.3949 101.543 43.5393 101.523 43.6734C101.503 43.8075 101.421 43.9055 101.279 43.9674M99.9291 47C99.8527 47 99.761 46.9742 99.6541 46.933C99.3179 46.7782 99.2263 46.5358 99.3791 46.2058L102.862 38.2375C103.015 37.9125 103.255 37.8197 103.581 37.959C103.922 38.1034 104.019 38.3458 103.866 38.6862L100.372 46.6441C100.28 46.8814 100.133 47.0052 99.9291 47.0052V47Z" fill="white"/>
<path d="M108.903 44.2356C108.734 44.2356 108.597 44.1789 108.485 44.0655C108.373 43.952 108.317 43.8127 108.317 43.6425V38.4851C108.317 38.3097 108.373 38.1653 108.485 38.057C108.597 37.9487 108.734 37.8971 108.903 37.8971C109.071 37.8971 109.218 37.9539 109.325 38.057C109.432 38.1653 109.483 38.3097 109.483 38.4851V43.6425C109.483 43.8127 109.432 43.952 109.325 44.0655C109.218 44.1789 109.076 44.2356 108.903 44.2356ZM113.598 44.2356C113.43 44.2356 113.292 44.1789 113.18 44.0655C113.068 43.952 113.012 43.8127 113.012 43.6425V40.7956C113.012 40.3572 112.931 39.9962 112.773 39.7177C112.615 39.4392 112.396 39.2329 112.126 39.0988C111.856 38.9647 111.546 38.8977 111.194 38.8977C110.873 38.8977 110.583 38.9647 110.329 39.0937C110.069 39.2226 109.865 39.3979 109.712 39.6197C109.56 39.8415 109.483 40.089 109.483 40.3779H108.765C108.765 39.8931 108.882 39.4598 109.111 39.0782C109.346 38.6965 109.661 38.3922 110.064 38.1705C110.466 37.9487 110.919 37.8352 111.423 37.8352C111.928 37.8352 112.422 37.9487 112.834 38.1756C113.252 38.4026 113.578 38.7378 113.817 39.1762C114.056 39.6146 114.179 40.1561 114.179 40.7956V43.6425C114.179 43.8127 114.123 43.952 114.011 44.0655C113.898 44.1789 113.761 44.2356 113.593 44.2356H113.598ZM108.903 41.9199C108.734 41.9199 108.597 41.8632 108.485 41.7497C108.373 41.6363 108.317 41.497 108.317 41.3268V35.7774C108.317 35.6021 108.373 35.4576 108.485 35.3493C108.597 35.241 108.734 35.1895 108.903 35.1895C109.071 35.1895 109.218 35.241 109.325 35.3493C109.432 35.4576 109.483 35.6021 109.483 35.7774V41.3268C109.483 41.497 109.432 41.6363 109.325 41.7497C109.218 41.8632 109.076 41.9199 108.903 41.9199Z" fill="white"/>
<path d="M118.955 43.2247C119.353 43.2247 119.699 43.1319 120.004 42.9462C120.31 42.7606 120.544 42.5078 120.717 42.1829C120.891 41.858 120.972 41.4867 120.972 41.0637C120.972 40.6408 120.885 40.2643 120.717 39.9343C120.544 39.6042 120.31 39.3515 120.004 39.1658C119.699 38.9801 119.347 38.8873 118.955 38.8873C118.563 38.8873 118.212 38.9801 117.906 39.1658C117.601 39.3515 117.361 39.6093 117.188 39.9343C117.015 40.2592 116.923 40.6357 116.923 41.0637C116.923 41.4918 117.01 41.8632 117.188 42.1829C117.361 42.5078 117.606 42.7606 117.906 42.9462C118.212 43.1319 118.563 43.2247 118.955 43.2247ZM118.955 44.2665C118.339 44.2665 117.794 44.1273 117.321 43.8539C116.847 43.5806 116.475 43.2041 116.205 42.7193C115.935 42.2397 115.798 41.6826 115.798 41.0586C115.798 40.4345 115.93 39.8672 116.205 39.3876C116.475 38.9079 116.847 38.5263 117.321 38.2529C117.794 37.9796 118.339 37.8403 118.955 37.8403C119.572 37.8403 120.106 37.9744 120.575 38.2529C121.048 38.5263 121.42 38.9028 121.69 39.3876C121.96 39.8672 122.098 40.4242 122.098 41.0586C122.098 41.693 121.965 42.2345 121.695 42.7193C121.43 43.1989 121.059 43.5806 120.59 43.8539C120.116 44.1273 119.572 44.2665 118.955 44.2665Z" fill="white"/>
<path d="M126.971 43.2247C127.358 43.2247 127.705 43.1319 128.01 42.941C128.316 42.7502 128.555 42.4923 128.733 42.1674C128.912 41.8373 129.003 41.4712 129.003 41.0637C129.003 40.6563 128.912 40.2746 128.733 39.9497C128.555 39.6196 128.311 39.3618 128.01 39.1761C127.705 38.9853 127.358 38.8924 126.971 38.8924C126.584 38.8924 126.248 38.9853 125.937 39.1761C125.627 39.3669 125.387 39.6248 125.214 39.9497C125.041 40.2746 124.95 40.6511 124.95 41.0637C124.95 41.4763 125.036 41.8425 125.214 42.1674C125.387 42.4975 125.632 42.7554 125.937 42.941C126.248 43.1319 126.589 43.2247 126.971 43.2247ZM124.415 46.9278C124.247 46.9278 124.109 46.871 123.997 46.7576C123.885 46.6441 123.829 46.5048 123.829 46.3346V41.0586C123.834 40.45 123.977 39.9033 124.252 39.4185C124.527 38.9337 124.899 38.5469 125.372 38.2684C125.846 37.9847 126.375 37.8455 126.971 37.8455C127.567 37.8455 128.112 37.9847 128.581 38.2684C129.054 38.5469 129.426 38.9337 129.706 39.4185C129.986 39.9033 130.124 40.45 130.124 41.0586C130.124 41.6671 129.996 42.2138 129.742 42.6935C129.487 43.1731 129.141 43.5548 128.698 43.8384C128.255 44.1221 127.756 44.2613 127.2 44.2613C126.752 44.2613 126.34 44.1685 125.963 43.9777C125.586 43.7869 125.265 43.5341 124.995 43.2092V46.3346C124.995 46.5048 124.944 46.6441 124.837 46.7576C124.731 46.871 124.588 46.9278 124.415 46.9278Z" fill="white"/>
<path d="M134.794 44.2665C134.162 44.2665 133.602 44.1273 133.108 43.8539C132.619 43.5806 132.232 43.2041 131.952 42.7193C131.672 42.2397 131.534 41.6826 131.534 41.0586C131.534 40.4345 131.667 39.8672 131.926 39.3876C132.191 38.9079 132.553 38.5263 133.016 38.2529C133.48 37.9796 134.014 37.8403 134.615 37.8403C135.216 37.8403 135.72 37.9744 136.148 38.2375C136.576 38.5056 136.902 38.8718 137.126 39.336C137.35 39.8053 137.462 40.3417 137.462 40.9503C137.462 41.0947 137.411 41.2185 137.314 41.3165C137.218 41.4145 137.09 41.4609 136.938 41.4609H132.334V40.5377H136.902L136.433 40.8626C136.428 40.4758 136.347 40.1302 136.204 39.826C136.062 39.5217 135.853 39.2793 135.588 39.1039C135.323 38.9286 134.997 38.8357 134.615 38.8357C134.182 38.8357 133.811 38.9337 133.5 39.1245C133.189 39.3154 132.96 39.5836 132.797 39.9188C132.639 40.254 132.558 40.6357 132.558 41.0586C132.558 41.4815 132.655 41.858 132.843 42.1932C133.031 42.5233 133.296 42.7863 133.632 42.9823C133.968 43.1732 134.35 43.2711 134.788 43.2711C135.023 43.2711 135.267 43.2247 135.512 43.137C135.761 43.0494 135.96 42.9462 136.113 42.8328C136.225 42.7502 136.352 42.7038 136.484 42.6987C136.617 42.6987 136.734 42.7348 136.831 42.8224C136.958 42.9359 137.029 43.0648 137.034 43.2041C137.039 43.3433 136.983 43.462 136.851 43.5651C136.591 43.7714 136.27 43.9416 135.883 44.0757C135.501 44.2046 135.13 44.2717 134.783 44.2717" fill="white"/>
<path d="M145.132 44.2665C144.521 44.2665 143.981 44.1273 143.502 43.8436C143.029 43.5599 142.652 43.1783 142.382 42.6986C142.112 42.219 141.975 41.6723 141.975 41.0637C141.975 40.4551 142.107 39.8827 142.372 39.3979C142.637 38.9131 143.003 38.5314 143.467 38.2581C143.93 37.9847 144.465 37.8455 145.066 37.8455C145.514 37.8455 145.927 37.9331 146.298 38.1033C146.67 38.2787 147.006 38.5366 147.302 38.8821C147.409 39.0059 147.444 39.1348 147.414 39.2638C147.383 39.3927 147.302 39.5113 147.164 39.6093C147.057 39.6867 146.94 39.7125 146.813 39.6867C146.685 39.6609 146.563 39.5938 146.456 39.4855C146.084 39.0833 145.621 38.8821 145.061 38.8821C144.674 38.8821 144.327 38.9749 144.032 39.1555C143.737 39.336 143.502 39.5887 143.334 39.9136C143.166 40.2385 143.085 40.6202 143.085 41.0586C143.085 41.4763 143.171 41.8425 143.339 42.1674C143.513 42.4923 143.747 42.7451 144.052 42.9359C144.358 43.1267 144.709 43.2195 145.117 43.2195C145.382 43.2195 145.616 43.1886 145.82 43.1216C146.023 43.0545 146.207 42.9514 146.375 42.8173C146.497 42.7193 146.624 42.6625 146.752 42.6471C146.879 42.6367 146.996 42.6729 147.093 42.7554C147.22 42.8637 147.296 42.9823 147.312 43.1216C147.327 43.2556 147.281 43.3794 147.174 43.4877C146.624 44.0035 145.942 44.2614 145.117 44.2614" fill="white"/>
<path d="M151.997 43.2247C152.394 43.2247 152.74 43.1319 153.046 42.9462C153.351 42.7606 153.591 42.5078 153.759 42.1829C153.932 41.858 154.014 41.4867 154.014 41.0637C154.014 40.6408 153.927 40.2643 153.759 39.9343C153.586 39.6042 153.351 39.3515 153.046 39.1658C152.74 38.9801 152.389 38.8873 151.997 38.8873C151.605 38.8873 151.248 38.9801 150.948 39.1658C150.642 39.3515 150.403 39.6093 150.23 39.9343C150.057 40.2592 149.965 40.6357 149.965 41.0637C149.965 41.4918 150.051 41.8632 150.23 42.1829C150.403 42.5078 150.642 42.7606 150.948 42.9462C151.253 43.1319 151.605 43.2247 151.997 43.2247ZM151.997 44.2665C151.381 44.2665 150.836 44.1273 150.362 43.8539C149.888 43.5806 149.517 43.2041 149.247 42.7193C148.977 42.2397 148.839 41.6826 148.839 41.0586C148.839 40.4345 148.977 39.8672 149.247 39.3876C149.517 38.9079 149.888 38.5263 150.362 38.2529C150.836 37.9796 151.381 37.8403 151.997 37.8403C152.613 37.8403 153.148 37.9744 153.616 38.2529C154.09 38.5263 154.462 38.9028 154.732 39.3876C155.002 39.8672 155.134 40.4242 155.134 41.0586C155.134 41.693 155.002 42.2345 154.737 42.7193C154.472 43.1989 154.1 43.5806 153.626 43.8539C153.153 44.1273 152.608 44.2665 151.992 44.2665H151.997Z" fill="white"/>
<path d="M162.019 44.2201C161.851 44.2201 161.714 44.1634 161.602 44.05C161.49 43.9365 161.434 43.7972 161.434 43.627V38.4696C161.434 38.2942 161.49 38.1498 161.602 38.0415C161.714 37.9332 161.851 37.8816 162.019 37.8816C162.187 37.8816 162.335 37.9384 162.442 38.0415C162.549 38.1498 162.6 38.2942 162.6 38.4696V43.627C162.6 43.7972 162.544 43.9365 162.442 44.05C162.335 44.1634 162.193 44.2201 162.019 44.2201ZM159.493 44.2769C158.969 44.2769 158.5 44.1634 158.083 43.9365C157.67 43.7096 157.339 43.3743 157.1 42.9359C156.861 42.4976 156.738 41.956 156.738 41.3165V38.4696C156.738 38.2994 156.794 38.1601 156.906 38.0467C157.018 37.9332 157.156 37.8765 157.324 37.8765C157.492 37.8765 157.63 37.9332 157.742 38.0467C157.854 38.1601 157.91 38.2994 157.91 38.4696V41.3165C157.91 41.7497 157.991 42.1056 158.149 42.3841C158.307 42.6678 158.526 42.874 158.801 43.0081C159.076 43.1422 159.381 43.2093 159.728 43.2093C160.074 43.2093 160.344 43.1422 160.604 43.0133C160.858 42.8844 161.062 42.7039 161.215 42.4821C161.368 42.2603 161.444 42.0076 161.444 41.7291H162.162C162.162 42.2087 162.045 42.6368 161.816 43.0236C161.581 43.4104 161.266 43.7147 160.868 43.9365C160.471 44.1583 160.013 44.2717 159.504 44.2717L159.493 44.2769Z" fill="white"/>
<path d="M165.243 44.2356C165.075 44.2356 164.937 44.1789 164.825 44.0654C164.713 43.952 164.657 43.8127 164.657 43.6425V38.485C164.657 38.3097 164.713 38.1653 164.825 38.057C164.937 37.9487 165.075 37.8971 165.243 37.8971C165.411 37.8971 165.559 37.9538 165.666 38.057C165.773 38.1653 165.823 38.3097 165.823 38.485V43.6425C165.823 43.8127 165.773 43.952 165.666 44.0654C165.559 44.1789 165.416 44.2356 165.243 44.2356ZM169.938 44.2356C169.77 44.2356 169.633 44.1789 169.521 44.0654C169.409 43.952 169.358 43.8127 169.358 43.6425V40.7956C169.358 40.3572 169.276 39.9962 169.118 39.7177C168.961 39.4392 168.742 39.2329 168.472 39.0988C168.202 38.9647 167.891 38.8976 167.54 38.8976C167.219 38.8976 166.929 38.9647 166.674 39.0936C166.414 39.2226 166.211 39.3979 166.058 39.6197C165.905 39.8415 165.829 40.089 165.829 40.3778H165.11C165.11 39.893 165.228 39.4598 165.457 39.0782C165.691 38.6965 166.007 38.3922 166.409 38.1704C166.811 37.9487 167.265 37.8352 167.769 37.8352C168.273 37.8352 168.762 37.9487 169.18 38.1756C169.592 38.4025 169.923 38.7378 170.162 39.1761C170.402 39.6145 170.524 40.1561 170.524 40.7956V43.6425C170.524 43.8127 170.468 43.952 170.356 44.0654C170.244 44.1789 170.106 44.2356 169.938 44.2356Z" fill="white"/>
<path d="M172.184 39.1195C172.026 39.1195 171.894 39.0731 171.797 38.9803C171.7 38.8874 171.649 38.774 171.649 38.6347C171.649 38.48 171.7 38.3562 171.797 38.2634C171.894 38.1705 172.026 38.1241 172.184 38.1241H174.822C174.98 38.1241 175.112 38.1705 175.209 38.2634C175.306 38.3562 175.357 38.48 175.357 38.6347C175.357 38.774 175.306 38.8874 175.209 38.9803C175.112 39.0731 174.98 39.1195 174.822 39.1195H172.184ZM174.72 44.2202C174.338 44.2202 173.997 44.1222 173.692 43.9263C173.386 43.7303 173.147 43.4621 172.974 43.1217C172.8 42.7813 172.709 42.3997 172.709 41.9767V36.4583C172.709 36.2881 172.76 36.1488 172.867 36.0405C172.974 35.9322 173.111 35.8806 173.279 35.8806C173.447 35.8806 173.585 35.9322 173.692 36.0405C173.799 36.1488 173.849 36.2881 173.849 36.4583V41.9767C173.849 42.2862 173.936 42.5441 174.099 42.7504C174.267 42.9567 174.471 43.065 174.715 43.065H175.102C175.24 43.065 175.357 43.1217 175.449 43.2248C175.545 43.3332 175.591 43.4724 175.591 43.6426C175.591 43.8128 175.53 43.9521 175.403 44.0604C175.275 44.1687 175.118 44.2202 174.919 44.2202H174.715H174.72Z" fill="white"/>
<path d="M179.304 44.2665C178.769 44.2665 178.28 44.184 177.827 44.0189C177.374 43.8539 177.022 43.6425 176.768 43.3897C176.656 43.266 176.605 43.1267 176.625 42.9668C176.645 42.8069 176.717 42.678 176.849 42.58C177.002 42.4562 177.15 42.4047 177.302 42.4253C177.45 42.4459 177.577 42.513 177.684 42.6264C177.812 42.7708 178.02 42.9101 178.306 43.039C178.591 43.168 178.907 43.2299 179.258 43.2299C179.701 43.2299 180.037 43.1577 180.266 43.0081C180.501 42.8637 180.618 42.6729 180.628 42.4408C180.638 42.2087 180.526 42.0075 180.302 41.8373C180.078 41.6671 179.665 41.5279 179.075 41.4196C178.306 41.2649 177.745 41.0328 177.399 40.7233C177.053 40.4139 176.88 40.0374 176.88 39.5887C176.88 39.1967 176.992 38.8718 177.221 38.6139C177.45 38.3561 177.74 38.1652 178.102 38.0363C178.458 37.9074 178.835 37.8455 179.222 37.8455C179.726 37.8455 180.17 37.928 180.557 38.0879C180.944 38.2477 181.254 38.4747 181.483 38.7583C181.59 38.8821 181.641 39.011 181.631 39.1451C181.626 39.2792 181.56 39.3927 181.438 39.4855C181.315 39.5681 181.173 39.599 181.005 39.5681C180.837 39.5371 180.694 39.4701 180.582 39.3618C180.394 39.1761 180.185 39.0472 179.966 38.9801C179.747 38.9131 179.492 38.877 179.202 38.877C178.866 38.877 178.586 38.9337 178.351 39.0523C178.117 39.1658 178.005 39.336 178.005 39.5629C178.005 39.7021 178.041 39.8259 178.112 39.9394C178.183 40.0529 178.326 40.1508 178.54 40.2385C178.754 40.3262 179.064 40.4139 179.477 40.4964C180.047 40.6099 180.501 40.7594 180.832 40.9348C181.163 41.1101 181.402 41.3164 181.545 41.5537C181.687 41.7909 181.764 42.0591 181.764 42.3686C181.764 42.7244 181.672 43.0442 181.483 43.3279C181.295 43.6115 181.025 43.8384 180.664 44.0086C180.302 44.1788 179.849 44.2614 179.309 44.2614" fill="white"/>
<path d="M187.656 3.28531H188.191C188.537 3.28531 188.751 3.26983 188.837 3.23889C188.924 3.20795 188.99 3.15637 189.041 3.08417C189.092 3.01196 189.112 2.91913 189.112 2.81082C189.112 2.68704 189.082 2.58905 189.016 2.51684C188.949 2.43948 188.863 2.39306 188.746 2.37759C188.685 2.36728 188.512 2.36728 188.221 2.36728H187.661V3.28531H187.656ZM190.549 1.46472C190.019 0.928344 189.286 0.598266 188.476 0.598266C187.666 0.598266 186.933 0.928344 186.403 1.46472C185.874 2.0011 185.548 2.74377 185.548 3.56381C185.548 4.38385 185.874 5.12652 186.403 5.6629C186.933 6.19928 187.666 6.52935 188.476 6.52935C189.286 6.52935 190.019 6.19928 190.549 5.6629C191.078 5.12652 191.404 4.38385 191.404 3.56381C191.404 2.74377 191.078 2.0011 190.549 1.46472ZM188.476 0C189.449 0 190.325 0.397125 190.961 1.04181C191.598 1.68649 191.99 2.57873 191.99 3.55865C191.99 4.53857 191.598 5.43081 190.961 6.0755C190.325 6.72018 189.443 7.11731 188.476 7.11731C187.508 7.11731 186.627 6.72018 185.991 6.0755C185.354 5.43081 184.962 4.53857 184.962 3.55865C184.962 2.57873 185.354 1.68649 185.991 1.04181C186.627 0.397125 187.508 0 188.476 0ZM186.928 5.36892V1.75354H188.445C188.827 1.75354 189.102 1.78448 189.275 1.85153C189.449 1.91858 189.586 2.03204 189.693 2.19708C189.795 2.36212 189.851 2.55295 189.851 2.7644C189.851 3.03775 189.775 3.25952 189.617 3.43487C189.459 3.61023 189.225 3.72369 188.914 3.77011C189.072 3.86294 189.199 3.96094 189.296 4.0744C189.398 4.18271 189.535 4.37869 189.703 4.66235L190.136 5.36892H189.275L188.761 4.57983C188.578 4.30133 188.45 4.12082 188.379 4.04861C188.313 3.97641 188.237 3.92483 188.16 3.89905C188.084 3.87326 187.962 3.85779 187.793 3.85779H187.646V5.36892H186.923H186.928Z" fill="white"/>
</g>
<defs>
<clipPath id="clip0_11472_372">
<rect width="192" height="47" fill="white"/>
</clipPath>
</defs>
</svg>
