<svg width="250" height="60" viewBox="0 0 250 60" fill="none" xmlns="http://www.w3.org/2000/svg">
<g clip-path="url(#clip0_11240_4304)">
<path d="M9.15758 34.1315C7.01573 33.585 5.09933 32.4657 3.58081 30.958C1.37264 28.7655 0 25.7369 0 22.4054C0 19.0739 1.37264 16.0452 3.58081 13.8527C5.36458 12.0816 7.69873 10.8504 10.2915 10.4422H10.318H10.3446L10.3711 10.4356H10.3976L10.444 10.4225H10.5103V10.4159H10.5369L10.5634 10.4093H10.5899L10.6164 10.4027H10.643H10.6695L10.696 10.3961H10.7225L10.7491 10.3896H10.7756L10.8021 10.383H10.8883V10.3764H10.9016H10.9148L11.0342 10.3632H11.0541H11.0673H11.0939H11.1204H11.1867L11.2066 10.3566H11.2331L11.3193 10.35H11.3459H11.3724L11.4851 10.3435H11.4917H11.5116H11.631H11.6443H11.6641H11.8034H11.8167C11.8631 10.3435 11.9095 10.3435 11.9559 10.3435H12.1217H14.2304H29.3494C29.5151 10.9492 29.6013 11.5813 29.6013 12.2265C29.6013 12.9178 29.5019 13.596 29.3096 14.2412H12.1018H12.0952H12.009H11.9891H11.9758H11.8896H11.8763H11.7901H11.7835H11.7769H11.6907H11.684H11.5978H11.5779H11.5647H11.4785V14.2478L11.3989 14.2544H11.3856H11.3591H11.326H11.2928H11.2795H11.2596L11.1933 14.2675H11.1734H11.1602H11.0939L11.0673 14.2807H11.0342H10.9745V14.2873H10.948H10.9148L10.8817 14.3005H10.8485L10.8154 14.3136H10.7822L10.7623 14.3202H10.7491L10.7159 14.3268H10.6827L10.6761 14.3334H10.6562L10.6231 14.3465H10.5899L10.5567 14.3597H10.5302L10.4705 14.3729H10.4573L10.4374 14.3795L10.3777 14.3926H10.3578L10.3446 14.3992H10.3114L10.2782 14.4124H10.2517V14.419H10.2186L10.1854 14.4321C8.71993 14.8008 7.40696 15.5646 6.37251 16.5917C4.87388 18.0797 3.93889 20.1339 3.93889 22.3856C3.93889 24.6373 4.86724 26.6915 6.37251 28.1861C7.14172 28.9499 8.06345 29.5687 9.09127 29.9901V33.2558H9.10453C9.11779 33.5455 9.14432 33.8352 9.17747 34.1183M14.3299 34.5002C14.6879 36.0277 15.477 37.3971 16.5579 38.4703C18.0632 39.9649 20.152 40.8932 22.453 40.8932C24.754 40.8932 26.8428 39.9649 28.3481 38.4703C29.1637 37.6605 29.8135 36.6795 30.2379 35.5865H32.6848C33.2551 35.5865 33.8187 35.5536 34.3757 35.4812C33.8386 37.6934 32.6914 39.6752 31.1265 41.2356C28.9051 43.4412 25.8415 44.8041 22.453 44.8041C19.0645 44.8041 16.0009 43.4412 13.7795 41.2356C11.9493 39.4184 10.696 37.0284 10.3114 34.3619V34.3356V34.3158L10.2981 34.2368V34.2105V34.1841V34.1578L10.2849 34.0525V34.0327V34.0195L10.2716 33.9142V33.8879V33.8681V33.8352V33.7364L10.2583 33.7298V33.7035L10.2451 33.5784V33.5718V33.4336L10.2318 33.4204V33.4072L10.2252 33.269V33.2426V33.1307V33.1044V32.9661V32.9529V32.9398V32.8015V32.7949V32.6369H10.2318V32.1892H10.2252V22.4119H10.2318V15.5777C10.8817 15.3868 11.5647 15.2881 12.2543 15.2881H14.1442V22.4185H14.1508V32.1958H14.1442V32.6435H14.1508V32.7357V32.7488V32.762V32.7949V32.8476V32.8542V32.9332V32.9529V32.9661V33.0517V33.0714V33.1175V33.1504V33.1702V33.1834L14.1574 33.2755V33.3019V33.3809L14.1641 33.3875V33.4731H14.1707V33.5521L14.184 33.5718V33.6113V33.6377L14.1906 33.664V33.6903V33.7167L14.1972 33.743V33.7693V33.7957L14.2105 33.8549V33.8681V33.8879V33.9471L14.2238 33.9734V34.0064V34.0327L14.237 34.059V34.0722V34.092L14.2503 34.1512V34.1776V34.2039L14.2635 34.2302V34.2566L14.2702 34.2697V34.2829L14.2768 34.3092V34.3356L14.2901 34.3619V34.3882L14.3033 34.4146V34.4409L14.3166 34.4672L14.3299 34.5002ZM44.8794 22.3922C44.8794 25.7237 43.5068 28.7523 41.2986 30.9448C39.5149 32.7159 37.1873 33.9405 34.5879 34.3487H34.5614L34.5017 34.3619H34.4752L34.4487 34.3685H34.4222L34.3625 34.3817H34.336L34.3094 34.3882H34.2829L34.2564 34.3948H34.2299L34.2033 34.4014H34.1768L34.1503 34.408H34.1238L34.0972 34.4146H34.0707H34.0442H33.9911L33.958 34.4212H33.9315L33.8453 34.4343H33.8254L33.706 34.4475H33.6795H33.653H33.6264H33.5667H33.5336H33.5203L33.3877 34.4541H33.3744H33.3545H33.2352H33.2219H33.2087H33.0893H33.0694H32.9169H32.9103H32.7511H30.6358H15.4373C15.2715 33.8484 15.1853 33.2163 15.1853 32.5711V30.5563H32.7511H32.771H32.8705H32.8771H32.9832H33.0694H33.0827H33.0959H33.1556H33.1821H33.2683H33.2882H33.2949H33.3811L33.3943 30.5498H33.4142H33.4408H33.4673H33.4739H33.5137H33.5203H33.5469H33.5734H33.5933H33.6065H33.6331L33.6596 30.5432H33.6861L33.7126 30.5366H33.7392L33.7657 30.53H33.7922L33.8187 30.5234H33.8453L33.8718 30.5168H33.8983L33.9248 30.5103H33.9514H34.0044V30.5037H34.0309L34.0574 30.4971L34.1105 30.4839H34.137L34.1901 30.4708H34.2166L34.2431 30.4576L34.2962 30.4444H34.3227H34.3492L34.3757 30.4313H34.4023L34.4288 30.4181C35.9738 30.0691 37.3531 29.2856 38.4406 28.2059C39.9393 26.7179 40.8742 24.6637 40.8742 22.4119C40.8742 20.1602 39.9459 18.106 38.4406 16.6114C37.6051 15.7819 36.5972 15.13 35.4831 14.7152C35.6423 13.8857 35.7285 13.0363 35.7285 12.1804C35.7285 11.6734 35.702 11.173 35.6423 10.6792C37.7841 11.2257 39.7005 12.345 41.2191 13.8527C43.4272 16.0452 44.7999 19.0739 44.7999 22.4054L44.8794 22.3922ZM34.6874 12.9507C34.6874 13.0034 34.6874 13.0495 34.6741 13.1022L34.6874 12.9507ZM29.104 22.3922C29.8334 22.8597 30.5098 23.3995 31.1199 24.0119C32.592 25.4735 33.6861 27.2973 34.263 29.3449C33.7524 29.4634 33.2219 29.5227 32.6782 29.5227H30.1782C29.7538 28.4824 29.1239 27.5475 28.3414 26.7705C26.8362 25.276 24.7474 24.3476 22.4464 24.3476C21.392 24.3476 20.5366 23.4456 20.5366 22.3988C20.5366 21.3519 21.392 20.4499 22.4464 20.4499C24.7474 20.4499 26.8362 19.5216 28.3414 18.027C29.3891 16.9867 30.165 15.6699 30.5363 14.1885V14.1556L30.5496 14.1227V14.0898L30.5628 14.0568V14.0239V13.991L30.5761 13.9581V13.9252H30.5827V13.8988L30.596 13.8659V13.833L30.6026 13.8198V13.8001L30.6159 13.7671V13.7342L30.6292 13.7013V13.6684L30.6424 13.6355V13.6025V13.5894L30.6557 13.5367V13.5038L30.6623 13.4972V13.4775L30.6689 13.4445V13.4116L30.6756 13.3919V13.3787L30.6822 13.3458V13.3128V13.2865L30.6888 13.2536V13.2009L30.6955 13.1878V13.1548V13.089L30.7021 13.0758V13.0561L30.7154 12.9705V12.8981V12.8651V12.773L30.722 12.7664V12.6808L30.7286 12.661V12.6479V12.582V12.5557V12.4899V12.4569V12.424V12.345V12.3252V12.2397V12.1343V12.0421V12.029V11.9829V11.9302V11.917V11.838V11.8183V11.8051V11.7459V11.7129V11.6998V11.6537V11.6208V11.601V11.5878V11.5088V11.4759V11.3969L30.722 11.3903V11.3311L30.7154 11.3047V11.2718V11.2455V11.2191V11.1994V11.1928V11.1665L30.7087 11.1401V11.1138V11.1072V11.0875L30.7021 11.0611V11.0348L30.6955 11.0084V10.9821L30.6888 10.9558V10.9294V10.9163V10.8965L30.6822 10.8702V10.8438L30.6689 10.7846V10.7583L30.6623 10.7319V10.7188V10.699V10.6727L30.6491 10.6463L30.6358 10.5937V10.5607V10.5344L30.6225 10.5081V10.4817L30.6093 10.4554L30.596 10.4027L30.5894 10.3698V10.3435L30.5761 10.3171C30.218 8.78964 29.4289 7.42017 28.3547 6.34698C26.8494 4.85241 24.7606 3.92406 22.4596 3.92406C20.1586 3.92406 18.2024 4.79315 16.7038 6.20213C15.8152 7.04488 15.1123 8.07857 14.668 9.23077H12.2278C11.6641 9.23077 11.1005 9.27027 10.5435 9.33611C11.1071 7.02513 12.3273 4.97092 14.0049 3.38418C16.1799 1.2773 19.1573 0 22.4265 0C25.6956 0 28.8785 1.36289 31.1 3.56853C32.9302 5.38571 34.1834 7.7757 34.568 10.4422V10.4686V10.4883L34.5879 10.5937V10.62V10.6463L34.6012 10.7517V10.7714V10.7846L34.6145 10.9097V10.9229V10.9294V10.9492L34.6277 11.0743V11.0809V11.1072L34.641 11.2323V11.2389V11.3772L34.6543 11.3903V11.4035L34.6609 11.5418V11.5681V11.68V11.7064V11.8446V11.8578V11.871V12.0092V12.0158V12.0356V12.1738C34.6609 12.2265 34.6609 12.2792 34.6609 12.3318V12.3516V12.4899V12.6281V12.6413V12.6479C34.6609 12.694 34.6609 12.74 34.6609 12.7861V12.7993L34.6543 12.9376V12.9441C34.6543 12.9968 34.6543 13.0495 34.641 13.1022V13.1153L34.6277 13.2536C34.6277 13.2997 34.6211 13.3458 34.6145 13.3919V13.405V13.4248L34.6012 13.5301V13.563L34.5879 13.7013V13.7145L34.568 13.8593L34.5548 13.9713V14.0042V14.0108V14.0371L34.5349 14.1424V14.1754L34.5084 14.2939V14.307V14.34L34.4951 14.3729C34.0376 16.8419 32.8241 19.0541 31.1066 20.7594C30.4965 21.3651 29.8202 21.905 29.0907 22.379L29.104 22.3922Z" fill="#33BCAE"/>
<path d="M201.692 17.3423C200.213 15.8674 198.416 15.1366 196.321 15.1366C194.226 15.1366 192.429 15.8674 190.95 17.3423C189.464 18.8171 188.728 20.5948 188.728 22.6753C188.728 24.7558 189.471 26.5335 190.95 28.0083C192.435 29.4832 194.226 30.214 196.321 30.214C196.991 30.214 197.634 30.1416 198.237 29.9901C198.523 29.8914 198.834 29.8387 199.152 29.8387C200.717 29.8387 201.984 31.0962 201.984 32.6501C201.984 33.8681 201.208 34.9018 200.121 35.2968C199.093 35.6655 197.415 35.8696 196.321 35.8696C192.641 35.8696 189.504 34.5858 186.918 32.0114C184.325 29.4437 183.032 26.3294 183.032 22.6753C183.032 19.0212 184.332 15.9069 186.918 13.3392C189.504 10.7648 192.641 9.48096 196.321 9.48096C200.001 9.48096 203.131 10.7714 205.724 13.3392C208.257 15.8477 208.953 19.8705 207.528 22.7872C206.175 25.5525 203.489 26.4479 200.591 26.4479H196.328C194.763 26.4479 193.476 25.1772 193.476 23.6168C193.476 22.063 194.756 20.7857 196.328 20.7857H200.001C202.249 20.7725 202.932 18.6327 201.699 17.3357" fill="#33BCAE"/>
<path d="M109.539 17.3423C111.025 18.8171 111.761 20.5948 111.761 22.6753C111.761 24.7558 111.025 26.5335 109.539 28.0083C108.054 29.4832 106.264 30.214 104.168 30.214C102.073 30.214 100.282 29.4766 98.797 28.0083C97.3116 26.5335 96.5755 24.7558 96.5755 22.6753C96.5755 20.5948 97.3182 18.8171 98.797 17.3423C100.282 15.8674 102.073 15.1366 104.168 15.1366C106.264 15.1366 108.054 15.8674 109.539 17.3423ZM117.457 22.6753C117.457 19.0212 116.164 15.9069 113.571 13.3392C110.985 10.7648 107.848 9.48096 104.168 9.48096C100.488 9.48096 97.3514 10.7648 94.7652 13.3392C92.1725 15.9069 90.8794 19.0212 90.8794 22.6753C90.8794 26.3294 92.1725 29.4437 94.7652 32.0114C97.3514 34.5858 100.488 35.8696 104.168 35.8696C107.848 35.8696 110.985 34.5858 113.571 32.0114C116.164 29.4437 117.457 26.3294 117.457 22.6753Z" fill="#33BCAE"/>
<path d="M138.159 17.3423C139.645 18.8171 140.381 20.5948 140.381 22.6753C140.381 24.7558 139.645 26.5335 138.159 28.0083C136.674 29.4832 134.884 30.214 132.788 30.214C130.693 30.214 128.902 29.4766 127.417 28.0083C125.932 26.5335 125.196 24.7558 125.196 22.6753C125.196 20.5948 125.932 18.8171 127.417 17.3423C128.902 15.8674 130.693 15.1366 132.788 15.1366C134.884 15.1366 136.674 15.8674 138.159 17.3423ZM146.077 22.6753C146.077 19.0212 144.777 15.9069 142.191 13.3392C139.605 10.7648 136.469 9.48096 132.788 9.48096C129.108 9.48096 125.971 10.7648 123.385 13.3392C120.793 15.9069 119.5 19.0212 119.5 22.6753C119.5 26.3294 120.793 29.4437 123.385 32.0114C125.971 34.5858 129.108 35.8696 132.788 35.8696C136.469 35.8696 139.605 34.5858 142.191 32.0114C144.784 29.4437 146.077 26.3294 146.077 22.6753Z" fill="#33BCAE"/>
<path d="M161.647 28.8511V18.9356C161.647 17.9348 161.229 17.0196 160.559 16.3547C159.89 15.6897 158.968 15.2749 157.96 15.2749C156.952 15.2749 156.024 15.6897 155.354 16.3547C154.684 17.0196 154.267 17.9348 154.267 18.9356V32.9793C154.267 34.5726 152.954 35.8762 151.349 35.8762C149.744 35.8762 148.431 34.5726 148.431 32.9793V18.929C148.431 16.3283 149.499 13.9647 151.223 12.2528C152.947 10.541 155.328 9.48096 157.947 9.48096C160.566 9.48096 162.841 10.4949 164.551 12.1343C166.262 10.4949 168.596 9.48096 171.156 9.48096C173.716 9.48096 176.156 10.541 177.88 12.2528C179.604 13.9647 180.672 16.3283 180.672 18.929V32.9727C180.672 34.566 179.359 35.8696 177.754 35.8696C176.149 35.8696 174.836 34.566 174.836 32.9727V18.929C174.836 17.9282 174.419 17.0131 173.749 16.3481C173.079 15.6831 172.157 15.2683 171.149 15.2683C170.141 15.2683 169.213 15.6831 168.543 16.3481C167.874 17.0131 167.456 17.9282 167.456 18.929V32.9727C167.456 34.566 166.143 35.8696 164.538 35.8696C162.933 35.8696 161.62 34.566 161.62 32.9727V28.8445L161.647 28.8511Z" fill="#33BCAE"/>
<path d="M85.7338 1.95545C87.312 1.95545 88.5984 3.23274 88.5984 4.79974V33.0253C88.5984 34.5923 87.312 35.8696 85.7338 35.8696C84.1556 35.8696 82.8691 34.5923 82.8691 33.0253V4.79974C82.8691 3.23274 84.1556 1.95545 85.7338 1.95545Z" fill="#33BCAE"/>
<path d="M72.6106 17.1777C74.096 18.6525 74.832 20.4302 74.832 22.5107C74.832 24.5912 74.096 26.3689 72.6106 27.8437C71.1252 29.3186 69.3348 30.0494 67.2394 30.0494C65.144 30.0494 63.3536 29.3186 61.8682 27.8437C60.3828 26.3689 59.6468 24.5912 59.6468 22.5107C59.6468 20.4302 60.3895 18.6525 61.8682 17.1777C63.3536 15.7028 65.144 14.972 67.2394 14.972C69.3348 14.972 71.1252 15.7094 72.6106 17.1777ZM80.5282 22.5107C80.5282 18.8566 79.2351 15.7423 76.6423 13.1746C74.0562 10.6002 70.9197 9.31636 67.2394 9.31636C64.3748 9.31636 61.8483 10.0933 59.6468 11.6537V4.79974C59.6468 3.23274 58.3603 1.95545 56.7821 1.95545C55.2039 1.95545 53.9175 3.23274 53.9175 4.79974V22.5041C53.9175 22.6687 53.9307 22.8267 53.9573 22.9848C54.07 26.4348 55.3631 29.3844 57.8365 31.8402C60.4226 34.4146 63.5591 35.6985 67.2394 35.6985C70.9197 35.6985 74.0562 34.408 76.6423 31.8402C79.2351 29.2725 80.5282 26.1582 80.5282 22.5041V22.5107Z" fill="#33BCAE"/>
<path d="M217.899 17.1777C216.413 18.6525 215.677 20.4302 215.677 22.5107C215.677 24.5912 216.413 26.3689 217.899 27.8437C219.384 29.3186 221.174 30.0494 223.27 30.0494C225.365 30.0494 227.162 29.3186 228.641 27.8437C230.126 26.3689 230.862 24.5912 230.862 22.5107C230.862 20.4302 230.12 18.6525 228.641 17.1777C227.156 15.7028 225.365 14.972 223.27 14.972C221.174 14.972 219.384 15.7094 217.899 17.1777ZM209.981 22.5107C209.981 18.8566 211.274 15.7423 213.867 13.1746C216.453 10.6002 219.589 9.31636 223.27 9.31636C226.134 9.31636 228.667 10.0933 230.869 11.6537V4.79974C230.869 3.23274 232.155 1.95545 233.734 1.95545C235.312 1.95545 236.598 3.23274 236.598 4.79974V22.5041C236.598 22.6687 236.585 22.8267 236.558 22.9848C236.446 26.4348 235.153 29.3844 232.679 31.8402C230.093 34.4146 226.957 35.6985 223.276 35.6985C219.596 35.6985 216.46 34.408 213.873 31.8402C211.281 29.2725 209.988 26.1582 209.988 22.5041L209.981 22.5107Z" fill="#33BCAE"/>
<path d="M94.8647 56.4512C94.6459 56.4512 94.4602 56.3788 94.3143 56.2274C94.1684 56.0825 94.0889 55.8982 94.0889 55.6809V45.6864C94.0889 45.4625 94.1618 45.2782 94.3143 45.1333C94.4668 44.9885 94.6459 44.9161 94.8647 44.9161H101.589C101.814 44.9161 102 44.9819 102.139 45.1136C102.278 45.2453 102.345 45.423 102.345 45.6403C102.345 45.8576 102.278 46.0156 102.139 46.1407C102 46.2658 101.814 46.3316 101.589 46.3316H95.6405V49.9199H99.911C100.136 49.9199 100.322 49.9857 100.461 50.1174C100.601 50.2491 100.667 50.4203 100.667 50.6244C100.667 50.8285 100.601 50.9997 100.461 51.1314C100.322 51.263 100.136 51.3289 99.911 51.3289H95.6405V55.0225H101.589C101.814 55.0225 102 55.0883 102.139 55.2134C102.278 55.3385 102.345 55.5097 102.345 55.7138C102.345 55.9179 102.278 56.1023 102.139 56.2405C102 56.3722 101.814 56.4381 101.589 56.4381H94.8647V56.4512Z" fill="#33BCAE"/>
<path d="M107.106 56.4381C106.801 56.4381 106.562 56.2735 106.39 55.9508L103.24 49.3537C103.16 49.1891 103.154 49.0245 103.22 48.8599C103.286 48.6953 103.412 48.5702 103.598 48.4846C103.764 48.399 103.936 48.3792 104.109 48.4385C104.281 48.4978 104.414 48.6097 104.5 48.7809L107.444 55.0883H106.728L109.646 48.7809C109.732 48.6163 109.871 48.4978 110.057 48.4385C110.242 48.3792 110.428 48.3924 110.614 48.4846C110.793 48.5636 110.912 48.6887 110.972 48.8533C111.031 49.0179 111.018 49.1891 110.945 49.3537L107.795 55.9508C107.65 56.2735 107.418 56.4381 107.112 56.4381" fill="#33BCAE"/>
<path d="M116.031 56.5105C115.209 56.5105 114.48 56.3327 113.836 55.9838C113.2 55.6348 112.696 55.1542 112.338 54.5353C111.973 53.923 111.794 53.2119 111.794 52.4152C111.794 51.6186 111.966 50.8943 112.305 50.282C112.649 49.6697 113.12 49.1825 113.724 48.8335C114.327 48.4846 115.023 48.3068 115.806 48.3068C116.588 48.3068 117.245 48.478 117.802 48.8138C118.359 49.1562 118.783 49.6236 119.075 50.2162C119.367 50.8153 119.513 51.5001 119.513 52.277C119.513 52.4613 119.446 52.6193 119.32 52.7444C119.194 52.8695 119.029 52.9288 118.83 52.9288H112.835V51.7502H118.783L118.173 52.165C118.16 51.6712 118.067 51.2301 117.875 50.8417C117.689 50.4532 117.417 50.1438 117.072 49.9199C116.728 49.696 116.303 49.5775 115.806 49.5775C115.242 49.5775 114.758 49.7026 114.354 49.9462C113.949 50.1898 113.651 50.5322 113.438 50.9602C113.233 51.3881 113.127 51.8753 113.127 52.4152C113.127 52.9551 113.253 53.4358 113.498 53.8637C113.744 54.2851 114.088 54.6209 114.526 54.8711C114.964 55.1147 115.461 55.2398 116.031 55.2398C116.336 55.2398 116.655 55.1805 116.973 55.0686C117.298 54.9567 117.556 54.825 117.755 54.6801C117.901 54.5748 118.067 54.5155 118.239 54.5089C118.412 54.5024 118.564 54.555 118.69 54.667C118.856 54.8118 118.949 54.9764 118.956 55.1542C118.969 55.3319 118.889 55.4834 118.717 55.6151C118.379 55.8784 117.961 56.0957 117.464 56.2669C116.96 56.4315 116.482 56.5171 116.031 56.5171" fill="#33BCAE"/>
<path d="M122.185 56.4512C121.946 56.4512 121.761 56.392 121.635 56.2669C121.509 56.1418 121.442 55.9574 121.442 55.7138V49.1166C121.442 48.8796 121.509 48.6953 121.635 48.5702C121.761 48.4451 121.946 48.3792 122.185 48.3792C122.424 48.3792 122.616 48.4385 122.742 48.5636C122.868 48.6887 122.928 48.873 122.928 49.1166V55.7138C122.928 55.9508 122.868 56.1286 122.742 56.2603C122.616 56.3854 122.43 56.4512 122.185 56.4512ZM122.172 51.4013C122.172 50.8087 122.318 50.282 122.609 49.8146C122.901 49.3471 123.299 48.9718 123.79 48.7019C124.287 48.4253 124.831 48.2871 125.428 48.2871C126.024 48.2871 126.469 48.3858 126.761 48.5768C127.052 48.7677 127.165 48.9981 127.092 49.2615C127.066 49.3998 127.006 49.5051 126.92 49.5775C126.833 49.65 126.741 49.696 126.628 49.7158C126.522 49.7355 126.402 49.729 126.27 49.7026C125.633 49.5775 125.063 49.5644 124.559 49.6763C124.055 49.7816 123.657 49.9857 123.359 50.282C123.067 50.5783 122.921 50.9536 122.921 51.4013H122.165H122.172Z" fill="#33BCAE"/>
<path d="M131.88 56.1286C131.694 56.2076 131.515 56.2142 131.349 56.1484C131.183 56.0825 131.057 55.9574 130.958 55.7731L127.549 49.3471C127.45 49.1627 127.437 48.9784 127.51 48.8072C127.583 48.636 127.715 48.5109 127.901 48.4319C128.087 48.3529 128.266 48.3463 128.438 48.4122C128.604 48.478 128.736 48.6031 128.823 48.7874L132.079 55.2134C132.178 55.3978 132.218 55.5821 132.191 55.7533C132.165 55.9245 132.059 56.0496 131.873 56.1286M130.116 60C130.016 60 129.897 59.9671 129.758 59.9144C129.32 59.7169 129.201 59.4074 129.4 58.9861L133.935 48.8138C134.134 48.399 134.446 48.2805 134.87 48.4582C135.315 48.6426 135.44 48.952 135.242 49.3866L130.693 59.5457C130.573 59.8486 130.381 60.0066 130.116 60.0066V60Z" fill="#33BCAE"/>
<path d="M141.8 56.471C141.581 56.471 141.402 56.3986 141.256 56.2537C141.111 56.1089 141.038 55.9311 141.038 55.7138V49.1298C141.038 48.906 141.111 48.7216 141.256 48.5833C141.402 48.4451 141.581 48.3792 141.8 48.3792C142.019 48.3792 142.211 48.4517 142.351 48.5833C142.49 48.7216 142.556 48.906 142.556 49.1298V55.7138C142.556 55.9311 142.49 56.1089 142.351 56.2537C142.211 56.3986 142.026 56.471 141.8 56.471ZM147.914 56.471C147.695 56.471 147.516 56.3986 147.37 56.2537C147.224 56.1089 147.151 55.9311 147.151 55.7138V52.0794C147.151 51.5198 147.045 51.0589 146.84 50.7034C146.634 50.3479 146.349 50.0845 145.998 49.9133C145.646 49.7421 145.242 49.6565 144.784 49.6565C144.366 49.6565 143.988 49.7421 143.657 49.9067C143.319 50.0713 143.053 50.2952 142.855 50.5783C142.656 50.8614 142.556 51.1774 142.556 51.5461H141.621C141.621 50.9272 141.774 50.3742 142.072 49.887C142.377 49.3998 142.788 49.0113 143.312 48.7282C143.836 48.4451 144.426 48.3002 145.083 48.3002C145.739 48.3002 146.382 48.4451 146.919 48.7348C147.463 49.0245 147.888 49.4524 148.199 50.0121C148.511 50.5717 148.67 51.263 148.67 52.0794V55.7138C148.67 55.9311 148.597 56.1089 148.451 56.2537C148.305 56.3986 148.126 56.471 147.907 56.471H147.914ZM141.8 53.5148C141.581 53.5148 141.402 53.4423 141.256 53.2975C141.111 53.1526 141.038 52.9749 141.038 52.7576V45.6732C141.038 45.4494 141.111 45.265 141.256 45.1267C141.402 44.9885 141.581 44.9226 141.8 44.9226C142.019 44.9226 142.211 44.9885 142.351 45.1267C142.49 45.265 142.556 45.4494 142.556 45.6732V52.7576C142.556 52.9749 142.49 53.1526 142.351 53.2975C142.211 53.4423 142.026 53.5148 141.8 53.5148Z" fill="#33BCAE"/>
<path d="M154.89 55.1805C155.407 55.1805 155.858 55.062 156.256 54.825C156.653 54.5879 156.959 54.2653 157.184 53.8505C157.409 53.4358 157.516 52.9617 157.516 52.4218C157.516 51.8819 157.403 51.4013 157.184 50.9799C156.959 50.5585 156.653 50.2359 156.256 49.9989C155.858 49.7619 155.4 49.6434 154.89 49.6434C154.379 49.6434 153.921 49.7619 153.524 49.9989C153.126 50.2359 152.814 50.5651 152.589 50.9799C152.363 51.3947 152.244 51.8753 152.244 52.4218C152.244 52.9683 152.357 53.4423 152.589 53.8505C152.814 54.2653 153.132 54.5879 153.524 54.825C153.921 55.062 154.379 55.1805 154.89 55.1805ZM154.89 56.5105C154.087 56.5105 153.378 56.3327 152.761 55.9838C152.144 55.6348 151.66 55.1542 151.309 54.5353C150.957 53.923 150.778 53.2119 150.778 52.4152C150.778 51.6186 150.951 50.8943 151.309 50.282C151.66 49.6697 152.144 49.1825 152.761 48.8335C153.378 48.4846 154.087 48.3068 154.89 48.3068C155.692 48.3068 156.388 48.478 156.998 48.8335C157.615 49.1825 158.099 49.6631 158.451 50.282C158.802 50.8943 158.981 51.6054 158.981 52.4152C158.981 53.2251 158.809 53.9164 158.457 54.5353C158.112 55.1476 157.628 55.6348 157.018 55.9838C156.402 56.3327 155.692 56.5105 154.89 56.5105Z" fill="#33BCAE"/>
<path d="M165.327 55.1805C165.831 55.1805 166.282 55.062 166.68 54.8184C167.078 54.5748 167.39 54.2456 167.622 53.8308C167.854 53.4094 167.973 52.942 167.973 52.4218C167.973 51.9017 167.854 51.4145 167.622 50.9997C167.39 50.5783 167.071 50.2491 166.68 50.0121C166.282 49.7685 165.831 49.65 165.327 49.65C164.823 49.65 164.386 49.7685 163.981 50.0121C163.577 50.2557 163.265 50.5849 163.04 50.9997C162.814 51.4145 162.695 51.8951 162.695 52.4218C162.695 52.9485 162.807 53.416 163.04 53.8308C163.265 54.2522 163.583 54.5814 163.981 54.8184C164.386 55.062 164.83 55.1805 165.327 55.1805ZM161.998 59.9078C161.78 59.9078 161.601 59.8354 161.455 59.6906C161.309 59.5457 161.236 59.3679 161.236 59.1507V52.4152C161.242 51.6383 161.428 50.9404 161.786 50.3215C162.144 49.7026 162.628 49.2088 163.245 48.8533C163.862 48.4912 164.551 48.3134 165.327 48.3134C166.103 48.3134 166.813 48.4912 167.423 48.8533C168.039 49.2088 168.523 49.7026 168.888 50.3215C169.253 50.9404 169.432 51.6383 169.432 52.4152C169.432 53.1921 169.266 53.8901 168.935 54.5024C168.603 55.1147 168.152 55.6019 167.575 55.964C166.998 56.3261 166.348 56.5039 165.626 56.5039C165.042 56.5039 164.505 56.3854 164.014 56.1418C163.524 55.8982 163.106 55.5756 162.754 55.1608V59.1507C162.754 59.3679 162.688 59.5457 162.549 59.6906C162.41 59.8354 162.224 59.9078 161.998 59.9078Z" fill="#33BCAE"/>
<path d="M175.512 56.5105C174.69 56.5105 173.961 56.3327 173.318 55.9838C172.681 55.6348 172.177 55.1542 171.812 54.5353C171.448 53.923 171.269 53.2119 171.269 52.4152C171.269 51.6186 171.441 50.8943 171.779 50.282C172.124 49.6697 172.595 49.1825 173.198 48.8335C173.802 48.4846 174.498 48.3068 175.28 48.3068C176.063 48.3068 176.719 48.478 177.276 48.8138C177.833 49.1562 178.258 49.6236 178.55 50.2162C178.841 50.8153 178.987 51.5001 178.987 52.277C178.987 52.4613 178.921 52.6193 178.795 52.7444C178.669 52.8695 178.503 52.9288 178.304 52.9288H172.31V51.7502H178.258L177.648 52.165C177.641 51.6712 177.535 51.2301 177.349 50.8417C177.164 50.4532 176.892 50.1438 176.547 49.9199C176.202 49.696 175.778 49.5775 175.28 49.5775C174.717 49.5775 174.233 49.7026 173.828 49.9462C173.424 50.1898 173.125 50.5322 172.913 50.9602C172.708 51.3881 172.601 51.8753 172.601 52.4152C172.601 52.9551 172.727 53.4358 172.973 53.8637C173.218 54.2851 173.563 54.6209 174.001 54.8711C174.438 55.1147 174.936 55.2398 175.506 55.2398C175.811 55.2398 176.129 55.1805 176.447 55.0686C176.772 54.9567 177.031 54.825 177.23 54.6801C177.376 54.5748 177.542 54.5155 177.714 54.5089C177.886 54.5089 178.039 54.555 178.165 54.667C178.331 54.8118 178.424 54.9764 178.43 55.1542C178.437 55.3319 178.364 55.4834 178.191 55.6151C177.853 55.8784 177.436 56.0957 176.932 56.2669C176.434 56.4315 175.95 56.5171 175.499 56.5171" fill="#33BCAE"/>
<path d="M188.974 56.5105C188.178 56.5105 187.475 56.3327 186.852 55.9706C186.235 55.6085 185.744 55.1213 185.393 54.5089C185.041 53.8966 184.862 53.1987 184.862 52.4218C184.862 51.6449 185.035 50.9141 185.38 50.2952C185.724 49.6763 186.202 49.1891 186.805 48.8401C187.409 48.4912 188.105 48.3134 188.887 48.3134C189.471 48.3134 190.008 48.4253 190.492 48.6426C190.976 48.8665 191.414 49.1957 191.798 49.6368C191.938 49.7948 191.984 49.9594 191.944 50.124C191.905 50.2886 191.798 50.44 191.619 50.5651C191.48 50.6639 191.328 50.6968 191.162 50.6639C190.996 50.631 190.837 50.5454 190.698 50.4071C190.214 49.8936 189.61 49.6368 188.881 49.6368C188.377 49.6368 187.926 49.7553 187.541 49.9857C187.157 50.2162 186.852 50.5388 186.633 50.9536C186.414 51.3684 186.308 51.8556 186.308 52.4152C186.308 52.9485 186.421 53.416 186.639 53.8308C186.865 54.2456 187.17 54.5682 187.568 54.8118C187.966 55.0554 188.423 55.1739 188.954 55.1739C189.299 55.1739 189.604 55.1344 189.869 55.0488C190.134 54.9632 190.373 54.8316 190.592 54.6604C190.751 54.5353 190.917 54.4629 191.082 54.4431C191.248 54.4299 191.401 54.476 191.527 54.5814C191.692 54.7196 191.792 54.8711 191.812 55.0488C191.832 55.22 191.772 55.378 191.633 55.5163C190.917 56.1747 190.028 56.5039 188.954 56.5039" fill="#33BCAE"/>
<path d="M197.912 55.1805C198.429 55.1805 198.88 55.062 199.278 54.825C199.676 54.5879 199.988 54.2653 200.206 53.8505C200.432 53.4358 200.538 52.9617 200.538 52.4218C200.538 51.8819 200.425 51.4013 200.206 50.9799C199.981 50.5585 199.676 50.2359 199.278 49.9989C198.88 49.7619 198.423 49.6434 197.912 49.6434C197.401 49.6434 196.937 49.7619 196.546 49.9989C196.148 50.2359 195.837 50.5651 195.611 50.9799C195.386 51.3947 195.266 51.8753 195.266 52.4218C195.266 52.9683 195.379 53.4423 195.611 53.8505C195.837 54.2653 196.148 54.5879 196.546 54.825C196.944 55.062 197.401 55.1805 197.912 55.1805ZM197.912 56.5105C197.11 56.5105 196.4 56.3327 195.783 55.9838C195.167 55.6348 194.683 55.1542 194.331 54.5353C193.98 53.923 193.801 53.2119 193.801 52.4152C193.801 51.6186 193.98 50.8943 194.331 50.282C194.683 49.6697 195.167 49.1825 195.783 48.8335C196.4 48.4846 197.11 48.3068 197.912 48.3068C198.714 48.3068 199.411 48.478 200.021 48.8335C200.637 49.1825 201.122 49.6631 201.473 50.282C201.824 50.8943 201.997 51.6054 201.997 52.4152C201.997 53.2251 201.824 53.9164 201.48 54.5353C201.135 55.1476 200.651 55.6348 200.034 55.9838C199.417 56.3327 198.708 56.5105 197.905 56.5105H197.912Z" fill="#33BCAE"/>
<path d="M210.962 56.4512C210.744 56.4512 210.565 56.3788 210.419 56.234C210.273 56.0891 210.2 55.9113 210.2 55.6941V49.1101C210.2 48.8862 210.273 48.7019 210.419 48.5636C210.565 48.4253 210.744 48.3595 210.962 48.3595C211.181 48.3595 211.374 48.4319 211.513 48.5636C211.652 48.7019 211.718 48.8862 211.718 49.1101V55.6941C211.718 55.9113 211.645 56.0891 211.513 56.234C211.374 56.3788 211.188 56.4512 210.962 56.4512ZM207.673 56.5236C206.99 56.5236 206.38 56.3788 205.837 56.0891C205.299 55.7994 204.868 55.3714 204.557 54.8118C204.245 54.2522 204.086 53.5608 204.086 52.7444V49.1101C204.086 48.8928 204.159 48.715 204.305 48.5702C204.451 48.4253 204.63 48.3529 204.849 48.3529C205.067 48.3529 205.246 48.4253 205.392 48.5702C205.538 48.715 205.611 48.8928 205.611 49.1101V52.7444C205.611 53.2975 205.717 53.7518 205.923 54.1073C206.128 54.4694 206.413 54.7328 206.772 54.904C207.13 55.0752 207.528 55.1608 207.978 55.1608C208.429 55.1608 208.781 55.0752 209.119 54.9106C209.451 54.746 209.716 54.5155 209.915 54.2324C210.114 53.9493 210.213 53.6267 210.213 53.2712H211.148C211.148 53.8835 210.996 54.4299 210.697 54.9237C210.392 55.4175 209.981 55.806 209.464 56.0891C208.947 56.3722 208.35 56.5171 207.687 56.5171L207.673 56.5236Z" fill="#33BCAE"/>
<path d="M215.16 56.471C214.941 56.471 214.762 56.3986 214.616 56.2537C214.47 56.1089 214.397 55.9311 214.397 55.7138V49.1298C214.397 48.906 214.47 48.7216 214.616 48.5833C214.762 48.4451 214.941 48.3792 215.16 48.3792C215.379 48.3792 215.571 48.4517 215.71 48.5833C215.85 48.7216 215.916 48.906 215.916 49.1298V55.7138C215.916 55.9311 215.85 56.1089 215.71 56.2537C215.571 56.3986 215.385 56.471 215.16 56.471ZM221.274 56.471C221.055 56.471 220.876 56.3986 220.73 56.2537C220.584 56.1089 220.518 55.9311 220.518 55.7138V52.0794C220.518 51.5198 220.412 51.0589 220.206 50.7034C220.001 50.3479 219.716 50.0845 219.364 49.9133C219.013 49.7421 218.608 49.6565 218.151 49.6565C217.733 49.6565 217.355 49.7421 217.023 49.9067C216.685 50.0713 216.42 50.2952 216.221 50.5783C216.022 50.8614 215.923 51.1774 215.923 51.5461H214.988C214.988 50.9272 215.14 50.3742 215.439 49.887C215.744 49.3998 216.155 49.0113 216.679 48.7282C217.202 48.4451 217.793 48.3002 218.449 48.3002C219.106 48.3002 219.742 48.4451 220.286 48.7348C220.823 49.0245 221.254 49.4524 221.566 50.0121C221.877 50.5717 222.037 51.263 222.037 52.0794V55.7138C222.037 55.9311 221.964 56.1089 221.818 56.2537C221.672 56.3986 221.493 56.471 221.274 56.471Z" fill="#33BCAE"/>
<path d="M224.198 49.9397C223.993 49.9397 223.82 49.8804 223.694 49.7619C223.568 49.6434 223.502 49.4985 223.502 49.3208C223.502 49.1232 223.568 48.9652 223.694 48.8467C223.82 48.7282 223.993 48.6689 224.198 48.6689H227.633C227.839 48.6689 228.011 48.7282 228.137 48.8467C228.263 48.9652 228.329 49.1232 228.329 49.3208C228.329 49.4985 228.263 49.6434 228.137 49.7619C228.011 49.8804 227.839 49.9397 227.633 49.9397H224.198ZM227.501 56.4512C227.003 56.4512 226.559 56.3261 226.161 56.0759C225.763 55.8258 225.452 55.4834 225.226 55.0488C225.001 54.6143 224.881 54.1271 224.881 53.5872V46.5423C224.881 46.325 224.948 46.1473 225.087 46.009C225.226 45.8707 225.405 45.8049 225.624 45.8049C225.843 45.8049 226.022 45.8707 226.161 46.009C226.3 46.1473 226.367 46.325 226.367 46.5423V53.5872C226.367 53.9822 226.479 54.3114 226.692 54.5748C226.91 54.8382 227.176 54.9764 227.494 54.9764H227.998C228.177 54.9764 228.329 55.0488 228.449 55.1805C228.575 55.3188 228.634 55.4966 228.634 55.7138C228.634 55.9311 228.555 56.1089 228.389 56.2471C228.223 56.3854 228.018 56.4512 227.759 56.4512H227.494H227.501Z" fill="#33BCAE"/>
<path d="M233.469 56.5105C232.773 56.5105 232.136 56.4051 231.546 56.1945C230.956 55.9838 230.498 55.7138 230.166 55.3912C230.021 55.2332 229.954 55.0554 229.981 54.8513C230.007 54.6472 230.1 54.4826 230.273 54.3575C230.472 54.1995 230.664 54.1337 230.863 54.16C231.055 54.1863 231.221 54.2719 231.36 54.4168C231.526 54.6011 231.798 54.7789 232.169 54.9435C232.54 55.1081 232.952 55.1871 233.409 55.1871C233.986 55.1871 234.424 55.0949 234.722 54.904C235.027 54.7196 235.18 54.476 235.193 54.1797C235.206 53.8835 235.06 53.6267 234.768 53.4094C234.477 53.1921 233.94 53.0144 233.17 52.8761C232.169 52.6786 231.44 52.3823 230.989 51.9873C230.538 51.5922 230.312 51.1116 230.312 50.5388C230.312 50.0384 230.458 49.6236 230.757 49.2944C231.055 48.9652 231.433 48.7216 231.904 48.557C232.368 48.3924 232.859 48.3134 233.363 48.3134C234.019 48.3134 234.596 48.4187 235.1 48.6228C235.604 48.827 236.008 49.1167 236.307 49.4788C236.446 49.6368 236.512 49.8014 236.499 49.9726C236.493 50.1438 236.406 50.2886 236.247 50.4071C236.088 50.5125 235.902 50.552 235.684 50.5125C235.465 50.473 235.279 50.3874 235.133 50.2491C234.888 50.0121 234.616 49.8475 234.331 49.7619C234.046 49.6763 233.714 49.6302 233.336 49.6302C232.899 49.6302 232.534 49.7026 232.229 49.8541C231.924 49.9989 231.778 50.2162 231.778 50.5059C231.778 50.6836 231.824 50.8417 231.917 50.9865C232.01 51.1314 232.196 51.2564 232.474 51.3684C232.753 51.4803 233.157 51.5922 233.694 51.6976C234.437 51.8424 235.027 52.0334 235.458 52.2572C235.889 52.4811 236.201 52.7444 236.386 53.0473C236.572 53.3502 236.672 53.6925 236.672 54.0876C236.672 54.5419 236.552 54.9501 236.307 55.3122C236.062 55.6743 235.71 55.964 235.239 56.1813C234.768 56.3986 234.178 56.5039 233.475 56.5039" fill="#33BCAE"/>
<path d="M244.344 4.19401H245.04C245.491 4.19401 245.769 4.17426 245.882 4.13475C245.995 4.09525 246.081 4.02941 246.147 3.93723C246.214 3.84506 246.24 3.72654 246.24 3.58828C246.24 3.43026 246.201 3.30517 246.114 3.21299C246.028 3.11423 245.915 3.05498 245.763 3.03522C245.683 3.02206 245.458 3.02206 245.08 3.02206H244.35V4.19401H244.344ZM248.11 1.86986C247.421 1.18512 246.466 0.763744 245.411 0.763744C244.357 0.763744 243.402 1.18512 242.713 1.86986C242.023 2.55459 241.599 3.50269 241.599 4.54954C241.599 5.5964 242.023 6.5445 242.713 7.22923C243.402 7.91397 244.357 8.33534 245.411 8.33534C246.466 8.33534 247.421 7.91397 248.11 7.22923C248.8 6.5445 249.224 5.5964 249.224 4.54954C249.224 3.50269 248.8 2.55459 248.11 1.86986ZM245.411 0C246.678 0 247.819 0.506968 248.647 1.32997C249.476 2.15297 249.987 3.292 249.987 4.54296C249.987 5.79392 249.476 6.93295 248.647 7.75595C247.819 8.57895 246.671 9.08592 245.411 9.08592C244.151 9.08592 243.004 8.57895 242.175 7.75595C241.347 6.93295 240.836 5.79392 240.836 4.54296C240.836 3.292 241.347 2.15297 242.175 1.32997C243.004 0.506968 244.151 0 245.411 0ZM243.396 6.85394V2.23856H245.372C245.869 2.23856 246.227 2.27806 246.453 2.36366C246.678 2.44925 246.857 2.5941 246.996 2.80478C247.129 3.01547 247.202 3.25908 247.202 3.52902C247.202 3.87798 247.102 4.16109 246.897 4.38494C246.691 4.6088 246.386 4.75365 245.982 4.8129C246.187 4.93142 246.353 5.05651 246.479 5.20136C246.612 5.33962 246.791 5.58982 247.01 5.95194L247.573 6.85394H246.453L245.783 5.84659C245.544 5.49106 245.378 5.26062 245.285 5.16844C245.199 5.07626 245.1 5.01042 245 4.9775C244.901 4.94458 244.742 4.92483 244.523 4.92483H244.331V6.85394H243.389H243.396Z" fill="#33BCAE"/>
</g>
<defs>
<clipPath id="clip0_11240_4304">
<rect width="250" height="60" fill="white"/>
</clipPath>
</defs>
</svg>
