<svg width="378" height="462" viewBox="0 0 378 462" fill="none" xmlns="http://www.w3.org/2000/svg">
<path opacity="0.08" d="M94.2704 351.948C72.2216 346.313 52.4938 334.772 36.8617 319.225C14.1303 296.617 0 265.387 0 231.034C0 196.681 14.1303 165.451 36.8617 142.843C55.2243 124.58 79.2527 111.885 105.943 107.676H106.216H106.489L106.762 107.608H107.035L107.513 107.472H108.196V107.404H108.469L108.742 107.336H109.015L109.288 107.268H109.561H109.834L110.107 107.2H110.38L110.653 107.132H110.926L111.199 107.065H112.087V106.997H112.223H112.36L113.589 106.861H113.793H113.93H114.203H114.476H115.159L115.363 106.793H115.637L116.524 106.725H116.797H117.07L118.23 106.657H118.299H118.504H119.732H119.869H120.074H121.507H121.644C122.121 106.657 122.599 106.657 123.077 106.657H124.784H146.491H302.129C303.836 112.903 304.723 119.421 304.723 126.074C304.723 133.203 303.699 140.195 301.72 146.849H124.579H124.511H123.623H123.418H123.282H122.395H122.258H121.371H121.302H121.234H120.347H120.278H119.391H119.186H119.05H118.162V146.917L117.343 146.985H117.207H116.934H116.592H116.251H116.114H115.91L115.227 147.12H115.022H114.886H114.203L113.93 147.256H113.589H112.974V147.324H112.701H112.36L112.019 147.46H111.677L111.336 147.596H110.995L110.79 147.663H110.653L110.312 147.731H109.971L109.902 147.799H109.698L109.356 147.935H109.015L108.674 148.071H108.401L107.786 148.207H107.65L107.445 148.275L106.831 148.41H106.626L106.489 148.478H106.148L105.807 148.614H105.534V148.682H105.192L104.851 148.818C89.7651 152.62 76.2491 160.495 65.6002 171.086C50.1729 186.429 40.5479 207.611 40.5479 230.83C40.5479 254.049 50.1046 275.231 65.6002 290.642C73.5186 298.518 83.0071 304.9 93.5878 309.245V342.919H93.7243C93.8608 345.906 94.1339 348.893 94.4752 351.812M147.515 355.75C151.201 371.501 159.324 385.622 170.451 396.689C185.947 412.1 207.449 421.673 231.137 421.673C254.824 421.673 276.326 412.1 291.822 396.689C300.218 388.338 306.908 378.222 311.277 366.952H336.465C342.336 366.952 348.138 366.613 353.872 365.866C348.343 388.677 336.534 409.113 320.424 425.203C297.556 447.947 266.019 462 231.137 462C196.254 462 164.717 447.947 141.849 425.203C123.009 406.465 110.107 381.82 106.148 354.324V354.053V353.849L106.012 353.035V352.763V352.491V352.22L105.875 351.134V350.93V350.794L105.738 349.708V349.436V349.233V348.893V347.875L105.602 347.807V347.535L105.465 346.245V346.178V344.752L105.329 344.616V344.48L105.261 343.055V342.783V341.629V341.357V339.932V339.796V339.66V338.234V338.166V336.537H105.329V331.92H105.261V231.102H105.329V160.631C112.019 158.662 119.05 157.643 126.149 157.643H145.604V231.17H145.672V331.988H145.604V336.605H145.672V337.555V337.691V337.827V338.166V338.709V338.777V339.592V339.796V339.932V340.814V341.018V341.493V341.832V342.036V342.172L145.74 343.122V343.394V344.209L145.809 344.277V345.159H145.877V345.974L146.013 346.178V346.585V346.856L146.082 347.128V347.4V347.671L146.15 347.943V348.214V348.486L146.286 349.097V349.233V349.436V350.047L146.423 350.319V350.658V350.93L146.559 351.201V351.337V351.541L146.696 352.152V352.423V352.695L146.832 352.967V353.238L146.901 353.374V353.51L146.969 353.781V354.053L147.105 354.324V354.596L147.242 354.868V355.139L147.379 355.411L147.515 355.75ZM462 230.898C462 265.251 447.87 296.481 425.138 319.089C406.776 337.352 382.816 349.979 356.057 354.189H355.784L355.169 354.324H354.896L354.623 354.392H354.35L353.736 354.528H353.463L353.19 354.596H352.917L352.644 354.664H352.371L352.098 354.732H351.824L351.551 354.8H351.278L351.005 354.868H350.732H350.459H349.913L349.572 354.935H349.299L348.411 355.071H348.207L346.978 355.207H346.705H346.432H346.159H345.544H345.203H345.066L343.701 355.275H343.565H343.36H342.131H341.995H341.858H340.629H340.425H338.855H338.786H337.148H315.372H158.915C157.208 349.029 156.321 342.511 156.321 335.858V315.083H337.148H337.353H338.377H338.445H339.537H340.425H340.561H340.698H341.312H341.585H342.473H342.677H342.746H343.633L343.77 315.015H343.974H344.247H344.52H344.589H344.998H345.066H345.34H345.613H345.817H345.954H346.227L346.5 314.948H346.773L347.046 314.88H347.319L347.592 314.812H347.865L348.138 314.744H348.411L348.684 314.676H348.957L349.23 314.608H349.504H350.05V314.54H350.323L350.596 314.472L351.142 314.337H351.415L351.961 314.201H352.234L352.507 314.065L353.053 313.929H353.326H353.599L353.872 313.793H354.145L354.418 313.658C370.324 310.059 384.522 301.98 395.717 290.846C411.145 275.503 420.77 254.321 420.77 231.102C420.77 207.883 411.213 186.701 395.717 171.29C387.116 162.735 376.74 156.014 365.272 151.737C366.91 143.183 367.798 134.425 367.798 125.599C367.798 120.371 367.525 115.211 366.91 110.12C388.959 115.755 408.687 127.296 424.319 142.843C447.051 165.451 461.181 196.681 461.181 231.034L462 230.898ZM357.081 133.542C357.081 134.085 357.081 134.56 356.944 135.104L357.081 133.542ZM299.604 230.898C307.113 235.718 314.075 241.286 320.355 247.599C335.51 262.671 346.773 281.477 352.712 302.591C347.456 303.813 341.995 304.424 336.397 304.424H310.662C306.293 293.698 299.809 284.057 291.754 276.046C276.258 260.635 254.755 251.062 231.068 251.062C220.215 251.062 211.409 241.761 211.409 230.966C211.409 220.171 220.215 210.87 231.068 210.87C254.755 210.87 276.258 201.298 291.754 185.886C302.539 175.159 310.526 161.581 314.348 146.306V145.966L314.485 145.627V145.287L314.621 144.948V144.608V144.269L314.758 143.929V143.59H314.826V143.318L314.963 142.979V142.64L315.031 142.504V142.3L315.168 141.961V141.621L315.304 141.282V140.942L315.441 140.603V140.263V140.128L315.577 139.584V139.245L315.645 139.177V138.973L315.714 138.634V138.294L315.782 138.091V137.955L315.85 137.616V137.276V137.005L315.918 136.665V136.122L315.987 135.986V135.647V134.968L316.055 134.832V134.628L316.191 133.746V132.999V132.66V131.709L316.26 131.641V130.759L316.328 130.555V130.419V129.74V129.469V128.79V128.45V128.111V127.296V127.092V126.21V125.124V124.173V124.037V123.562V123.019V122.883V122.068V121.865V121.729V121.118V120.779V120.643V120.168V119.828V119.624V119.489V118.674V118.334V117.52L316.26 117.452V116.841L316.191 116.569V116.23V115.958V115.687V115.483V115.415V115.144L316.123 114.872V114.6V114.533V114.329L316.055 114.057V113.786L315.987 113.514V113.243L315.918 112.971V112.699V112.564V112.36L315.85 112.088V111.817L315.714 111.206V110.934L315.645 110.663V110.527V110.323V110.052L315.509 109.78L315.372 109.237V108.898V108.626L315.236 108.354V108.083L315.099 107.811L314.963 107.268L314.895 106.929V106.657L314.758 106.386C311.072 90.6348 302.949 76.5134 291.89 65.4472C276.395 50.0359 254.892 40.4632 231.205 40.4632C207.518 40.4632 187.38 49.4248 171.953 63.9536C162.806 72.6436 155.57 83.3026 150.996 95.1835H125.876C120.074 95.1835 114.271 95.5909 108.537 96.2698C114.34 72.44 126.9 51.2579 144.17 34.8961C166.56 13.1709 197.21 0 230.863 0C264.517 0 297.283 14.0535 320.151 36.7971C338.991 55.535 351.893 80.1796 355.852 107.676V107.947V108.151L356.057 109.237V109.509V109.78L356.193 110.866V111.07V111.206L356.33 112.496V112.632V112.699V112.903L356.466 114.193V114.261V114.533L356.603 115.822V115.89V117.316L356.739 117.452V117.588L356.808 119.013V119.285V120.439V120.711V122.136V122.272V122.408V123.834V123.902V124.105V125.531C356.808 126.074 356.808 126.617 356.808 127.16V127.364V128.79V130.215V130.351V130.419C356.808 130.894 356.808 131.37 356.808 131.845V131.981L356.739 133.406V133.474C356.739 134.017 356.739 134.56 356.603 135.104V135.239L356.466 136.665C356.466 137.14 356.398 137.616 356.33 138.091V138.227V138.43L356.193 139.517V139.856L356.057 141.282V141.417L355.852 142.911L355.715 144.065V144.405V144.473V144.744L355.511 145.83V146.17L355.238 147.392V147.528V147.867L355.101 148.207C350.391 173.666 337.899 196.477 320.219 214.061C313.939 220.307 306.976 225.874 299.467 230.762L299.604 230.898Z" fill="url(#paint0_linear_11240_4300)"/>
<defs>
<linearGradient id="paint0_linear_11240_4300" x1="462" y1="231" x2="0" y2="231" gradientUnits="userSpaceOnUse">
<stop stop-color="#30BCAD"/>
<stop offset="1" stop-color="#01907E"/>
</linearGradient>
</defs>
</svg>
