<svg width="64" height="64" viewBox="0 0 64 64" fill="none" xmlns="http://www.w3.org/2000/svg">
<path d="M60.728 21.651L57 20.719L55 20.219L53 19.719L51 19.219V16.759C54.6837 16.2071 58.1373 14.6285 60.965 12.204L61.893 11.41C62.597 10.806 63 9.928 63 9C63 8.072 62.597 7.194 61.892 6.589L60.965 5.796C57.357 2.704 52.753 1 48 1C43.247 1 38.643 2.704 35.035 5.796L34.107 6.59C33.403 7.194 33 8.072 33 9C33 9.928 33.403 10.806 34.108 11.411L35.034 12.204C36.6896 13.6205 38.567 14.755 40.591 15.562L32.653 25.368C32.135 25.1276 31.5711 25.002 31 25C30.13 25 29.33 25.286 28.673 25.76L24.954 22.662C25.637 21.5626 25.9993 20.2943 26 19C26 15.14 22.859 12 19 12C15.141 12 12 15.14 12 19C11.9994 20.8299 12.7185 22.5867 14.002 23.891L8.17 31.516C7.49538 31.181 6.75318 31.0046 6 31C3.243 31 1 33.243 1 36C1 38.757 3.243 41 6 41C8.757 41 11 38.757 11 36C11 34.747 10.52 33.614 9.756 32.735L15.589 25.107C16.8621 25.8215 18.3276 26.118 19.7783 25.9545C21.2291 25.7911 22.5918 25.1759 23.674 24.196L27.395 27.297C27.138 27.8281 27.003 28.41 27 29C27 31.206 28.794 33 31 33C33.206 33 35 31.206 35 29C35 28.11 34.698 27.296 34.205 26.631L42.609 16.249C43.391 16.468 44.19 16.636 45 16.759V23.229C44.073 22.473 42.906 22 41.618 22C41.172 22.0007 40.7336 22.1153 40.3442 22.3328C39.9548 22.5503 39.6274 22.8636 39.3929 23.2429C39.1584 23.6223 39.0246 24.0553 39.0041 24.5008C38.9837 24.9463 39.0772 25.3897 39.276 25.789L40.471 28.18C40.818 28.8747 40.9991 29.6405 41 30.417V34.896C41 36.479 41.545 38.033 42.533 39.269L44.762 42.055L43 44.697V61H34V44.927C34.382 44.8332 34.7379 44.6547 35.0416 44.4048C35.3453 44.1548 35.5889 43.8398 35.7545 43.483C35.92 43.1263 36.0032 42.7368 35.9979 42.3436C35.9926 41.9503 35.899 41.5632 35.724 41.211L33.342 36.446C32.895 35.555 31.997 35 31 35C30.003 35 29.105 35.555 28.658 36.447L26.276 41.211C26.1012 41.5632 26.0077 41.9503 26.0025 42.3435C25.9973 42.7367 26.0806 43.1261 26.2461 43.4828C26.4116 43.8395 26.6551 44.1545 26.9587 44.4045C27.2623 44.6545 27.6181 44.833 28 44.927V61H22V37.927C22.382 37.8332 22.7379 37.6547 23.0416 37.4048C23.3453 37.1548 23.5889 36.8398 23.7545 36.483C23.92 36.1263 24.0032 35.7368 23.9979 35.3436C23.9926 34.9503 23.899 34.5632 23.724 34.211L21.342 29.447C20.895 28.555 19.998 28 19 28C18.002 28 17.105 28.555 16.658 29.447L14.276 34.211C14.1012 34.5632 14.0077 34.9503 14.0025 35.3435C13.9973 35.7367 14.0806 36.1261 14.2461 36.4828C14.4116 36.8395 14.6551 37.1545 14.9587 37.4045C15.2623 37.6545 15.6181 37.833 16 37.927V61H9V52.927C9.38196 52.8332 9.73795 52.6547 10.0416 52.4048C10.3453 52.1548 10.5889 51.8398 10.7545 51.483C10.92 51.1263 11.0032 50.7368 10.9979 50.3436C10.9926 49.9503 10.899 49.5632 10.724 49.211L8.342 44.446C7.895 43.555 6.997 43 6 43C5.003 43 4.105 43.555 3.658 44.447L1.276 49.211C1.10116 49.5632 1.0077 49.9503 1.00253 50.3435C0.997349 50.7367 1.08059 51.1261 1.24609 51.4828C1.41159 51.8395 1.65512 52.1545 1.9587 52.4045C2.26228 52.6545 2.61814 52.833 3 52.927V61H1V63H63V61H61V44.697L59.238 42.054L61.467 39.268C62.4574 38.0258 62.9978 36.4847 63 34.896V24.562C63.0005 23.8928 62.7771 23.2427 62.3654 22.7152C61.9536 22.1877 61.3773 21.813 60.728 21.651ZM6 39C4.346 39 3 37.654 3 36C3 34.346 4.346 33 6 33C7.654 33 9 34.346 9 36C9 37.654 7.654 39 6 39ZM19 24C16.243 24 14 21.757 14 19C14 16.243 16.243 14 19 14C21.757 14 24 16.243 24 19C24 21.757 21.757 24 19 24ZM31 31C29.897 31 29 30.103 29 29C29 27.897 29.897 27 31 27C32.103 27 33 27.897 33 29C33 30.103 32.103 31 31 31ZM45 11V12.997C44.38 12.531 43.8766 11.9275 43.5296 11.2339C43.1825 10.5403 43.0012 9.77558 43 9C43 6.243 45.243 4 48 4C50.757 4 53 6.243 53 9C52.9989 9.77561 52.8177 10.5404 52.4706 11.234C52.1236 11.9276 51.6201 12.5311 51 12.997V11C51 9.346 49.654 8 48 8C46.346 8 45 9.346 45 11ZM60.59 8.108C60.7187 8.21814 60.822 8.35483 60.8929 8.50867C60.9638 8.66252 61.0005 8.82988 61.0006 8.99927C61.0007 9.16866 60.9642 9.33606 60.8935 9.48999C60.8227 9.64391 60.7196 9.78071 60.591 9.891L59.663 10.685C57.5586 12.492 55.0613 13.7826 52.37 14.454C53.1884 13.7995 53.8496 12.9698 54.3047 12.0258C54.7599 11.0819 54.9975 10.0479 55 9C54.9997 7.95634 54.7657 6.92598 54.3151 5.98461C53.8645 5.04324 53.2087 4.21475 52.396 3.56C55.0762 4.23479 57.564 5.52029 59.665 7.316L60.59 8.108ZM35.41 9.892C35.2813 9.78186 35.178 9.64517 35.1071 9.49133C35.0362 9.33748 34.9995 9.17012 34.9994 9.00073C34.9993 8.83134 35.0358 8.66394 35.1065 8.51001C35.1773 8.35609 35.2804 8.21929 35.409 8.109L36.336 7.315C38.4368 5.51922 40.9247 4.23402 43.605 3.56C42.7919 4.21446 42.1358 5.04286 41.685 5.98429C41.2342 6.92571 41.0001 7.95621 41 9C41.0025 10.0479 41.2401 11.0819 41.6953 12.0258C42.1504 12.9698 42.8116 13.7995 43.63 14.454C40.9383 13.7824 38.4406 12.4915 36.336 10.684L35.41 9.892ZM28.618 43C28.5127 43 28.4091 42.9731 28.3171 42.9218C28.2251 42.8706 28.1478 42.7967 28.0924 42.7071C28.037 42.6175 28.0054 42.5153 28.0006 42.4101C27.9958 42.3049 28.018 42.2002 28.065 42.106L30.447 37.343C30.658 36.919 31.342 36.92 31.552 37.342L33.934 42.106C33.981 42.2001 34.0032 42.3047 33.9984 42.4099C33.9937 42.515 33.9622 42.6171 33.9069 42.7067C33.8516 42.7962 33.7744 42.8702 33.6825 42.9215C33.5907 42.9728 33.4872 42.9998 33.382 43H32V61H30V43H28.618ZM16.618 36C16.5127 36 16.4091 35.9731 16.3171 35.9218C16.2251 35.8706 16.1478 35.7967 16.0924 35.7071C16.037 35.6175 16.0054 35.5153 16.0006 35.4101C15.9958 35.3049 16.018 35.2002 16.065 35.106L18.447 30.343C18.658 29.92 19.342 29.921 19.552 30.343L21.934 35.107C21.9808 35.2011 22.0028 35.3056 21.9979 35.4106C21.993 35.5155 21.9615 35.6176 21.9062 35.7069C21.851 35.7963 21.7738 35.8702 21.6821 35.9214C21.5904 35.9727 21.4871 35.9998 21.382 36H20V61H18V36H16.618ZM3.618 51C3.51269 51 3.40912 50.9731 3.31713 50.9218C3.22514 50.8706 3.14777 50.7967 3.09237 50.7071C3.03697 50.6175 3.00537 50.5153 3.00058 50.4101C2.99579 50.3049 3.01797 50.2002 3.065 50.106L5.447 45.343C5.658 44.919 6.342 44.92 6.552 45.342L8.934 50.106C8.98099 50.2001 9.00317 50.3047 8.99843 50.4099C8.99368 50.515 8.96218 50.6171 8.90689 50.7067C8.85161 50.7962 8.77438 50.8702 8.68253 50.9215C8.59067 50.9728 8.48723 50.9998 8.382 51H7V61H5V51H3.618ZM45 61V45.303L46.535 43H57.465L59 45.303V61H45ZM61 34.896C61 36.027 60.611 37.136 59.904 38.019L57.519 41H46.481L44.096 38.019C43.3879 37.132 43.0015 36.031 43 34.896V30.417C42.9986 29.3303 42.7457 28.2587 42.261 27.286L41.066 24.895C41.0188 24.8008 40.9964 24.6961 41.001 24.5909C41.0057 24.4856 41.0371 24.3833 41.0924 24.2936C41.1478 24.2039 41.2251 24.1299 41.3171 24.0785C41.409 24.0271 41.5126 24.0001 41.618 24C42.5146 24.0011 43.3742 24.3577 44.0083 24.9917C44.6423 25.6258 44.9989 26.4854 45 27.382V32H47V11C47.0115 10.7425 47.1219 10.4994 47.3082 10.3213C47.4945 10.1431 47.7423 10.0437 48 10.0437C48.2577 10.0437 48.5055 10.1431 48.6918 10.3213C48.8781 10.4994 48.9885 10.7425 49 11V32H51V21.281L53 21.781V32H55V22.281L57 22.781V32H59V23.281L60.242 23.592C60.688 23.703 61 24.102 61 24.562V34.896Z" fill="#FFCC29"/>
<path d="M19 16C17.346 16 16 17.346 16 19C16 20.654 17.346 22 19 22C20.654 22 22 20.654 22 19C22 17.346 20.654 16 19 16ZM19 20C18.7425 19.9885 18.4994 19.8781 18.3213 19.6918C18.1431 19.5055 18.0437 19.2577 18.0437 19C18.0437 18.7423 18.1431 18.4945 18.3213 18.3082C18.4994 18.1219 18.7425 18.0115 19 18C19.2575 18.0115 19.5006 18.1219 19.6787 18.3082C19.8569 18.4945 19.9563 18.7423 19.9563 19C19.9563 19.2577 19.8569 19.5055 19.6787 19.6918C19.5006 19.8781 19.2575 19.9885 19 20Z" fill="#FFCC29"/>
</svg>
