<svg width="34" height="34" viewBox="0 0 34 34" fill="none" xmlns="http://www.w3.org/2000/svg">
<path d="M30.4193 9.96649C30.5734 11.7196 30.5734 13.9049 30.5734 16.6765C30.5734 22.421 30.5734 25.647 29.2012 27.7264L20.9304 19.4556L30.4193 9.96649Z" fill="white"/>
<path d="M27.7274 29.2006L19.4564 20.9296L9.96639 30.4194C11.7195 30.5735 13.9048 30.5735 16.6764 30.5735C22.4219 30.5735 25.6479 30.5735 27.7274 29.2006Z" fill="white"/>
<path fill-rule="evenodd" clip-rule="evenodd" d="M16.6764 2.77942C23.2275 2.77942 26.5031 2.77942 28.5382 4.8146C29.2385 5.51482 29.6978 6.36189 29.999 7.43868L7.43856 29.9992C6.36177 29.6979 5.5147 29.2386 4.81447 28.5384C2.7793 26.5032 2.7793 23.2276 2.7793 16.6765C2.7793 10.1253 2.7793 6.84977 4.81447 4.8146C6.84965 2.77942 10.1252 2.77942 16.6764 2.77942ZM7.64327 12.1701C7.64327 14.6505 9.19568 17.545 11.6178 18.5801C12.1824 18.8214 12.8321 18.8214 13.3967 18.5801C15.8188 17.545 17.3712 14.6505 17.3712 12.1701C17.3712 9.67007 15.1935 7.64339 12.5072 7.64339C9.82094 7.64339 7.64327 9.67007 7.64327 12.1701Z" fill="white"/>
<path d="M14.5918 12.5074C14.5918 13.6586 13.6585 14.5919 12.5072 14.5919C11.356 14.5919 10.4227 13.6586 10.4227 12.5074C10.4227 11.3561 11.356 10.4228 12.5072 10.4228C13.6585 10.4228 14.5918 11.3561 14.5918 12.5074Z" fill="white"/>
</svg>
