<svg width="41" height="15" viewBox="0 0 41 15" fill="none" xmlns="http://www.w3.org/2000/svg">
<path fill-rule="evenodd" clip-rule="evenodd" d="M20.9995 4.19846V3.43821H23.2639V14.1302H21.9684C21.4351 14.1302 21.0024 13.6969 20.9995 13.1614L20.9985 13.1621C20.0866 13.8329 18.9592 14.2314 17.7416 14.2314C14.692 14.2314 12.2194 11.7457 12.2194 8.67995C12.2194 5.61423 14.692 3.12883 17.7416 3.12883C18.9592 3.12883 20.0866 3.52702 20.9985 4.19781L20.9995 4.19846ZM11.6328 0V0.346456C11.6328 0.993172 11.5467 1.52082 11.1292 2.14022L11.0788 2.19812C10.9876 2.30222 10.7735 2.54653 10.6716 2.67893L3.40306 11.8563H11.6328V13.1556C11.6328 13.6939 11.1984 14.1302 10.6632 14.1302H0V13.5176C0 12.7671 0.185304 12.4327 0.41944 12.084L8.16824 2.43625H0.323069V0H11.6328ZM26.0101 14.1302C25.5648 14.1302 25.2026 13.7662 25.2026 13.3189V0H27.6261V14.1302H26.0101ZM34.7922 3.06182C37.8628 3.06182 40.3517 5.56606 40.3517 8.65033C40.3517 11.7375 37.8628 14.2418 34.7922 14.2418C31.7212 14.2418 29.2328 11.7375 29.2328 8.65033C29.2328 5.56606 31.7212 3.06182 34.7922 3.06182ZM17.7416 11.9461C19.5361 11.9461 20.9904 10.4841 20.9904 8.67995C20.9904 6.87871 19.5361 5.41644 17.7416 5.41644C15.9471 5.41644 14.4925 6.87871 14.4925 8.67995C14.4925 10.4841 15.9471 11.9461 17.7416 11.9461ZM34.7922 11.9405C36.5974 11.9405 38.0623 10.4679 38.0623 8.65033C38.0623 6.83573 36.5974 5.36308 34.7922 5.36308C32.9841 5.36308 31.5217 6.83573 31.5217 8.65033C31.5217 10.4679 32.9841 11.9405 34.7922 11.9405Z" fill="white"/>
</svg>
